<svg width="850" height="850" viewBox="0 0 850 850" fill="none" xmlns="http://www.w3.org/2000/svg">
<circle cx="425" cy="425" r="425" fill="#FAB54D" fill-opacity="0.15"/>
<circle cx="425" cy="427" r="100" fill="#FAB54D" fill-opacity="0.2"/>
<g filter="url(#filter0_d)">
<rect x="273" y="45" width="312" height="100" rx="50" fill="#684AFF"/>
</g>
<path d="M384.131 99.668C383.873 102.398 382.865 104.531 381.107 106.066C379.35 107.59 377.012 108.352 374.094 108.352C372.055 108.352 370.256 107.871 368.697 106.91C367.15 105.938 365.955 104.561 365.111 102.779C364.268 100.998 363.828 98.9297 363.793 96.5742V94.1836C363.793 91.7695 364.221 89.6426 365.076 87.8027C365.932 85.9629 367.156 84.5449 368.75 83.5488C370.355 82.5527 372.207 82.0547 374.305 82.0547C377.129 82.0547 379.402 82.8223 381.125 84.3574C382.848 85.8926 383.85 88.0605 384.131 90.8613H379.701C379.49 89.0215 378.951 87.6973 378.084 86.8887C377.229 86.0684 375.969 85.6582 374.305 85.6582C372.371 85.6582 370.883 86.3672 369.84 87.7852C368.809 89.1914 368.281 91.2598 368.258 93.9902V96.2578C368.258 99.0234 368.75 101.133 369.734 102.586C370.73 104.039 372.184 104.766 374.094 104.766C375.84 104.766 377.152 104.373 378.031 103.588C378.91 102.803 379.467 101.496 379.701 99.668H384.131ZM397.525 98.1387H392.568V108H388.121V82.4062H397.121C400.074 82.4062 402.354 83.0684 403.959 84.3926C405.564 85.7168 406.367 87.6328 406.367 90.1406C406.367 91.8516 405.951 93.2871 405.119 94.4473C404.299 95.5957 403.15 96.4805 401.674 97.1016L407.422 107.771V108H402.658L397.525 98.1387ZM392.568 94.5703H397.139C398.639 94.5703 399.811 94.1953 400.654 93.4453C401.498 92.6836 401.92 91.6465 401.92 90.334C401.92 88.9629 401.527 87.9023 400.742 87.1523C399.969 86.4023 398.809 86.0156 397.262 85.9922H392.568V94.5703ZM425.545 96.5742H415.033V104.449H427.32V108H410.586V82.4062H427.197V85.9922H415.033V93.0586H425.545V96.5742ZM445.268 102.041H435.354L433.279 108H428.656L438.324 82.4062H442.314L452 108H447.359L445.268 102.041ZM436.602 98.4551H444.02L440.311 87.8379L436.602 98.4551ZM471.301 85.9922H463.32V108H458.908V85.9922H450.998V82.4062H471.301V85.9922ZM489.635 96.5742H479.123V104.449H491.41V108H474.676V82.4062H491.287V85.9922H479.123V93.0586H489.635V96.5742Z" fill="#F5F8FB"/>
<g filter="url(#filter1_d)">
<circle cx="114" cy="281" r="100" fill="#171933"/>
</g>
<circle cx="114.5" cy="281.5" r="62.5" fill="#EF4A71"/>
<path fill-rule="evenodd" clip-rule="evenodd" d="M122 291.5V277.5H131.333L115 261.167L98.6666 277.5H108V291.5H122ZM115 267.77L120.063 272.833H117.333V286.833H112.667V272.833H109.937L115 267.77ZM131.333 300.833V296.167H98.6666V300.833H131.333Z" fill="#171933"/>
<g filter="url(#filter2_d)">
<rect x="198" y="420" width="100" height="58" rx="29" fill="#171933"/>
</g>
<circle cx="228" cy="449" r="20" fill="#57D3C2"/>
<g filter="url(#filter3_d)">
<circle cx="695" cy="205" r="35" fill="#4AA6C9"/>
</g>
<path fill-rule="evenodd" clip-rule="evenodd" d="M702.87 205.963C702.445 206.738 701.62 207.25 700.683 207.25H691.37L689.995 209.75H704.995V212.25H689.995C688.095 212.25 686.895 210.212 687.808 208.537L689.495 205.488L684.995 196H682.495V193.5H686.583L687.758 196H706.258C707.208 196 707.808 197.025 707.345 197.85L702.87 205.963ZM704.133 198.5H688.945L691.908 204.75H700.683L704.133 198.5ZM689.995 213.5C688.62 213.5 687.508 214.625 687.508 216C687.508 217.375 688.62 218.5 689.995 218.5C691.37 218.5 692.495 217.375 692.495 216C692.495 214.625 691.37 213.5 689.995 213.5ZM700.008 216C700.008 214.625 701.12 213.5 702.495 213.5C703.87 213.5 704.995 214.625 704.995 216C704.995 217.375 703.87 218.5 702.495 218.5C701.12 218.5 700.008 217.375 700.008 216Z" fill="#F5F8FB"/>
<rect x="28" y="582" width="400" height="80" rx="10" fill="#171933"/>
<path d="M63.8359 625.914L58.4746 624.367L59.4414 621.396L64.75 623.453L64.4863 617.406H67.6328L67.3691 623.559L72.5898 621.537L73.5391 624.561L68.0898 626.107L71.6055 630.783L69.0566 632.646L65.8926 627.584L62.7637 632.488L60.1973 630.695L63.8359 625.914ZM88.7617 625.914L83.4004 624.367L84.3672 621.396L89.6758 623.453L89.4121 617.406H92.5586L92.2949 623.559L97.5156 621.537L98.4648 624.561L93.0156 626.107L96.5312 630.783L93.9824 632.646L90.8184 627.584L87.6895 632.488L85.123 630.695L88.7617 625.914ZM113.688 625.914L108.326 624.367L109.293 621.396L114.602 623.453L114.338 617.406H117.484L117.221 623.559L122.441 621.537L123.391 624.561L117.941 626.107L121.457 630.783L118.908 632.646L115.744 627.584L112.615 632.488L110.049 630.695L113.688 625.914ZM138.613 625.914L133.252 624.367L134.219 621.396L139.527 623.453L139.264 617.406H142.41L142.146 623.559L147.367 621.537L148.316 624.561L142.867 626.107L146.383 630.783L143.834 632.646L140.67 627.584L137.541 632.488L134.975 630.695L138.613 625.914Z" fill="#F5F8FB"/>
<path d="M30.7412 566.302V570H29.0117V560.047H32.8193C33.9313 560.047 34.8132 560.336 35.4648 560.915C36.1211 561.494 36.4492 562.259 36.4492 563.212C36.4492 564.187 36.1279 564.946 35.4854 565.488C34.8473 566.031 33.9518 566.302 32.7988 566.302H30.7412ZM30.7412 564.914H32.8193C33.4346 564.914 33.904 564.771 34.2275 564.483C34.5511 564.192 34.7129 563.772 34.7129 563.226C34.7129 562.688 34.5488 562.259 34.2207 561.94C33.8926 561.617 33.4414 561.451 32.8672 561.441H30.7412V564.914ZM44.6313 567.683H40.7758L39.9692 570H38.1713L41.9311 560.047H43.4829L47.2495 570H45.4448L44.6313 567.683ZM41.2612 566.288H44.1459L42.7036 562.159L41.2612 566.288ZM55.8964 567.437C55.8964 566.999 55.7414 566.662 55.4315 566.425C55.1262 566.188 54.5725 565.949 53.7704 565.707C52.9683 565.465 52.3303 565.197 51.8563 564.9C50.9494 564.331 50.496 563.588 50.496 562.672C50.496 561.87 50.8218 561.209 51.4735 560.689C52.1298 560.17 52.9797 559.91 54.0233 559.91C54.716 559.91 55.3335 560.038 55.8759 560.293C56.4182 560.548 56.8443 560.913 57.1542 561.387C57.4641 561.856 57.619 562.378 57.619 562.952H55.8964C55.8964 562.433 55.7323 562.027 55.4042 561.735C55.0806 561.439 54.6158 561.291 54.0096 561.291C53.4445 561.291 53.0048 561.412 52.6903 561.653C52.3804 561.895 52.2255 562.232 52.2255 562.665C52.2255 563.03 52.3941 563.335 52.7313 563.581C53.0686 563.823 53.6246 564.06 54.3993 564.292C55.174 564.52 55.7961 564.782 56.2655 565.078C56.7349 565.37 57.079 565.707 57.2977 566.09C57.5165 566.468 57.6259 566.912 57.6259 567.423C57.6259 568.252 57.3068 568.913 56.6688 569.405C56.0354 569.893 55.174 570.137 54.0848 570.137C53.3648 570.137 52.7017 570.005 52.0956 569.74C51.494 569.471 51.0246 569.102 50.6874 568.633C50.3547 568.163 50.1884 567.617 50.1884 566.992H51.9179C51.9179 567.557 52.1047 567.995 52.4784 568.305C52.8521 568.615 53.3876 568.77 54.0848 568.77C54.6864 568.77 55.1376 568.649 55.4384 568.407C55.7437 568.161 55.8964 567.838 55.8964 567.437ZM66.6556 567.437C66.6556 566.999 66.5006 566.662 66.1907 566.425C65.8854 566.188 65.3317 565.949 64.5296 565.707C63.7275 565.465 63.0895 565.197 62.6155 564.9C61.7086 564.331 61.2552 563.588 61.2552 562.672C61.2552 561.87 61.581 561.209 62.2327 560.689C62.889 560.17 63.7389 559.91 64.7825 559.91C65.4752 559.91 66.0928 560.038 66.6351 560.293C67.1774 560.548 67.6035 560.913 67.9134 561.387C68.2233 561.856 68.3782 562.378 68.3782 562.952H66.6556C66.6556 562.433 66.4915 562.027 66.1634 561.735C65.8398 561.439 65.375 561.291 64.7689 561.291C64.2038 561.291 63.764 561.412 63.4495 561.653C63.1396 561.895 62.9847 562.232 62.9847 562.665C62.9847 563.03 63.1533 563.335 63.4905 563.581C63.8278 563.823 64.3838 564.06 65.1585 564.292C65.9333 564.52 66.5553 564.782 67.0247 565.078C67.4941 565.37 67.8382 565.707 68.057 566.09C68.2757 566.468 68.3851 566.912 68.3851 567.423C68.3851 568.252 68.0661 568.913 67.428 569.405C66.7946 569.893 65.9333 570.137 64.8441 570.137C64.124 570.137 63.4609 570.005 62.8548 569.74C62.2532 569.471 61.7838 569.102 61.4466 568.633C61.1139 568.163 60.9476 567.617 60.9476 566.992H62.6771C62.6771 567.557 62.8639 567.995 63.2376 568.305C63.6113 568.615 64.1468 568.77 64.8441 568.77C65.4456 568.77 65.8968 568.649 66.1976 568.407C66.5029 568.161 66.6556 567.838 66.6556 567.437ZM80.0193 567.539L81.5505 560.047H83.2664L80.9695 570H79.3152L77.4216 562.733L75.4871 570H73.8259L71.5291 560.047H73.2449L74.7898 567.525L76.6902 560.047H78.1394L80.0193 567.539ZM94.7844 565.283C94.7844 566.258 94.6158 567.115 94.2785 567.854C93.9413 568.587 93.4582 569.152 92.8293 569.549C92.2049 569.941 91.4849 570.137 90.6691 570.137C89.8625 570.137 89.1424 569.941 88.509 569.549C87.8801 569.152 87.3924 568.59 87.0461 567.86C86.7043 567.131 86.5311 566.29 86.5266 565.338V564.777C86.5266 563.807 86.6975 562.95 87.0393 562.207C87.3856 561.464 87.871 560.897 88.4953 560.505C89.1242 560.108 89.8443 559.91 90.6555 559.91C91.4667 559.91 92.1844 560.106 92.8088 560.498C93.4377 560.885 93.923 561.446 94.2648 562.18C94.6066 562.909 94.7798 563.759 94.7844 564.729V565.283ZM93.0549 564.764C93.0549 563.661 92.8452 562.815 92.426 562.228C92.0113 561.64 91.4211 561.346 90.6555 561.346C89.9081 561.346 89.3225 561.64 88.8986 562.228C88.4794 562.811 88.2652 563.638 88.2561 564.709V565.283C88.2561 566.377 88.468 567.222 88.8918 567.819C89.3202 568.416 89.9126 568.715 90.6691 568.715C91.4348 568.715 92.0227 568.423 92.4328 567.84C92.8475 567.257 93.0549 566.404 93.0549 565.283V564.764ZM102.474 566.165H100.547V570H98.817V560.047H102.317C103.465 560.047 104.352 560.304 104.976 560.819C105.601 561.334 105.913 562.079 105.913 563.055C105.913 563.72 105.751 564.278 105.427 564.729C105.108 565.176 104.662 565.52 104.088 565.762L106.323 569.911V570H104.47L102.474 566.165ZM100.547 564.777H102.324C102.907 564.777 103.363 564.632 103.691 564.34C104.019 564.044 104.183 563.64 104.183 563.13C104.183 562.597 104.031 562.184 103.725 561.893C103.424 561.601 102.973 561.451 102.372 561.441H100.547V564.777ZM109.863 570V560.047H112.803C113.682 560.047 114.462 560.243 115.141 560.635C115.824 561.027 116.353 561.583 116.727 562.303C117.1 563.023 117.287 563.848 117.287 564.777V565.276C117.287 566.22 117.098 567.049 116.72 567.765C116.346 568.48 115.811 569.032 115.113 569.419C114.421 569.806 113.625 570 112.728 570H109.863ZM111.593 561.441V568.619H112.721C113.628 568.619 114.323 568.337 114.806 567.771C115.293 567.202 115.542 566.386 115.551 565.324V564.771C115.551 563.69 115.316 562.866 114.847 562.296C114.377 561.726 113.696 561.441 112.803 561.441H111.593Z" fill="#7F82BF"/>
<g filter="url(#filter4_d)">
<rect x="395" y="309" width="407" height="100" rx="12" fill="white"/>
</g>
<path d="M441.042 352.208H443.958V355.125H441.042V352.208Z" fill="#F1923B"/>
<path d="M441.042 358.042H443.958V366.792H441.042V358.042Z" fill="#F1923B"/>
<path fill-rule="evenodd" clip-rule="evenodd" d="M427.917 359.5C427.917 351.45 434.45 344.917 442.5 344.917C450.55 344.917 457.083 351.45 457.083 359.5C457.083 367.55 450.55 374.083 442.5 374.083C434.45 374.083 427.917 367.55 427.917 359.5ZM430.833 359.5C430.833 365.931 436.069 371.167 442.5 371.167C448.931 371.167 454.167 365.931 454.167 359.5C454.167 353.069 448.931 347.833 442.5 347.833C436.069 347.833 430.833 353.069 430.833 359.5Z" fill="#F1923B"/>
<path d="M481.26 333.148V346H483.366V333.148H481.26ZM490.275 336.442C489.375 336.442 488.529 336.838 487.755 337.648V336.694H485.703V346H487.755V340.42C487.755 339.808 487.935 339.268 488.295 338.836C488.655 338.368 489.123 338.152 489.717 338.152C490.941 338.152 491.553 338.854 491.553 340.276V346H493.605V340.312C493.605 339.628 493.767 339.106 494.127 338.728C494.469 338.332 494.883 338.152 495.387 338.152C496.107 338.152 496.611 338.314 496.935 338.656C497.241 338.98 497.403 339.52 497.403 340.258V346H499.455V339.898C499.455 338.872 499.131 338.044 498.519 337.396C497.871 336.748 497.079 336.442 496.125 336.442C495.495 336.442 494.973 336.55 494.559 336.766C494.091 336.982 493.641 337.378 493.209 337.954C492.615 336.946 491.643 336.442 490.275 336.442ZM506.327 336.442C505.103 336.442 504.167 336.856 503.519 337.684V336.694H501.611V349.564H503.663V344.722C504.419 345.73 505.355 346.252 506.435 346.252C507.767 346.252 508.829 345.766 509.585 344.794C510.287 343.894 510.647 342.76 510.647 341.392C510.647 339.952 510.287 338.8 509.567 337.9C508.775 336.928 507.695 336.442 506.327 336.442ZM506.021 338.098C506.921 338.098 507.587 338.422 508.019 339.07C508.361 339.61 508.541 340.384 508.541 341.392C508.541 342.4 508.343 343.174 507.965 343.714C507.533 344.29 506.849 344.596 505.949 344.596C505.283 344.596 504.743 344.326 504.311 343.786C503.825 343.192 503.591 342.4 503.591 341.428V341.284C503.591 340.348 503.771 339.61 504.167 339.052C504.599 338.404 505.211 338.098 506.021 338.098ZM516.759 336.442C515.337 336.442 514.203 336.892 513.357 337.828C512.493 338.746 512.079 339.916 512.079 341.356C512.079 342.778 512.493 343.948 513.339 344.848C514.203 345.784 515.337 346.252 516.759 346.252C518.163 346.252 519.315 345.784 520.179 344.848C521.007 343.948 521.439 342.778 521.439 341.356C521.439 339.916 521.007 338.746 520.161 337.828C519.297 336.892 518.163 336.442 516.759 336.442ZM516.759 338.116C517.605 338.116 518.271 338.44 518.739 339.124C519.135 339.7 519.351 340.456 519.351 341.356C519.351 342.238 519.135 342.976 518.739 343.57C518.271 344.236 517.605 344.578 516.759 344.578C515.895 344.578 515.247 344.236 514.779 343.57C514.383 342.994 514.185 342.256 514.185 341.356C514.185 340.456 514.383 339.7 514.779 339.124C515.247 338.44 515.895 338.116 516.759 338.116ZM527.624 336.442C527.048 336.442 526.562 336.604 526.148 336.946C525.806 337.198 525.518 337.558 525.266 338.026V336.694H523.232V346H525.266V341.068C525.266 340.276 525.5 339.646 526.004 339.16C526.436 338.728 526.922 338.53 527.462 338.53C527.894 338.53 528.326 338.584 528.794 338.728V336.676C528.47 336.514 528.074 336.442 527.624 336.442ZM532.881 333.688L530.829 334.534V336.694H529.155V338.386H530.829V343.642C530.829 344.398 531.009 344.956 531.369 345.352C531.747 345.784 532.341 346 533.151 346H534.717V344.308H533.493C533.277 344.308 533.133 344.254 533.025 344.146C532.917 344.02 532.881 343.858 532.881 343.642V338.386H534.951V336.694H532.881V333.688ZM540.716 336.442C539.528 336.442 538.592 336.64 537.908 337.072C537.098 337.54 536.594 338.296 536.396 339.322L538.43 339.484C538.538 338.998 538.808 338.638 539.204 338.404C539.546 338.188 539.996 338.098 540.572 338.098C541.904 338.098 542.57 338.692 542.57 339.916V340.276L540.536 340.33C539.168 340.366 538.106 340.654 537.35 341.194C536.522 341.752 536.126 342.562 536.126 343.606C536.126 344.38 536.414 345.01 536.99 345.514C537.548 346 538.304 346.252 539.276 346.252C540.086 346.252 540.788 346.108 541.382 345.838C541.904 345.586 542.354 345.244 542.714 344.776V346H544.622V340.06C544.622 338.926 544.334 338.062 543.758 337.468C543.11 336.784 542.084 336.442 540.716 336.442ZM542.57 341.752V342.22C542.57 342.94 542.282 343.534 541.742 344.002C541.202 344.452 540.536 344.686 539.744 344.686C539.294 344.686 538.934 344.56 538.646 344.344C538.358 344.128 538.232 343.858 538.232 343.534C538.232 342.418 539.042 341.842 540.68 341.806L542.57 341.752ZM551.593 336.442C551.035 336.442 550.531 336.55 550.063 336.784C549.613 337 549.199 337.342 548.839 337.774V336.694H546.787V346H548.839V340.402C548.911 339.664 549.163 339.088 549.595 338.692C549.973 338.332 550.423 338.152 550.927 338.152C552.331 338.152 553.033 338.908 553.033 340.438V346H555.085V340.258C555.085 337.702 553.915 336.442 551.593 336.442ZM560.162 333.688L558.11 334.534V336.694H556.436V338.386H558.11V343.642C558.11 344.398 558.29 344.956 558.65 345.352C559.028 345.784 559.622 346 560.432 346H561.998V344.308H560.774C560.558 344.308 560.414 344.254 560.306 344.146C560.198 344.02 560.162 343.858 560.162 343.642V338.386H562.232V336.694H560.162V333.688ZM571.148 332.896C570.752 332.896 570.428 333.022 570.158 333.274C569.888 333.526 569.762 333.85 569.762 334.246C569.762 334.642 569.888 334.966 570.158 335.236C570.428 335.488 570.752 335.614 571.148 335.614C571.544 335.614 571.868 335.488 572.138 335.236C572.408 334.984 572.552 334.642 572.552 334.246C572.552 333.85 572.408 333.526 572.156 333.274C571.886 333.022 571.544 332.896 571.148 332.896ZM570.122 336.694V346H572.174V336.694H570.122ZM579.525 336.442C578.967 336.442 578.463 336.55 577.995 336.784C577.545 337 577.131 337.342 576.771 337.774V336.694H574.719V346H576.771V340.402C576.843 339.664 577.095 339.088 577.527 338.692C577.905 338.332 578.355 338.152 578.859 338.152C580.263 338.152 580.965 338.908 580.965 340.438V346H583.017V340.258C583.017 337.702 581.847 336.442 579.525 336.442ZM588.832 333.148C588.004 333.148 587.356 333.364 586.924 333.832C586.474 334.282 586.258 334.912 586.258 335.704V336.694H584.188V338.368H586.258V346H588.31V338.368H590.686V336.694H588.31V335.758C588.31 335.452 588.364 335.236 588.508 335.092C588.652 334.948 588.85 334.876 589.12 334.876H590.812V333.148H588.832ZM596.3 336.442C594.878 336.442 593.744 336.892 592.898 337.828C592.034 338.746 591.62 339.916 591.62 341.356C591.62 342.778 592.034 343.948 592.88 344.848C593.744 345.784 594.878 346.252 596.3 346.252C597.704 346.252 598.856 345.784 599.72 344.848C600.548 343.948 600.98 342.778 600.98 341.356C600.98 339.916 600.548 338.746 599.702 337.828C598.838 336.892 597.704 336.442 596.3 336.442ZM596.3 338.116C597.146 338.116 597.812 338.44 598.28 339.124C598.676 339.7 598.892 340.456 598.892 341.356C598.892 342.238 598.676 342.976 598.28 343.57C597.812 344.236 597.146 344.578 596.3 344.578C595.436 344.578 594.788 344.236 594.32 343.57C593.924 342.994 593.726 342.256 593.726 341.356C593.726 340.456 593.924 339.7 594.32 339.124C594.788 338.44 595.436 338.116 596.3 338.116ZM607.165 336.442C606.589 336.442 606.103 336.604 605.689 336.946C605.347 337.198 605.059 337.558 604.807 338.026V336.694H602.773V346H604.807V341.068C604.807 340.276 605.041 339.646 605.545 339.16C605.977 338.728 606.463 338.53 607.003 338.53C607.435 338.53 607.867 338.584 608.335 338.728V336.676C608.011 336.514 607.615 336.442 607.165 336.442ZM614.078 336.442C613.178 336.442 612.332 336.838 611.558 337.648V336.694H609.506V346H611.558V340.42C611.558 339.808 611.738 339.268 612.098 338.836C612.458 338.368 612.926 338.152 613.52 338.152C614.744 338.152 615.356 338.854 615.356 340.276V346H617.408V340.312C617.408 339.628 617.57 339.106 617.93 338.728C618.272 338.332 618.686 338.152 619.19 338.152C619.91 338.152 620.414 338.314 620.738 338.656C621.044 338.98 621.206 339.52 621.206 340.258V346H623.258V339.898C623.258 338.872 622.934 338.044 622.322 337.396C621.674 336.748 620.882 336.442 619.928 336.442C619.298 336.442 618.776 336.55 618.362 336.766C617.894 336.982 617.444 337.378 617.012 337.954C616.418 336.946 615.446 336.442 614.078 336.442ZM629.644 336.442C628.456 336.442 627.52 336.64 626.836 337.072C626.026 337.54 625.522 338.296 625.324 339.322L627.358 339.484C627.466 338.998 627.736 338.638 628.132 338.404C628.474 338.188 628.924 338.098 629.5 338.098C630.832 338.098 631.498 338.692 631.498 339.916V340.276L629.464 340.33C628.096 340.366 627.034 340.654 626.278 341.194C625.45 341.752 625.054 342.562 625.054 343.606C625.054 344.38 625.342 345.01 625.918 345.514C626.476 346 627.232 346.252 628.204 346.252C629.014 346.252 629.716 346.108 630.31 345.838C630.832 345.586 631.282 345.244 631.642 344.776V346H633.55V340.06C633.55 338.926 633.262 338.062 632.686 337.468C632.038 336.784 631.012 336.442 629.644 336.442ZM631.498 341.752V342.22C631.498 342.94 631.21 343.534 630.67 344.002C630.13 344.452 629.464 344.686 628.672 344.686C628.222 344.686 627.862 344.56 627.574 344.344C627.286 344.128 627.16 343.858 627.16 343.534C627.16 342.418 627.97 341.842 629.608 341.806L631.498 341.752ZM638.631 333.688L636.579 334.534V336.694H634.905V338.386H636.579V343.642C636.579 344.398 636.759 344.956 637.119 345.352C637.497 345.784 638.091 346 638.901 346H640.467V344.308H639.243C639.027 344.308 638.883 344.254 638.775 344.146C638.667 344.02 638.631 343.858 638.631 343.642V338.386H640.701V336.694H638.631V333.688ZM643.622 332.896C643.226 332.896 642.902 333.022 642.632 333.274C642.362 333.526 642.236 333.85 642.236 334.246C642.236 334.642 642.362 334.966 642.632 335.236C642.902 335.488 643.226 335.614 643.622 335.614C644.018 335.614 644.342 335.488 644.612 335.236C644.882 334.984 645.026 334.642 645.026 334.246C645.026 333.85 644.882 333.526 644.63 333.274C644.36 333.022 644.018 332.896 643.622 332.896ZM642.596 336.694V346H644.648V336.694H642.596ZM651.513 336.442C650.091 336.442 648.957 336.892 648.111 337.828C647.247 338.746 646.833 339.916 646.833 341.356C646.833 342.778 647.247 343.948 648.093 344.848C648.957 345.784 650.091 346.252 651.513 346.252C652.917 346.252 654.069 345.784 654.933 344.848C655.761 343.948 656.193 342.778 656.193 341.356C656.193 339.916 655.761 338.746 654.915 337.828C654.051 336.892 652.917 336.442 651.513 336.442ZM651.513 338.116C652.359 338.116 653.025 338.44 653.493 339.124C653.889 339.7 654.105 340.456 654.105 341.356C654.105 342.238 653.889 342.976 653.493 343.57C653.025 344.236 652.359 344.578 651.513 344.578C650.649 344.578 650.001 344.236 649.533 343.57C649.137 342.994 648.939 342.256 648.939 341.356C648.939 340.456 649.137 339.7 649.533 339.124C650.001 338.44 650.649 338.116 651.513 338.116ZM662.792 336.442C662.234 336.442 661.73 336.55 661.262 336.784C660.812 337 660.398 337.342 660.038 337.774V336.694H657.986V346H660.038V340.402C660.11 339.664 660.362 339.088 660.794 338.692C661.172 338.332 661.622 338.152 662.126 338.152C663.53 338.152 664.232 338.908 664.232 340.438V346H666.284V340.258C666.284 337.702 665.114 336.442 662.792 336.442Z" fill="#171933"/>
<path d="M480.221 359.718V360.641H483.497V369H484.55V360.641H487.826V359.718H480.221ZM488.855 359.536V369H489.895V365.165C489.895 364.541 490.064 364.008 490.415 363.592C490.753 363.176 491.182 362.968 491.702 362.968C492.261 362.968 492.69 363.137 493.002 363.475C493.288 363.813 493.444 364.294 493.444 364.918V369H494.484V364.762C494.484 363.904 494.276 363.241 493.86 362.786C493.444 362.318 492.833 362.097 492.053 362.097C491.598 362.097 491.195 362.201 490.831 362.409C490.441 362.63 490.129 362.955 489.895 363.384V359.536H488.855ZM496.936 359.744C496.715 359.744 496.533 359.809 496.377 359.965C496.221 360.095 496.156 360.277 496.156 360.511C496.156 360.732 496.221 360.914 496.377 361.07C496.533 361.213 496.715 361.291 496.936 361.291C497.157 361.291 497.339 361.213 497.495 361.07C497.651 360.914 497.729 360.732 497.729 360.511C497.729 360.277 497.651 360.095 497.495 359.965C497.339 359.809 497.157 359.744 496.936 359.744ZM496.416 362.279V369H497.456V362.279H496.416ZM501.784 362.097C501.03 362.097 500.406 362.266 499.938 362.604C499.431 362.942 499.184 363.384 499.184 363.956C499.184 364.528 499.431 364.957 499.951 365.269C500.263 365.477 500.822 365.672 501.615 365.867C502.343 366.049 502.824 366.192 503.045 366.296C503.461 366.504 503.682 366.79 503.682 367.167C503.682 367.921 503.071 368.311 501.875 368.311C501.303 368.311 500.874 368.207 500.588 367.999C500.302 367.765 500.107 367.388 500.029 366.855H499.015C499.171 368.402 500.133 369.182 501.901 369.182C503.799 369.182 504.748 368.48 504.748 367.102C504.748 366.517 504.475 366.062 503.942 365.724C503.591 365.503 503.019 365.295 502.213 365.1C501.537 364.918 501.069 364.775 500.822 364.658C500.432 364.463 500.25 364.216 500.25 363.93C500.25 363.631 500.393 363.397 500.679 363.228C500.939 363.046 501.303 362.968 501.771 362.968C502.304 362.968 502.72 363.072 503.006 363.28C503.266 363.462 503.435 363.774 503.526 364.19H504.54C504.358 362.786 503.448 362.097 501.784 362.097ZM513.508 362.097C512.494 362.097 511.753 362.526 511.272 363.384V362.279H510.297V371.574H511.337V367.778C511.857 368.714 512.598 369.182 513.56 369.182C514.522 369.182 515.263 368.818 515.809 368.116C516.303 367.466 516.563 366.647 516.563 365.659C516.563 364.645 516.303 363.826 515.796 363.176C515.237 362.448 514.47 362.097 513.508 362.097ZM513.378 362.955C514.093 362.955 514.639 363.215 515.016 363.761C515.328 364.229 515.497 364.866 515.497 365.659C515.497 366.465 515.328 367.102 514.99 367.57C514.613 368.064 514.067 368.324 513.339 368.324C512.715 368.324 512.234 368.077 511.87 367.609C511.48 367.128 511.298 366.504 511.298 365.724V365.594C511.298 364.84 511.467 364.216 511.805 363.748C512.169 363.215 512.702 362.955 513.378 362.955ZM520.865 362.097C520.397 362.097 519.994 362.24 519.643 362.526C519.357 362.747 519.123 363.059 518.941 363.449V362.279H517.914V369H518.941V365.438C518.941 364.814 519.11 364.281 519.474 363.839C519.825 363.371 520.267 363.15 520.787 363.15C521.112 363.15 521.45 363.189 521.788 363.293V362.253C521.541 362.149 521.229 362.097 520.865 362.097ZM525.665 362.097C524.651 362.097 523.858 362.435 523.26 363.137C522.688 363.8 522.402 364.632 522.402 365.646C522.402 366.647 522.688 367.479 523.26 368.129C523.858 368.831 524.651 369.182 525.665 369.182C526.666 369.182 527.472 368.831 528.083 368.129C528.642 367.479 528.928 366.647 528.928 365.646C528.928 364.632 528.642 363.8 528.07 363.137C527.472 362.435 526.666 362.097 525.665 362.097ZM525.665 362.968C526.367 362.968 526.926 363.241 527.342 363.787C527.693 364.281 527.875 364.892 527.875 365.646C527.875 366.374 527.693 366.998 527.342 367.492C526.926 368.038 526.367 368.311 525.665 368.311C524.95 368.311 524.391 368.038 524.001 367.492C523.637 366.998 523.468 366.387 523.468 365.646C523.468 364.892 523.637 364.281 524.001 363.787C524.391 363.241 524.95 362.968 525.665 362.968ZM535.246 359.536V363.514C534.726 362.565 533.985 362.097 533.023 362.097C532.061 362.097 531.32 362.448 530.774 363.176C530.267 363.826 530.02 364.632 530.02 365.62C530.02 366.634 530.267 367.466 530.774 368.116C531.32 368.818 532.087 369.182 533.075 369.182C534.089 369.182 534.843 368.753 535.311 367.895V369H536.286V359.536H535.246ZM533.244 362.955C533.842 362.955 534.336 363.189 534.713 363.683C535.077 364.164 535.272 364.801 535.272 365.581V365.711C535.272 366.465 535.103 367.076 534.778 367.544C534.401 368.064 533.881 368.324 533.205 368.324C532.477 368.324 531.931 368.051 531.567 367.531C531.242 367.063 531.086 366.426 531.086 365.62C531.086 364.814 531.242 364.19 531.58 363.735C531.944 363.215 532.503 362.955 533.244 362.955ZM537.897 362.279V366.439C537.897 368.259 538.703 369.182 540.341 369.182C541.251 369.182 541.979 368.766 542.525 367.96V369H543.565V362.279H542.525V366.374C542.447 366.946 542.226 367.414 541.862 367.778C541.511 368.116 541.108 368.298 540.666 368.298C540.055 368.298 539.613 368.129 539.34 367.817C539.067 367.505 538.937 367.024 538.937 366.387V362.279H537.897ZM548.07 362.097C547.069 362.097 546.276 362.448 545.704 363.163C545.171 363.813 544.911 364.645 544.911 365.672C544.911 366.699 545.171 367.531 545.704 368.168C546.263 368.844 547.043 369.182 548.057 369.182C548.889 369.182 549.552 368.961 550.059 368.532C550.579 368.09 550.904 367.427 551.06 366.569H550.02C549.864 367.726 549.201 368.311 548.057 368.311C547.381 368.311 546.861 368.064 546.51 367.596C546.146 367.128 545.977 366.478 545.977 365.659C545.977 364.84 546.159 364.19 546.523 363.709C546.9 363.215 547.42 362.968 548.07 362.968C548.603 362.968 549.032 363.085 549.37 363.345C549.695 363.605 549.903 363.995 549.994 364.515H551.021C550.904 363.696 550.592 363.085 550.072 362.682C549.565 362.292 548.902 362.097 548.07 362.097ZM554.075 360.108L553.048 360.537V362.279H551.696V363.15H553.048V367.427C553.048 367.934 553.152 368.311 553.373 368.571C553.607 368.857 554.01 369 554.556 369H555.57V368.129H554.712C554.478 368.129 554.309 368.064 554.218 367.96C554.114 367.856 554.075 367.674 554.075 367.427V363.15H555.739V362.279H554.075V360.108ZM562.089 359.744C561.868 359.744 561.686 359.809 561.53 359.965C561.374 360.095 561.309 360.277 561.309 360.511C561.309 360.732 561.374 360.914 561.53 361.07C561.686 361.213 561.868 361.291 562.089 361.291C562.31 361.291 562.492 361.213 562.648 361.07C562.804 360.914 562.882 360.732 562.882 360.511C562.882 360.277 562.804 360.095 562.648 359.965C562.492 359.809 562.31 359.744 562.089 359.744ZM561.569 362.279V369H562.609V362.279H561.569ZM566.936 362.097C566.182 362.097 565.558 362.266 565.09 362.604C564.583 362.942 564.336 363.384 564.336 363.956C564.336 364.528 564.583 364.957 565.103 365.269C565.415 365.477 565.974 365.672 566.767 365.867C567.495 366.049 567.976 366.192 568.197 366.296C568.613 366.504 568.834 366.79 568.834 367.167C568.834 367.921 568.223 368.311 567.027 368.311C566.455 368.311 566.026 368.207 565.74 367.999C565.454 367.765 565.259 367.388 565.181 366.855H564.167C564.323 368.402 565.285 369.182 567.053 369.182C568.951 369.182 569.9 368.48 569.9 367.102C569.9 366.517 569.627 366.062 569.094 365.724C568.743 365.503 568.171 365.295 567.365 365.1C566.689 364.918 566.221 364.775 565.974 364.658C565.584 364.463 565.402 364.216 565.402 363.93C565.402 363.631 565.545 363.397 565.831 363.228C566.091 363.046 566.455 362.968 566.923 362.968C567.456 362.968 567.872 363.072 568.158 363.28C568.418 363.462 568.587 363.774 568.678 364.19H569.692C569.51 362.786 568.6 362.097 566.936 362.097ZM578.375 362.097C577.569 362.097 576.932 362.253 576.438 362.565C575.892 362.903 575.541 363.436 575.398 364.138L576.425 364.216C576.529 363.787 576.75 363.462 577.101 363.254C577.413 363.046 577.816 362.955 578.31 362.955C579.48 362.955 580.065 363.514 580.065 364.645V364.996L578.453 365.022C577.439 365.035 576.659 365.23 576.113 365.594C575.489 365.984 575.19 366.556 575.19 367.323C575.19 367.869 575.398 368.324 575.814 368.675C576.217 369.013 576.75 369.182 577.426 369.182C578.05 369.182 578.609 369.039 579.103 368.766C579.519 368.532 579.87 368.233 580.13 367.869V369H581.105V364.684C581.105 363.904 580.897 363.293 580.507 362.851C580.039 362.344 579.337 362.097 578.375 362.097ZM580.065 365.776V366.348C580.065 366.868 579.818 367.336 579.337 367.739C578.843 368.155 578.284 368.363 577.647 368.363C577.231 368.363 576.893 368.259 576.633 368.064C576.373 367.856 576.256 367.609 576.256 367.297C576.256 366.322 577.01 365.828 578.518 365.802L580.065 365.776ZM581.97 362.279L584.258 369H585.233L586.819 363.592L588.379 369H589.367L591.655 362.279H590.511L588.86 367.726L587.3 362.279H586.325L584.765 367.726L583.114 362.279H581.97ZM595.294 362.097C594.319 362.097 593.552 362.448 592.98 363.15C592.408 363.813 592.135 364.645 592.135 365.633C592.135 366.725 592.421 367.583 593.019 368.233C593.591 368.857 594.371 369.182 595.333 369.182C596.204 369.182 596.919 368.922 597.478 368.428C597.933 368.012 598.232 367.492 598.388 366.842H597.348C597.179 367.31 596.958 367.661 596.672 367.895C596.334 368.168 595.879 368.311 595.333 368.311C594.696 368.311 594.189 368.103 593.825 367.687C593.461 367.271 593.266 366.686 593.214 365.932H598.518C598.492 364.762 598.232 363.839 597.738 363.189C597.192 362.461 596.373 362.097 595.294 362.097ZM595.32 362.968C596.594 362.968 597.309 363.683 597.439 365.126H593.24C593.305 364.463 593.513 363.943 593.877 363.553C594.241 363.163 594.722 362.968 595.32 362.968ZM602.115 362.097C601.361 362.097 600.737 362.266 600.269 362.604C599.762 362.942 599.515 363.384 599.515 363.956C599.515 364.528 599.762 364.957 600.282 365.269C600.594 365.477 601.153 365.672 601.946 365.867C602.674 366.049 603.155 366.192 603.376 366.296C603.792 366.504 604.013 366.79 604.013 367.167C604.013 367.921 603.402 368.311 602.206 368.311C601.634 368.311 601.205 368.207 600.919 367.999C600.633 367.765 600.438 367.388 600.36 366.855H599.346C599.502 368.402 600.464 369.182 602.232 369.182C604.13 369.182 605.079 368.48 605.079 367.102C605.079 366.517 604.806 366.062 604.273 365.724C603.922 365.503 603.35 365.295 602.544 365.1C601.868 364.918 601.4 364.775 601.153 364.658C600.763 364.463 600.581 364.216 600.581 363.93C600.581 363.631 600.724 363.397 601.01 363.228C601.27 363.046 601.634 362.968 602.102 362.968C602.635 362.968 603.051 363.072 603.337 363.28C603.597 363.462 603.766 363.774 603.857 364.19H604.871C604.689 362.786 603.779 362.097 602.115 362.097ZM609.302 362.097C608.288 362.097 607.495 362.435 606.897 363.137C606.325 363.8 606.039 364.632 606.039 365.646C606.039 366.647 606.325 367.479 606.897 368.129C607.495 368.831 608.288 369.182 609.302 369.182C610.303 369.182 611.109 368.831 611.72 368.129C612.279 367.479 612.565 366.647 612.565 365.646C612.565 364.632 612.279 363.8 611.707 363.137C611.109 362.435 610.303 362.097 609.302 362.097ZM609.302 362.968C610.004 362.968 610.563 363.241 610.979 363.787C611.33 364.281 611.512 364.892 611.512 365.646C611.512 366.374 611.33 366.998 610.979 367.492C610.563 368.038 610.004 368.311 609.302 368.311C608.587 368.311 608.028 368.038 607.638 367.492C607.274 366.998 607.105 366.387 607.105 365.646C607.105 364.892 607.274 364.281 607.638 363.787C608.028 363.241 608.587 362.968 609.302 362.968ZM616.854 362.097C616.1 362.097 615.463 362.448 614.956 363.176V362.279H613.916V369H614.956V364.905C614.956 364.372 615.112 363.917 615.424 363.553C615.736 363.163 616.126 362.981 616.607 362.981C617.634 362.981 618.154 363.566 618.154 364.762V369H619.194V364.788C619.194 364.242 619.337 363.813 619.649 363.475C619.935 363.137 620.312 362.981 620.754 362.981C621.326 362.981 621.742 363.124 622.002 363.436C622.249 363.722 622.379 364.164 622.379 364.762V369H623.419V364.593C623.419 363.826 623.198 363.215 622.782 362.76C622.34 362.318 621.781 362.097 621.079 362.097C620.611 362.097 620.221 362.201 619.896 362.409C619.532 362.604 619.22 362.929 618.96 363.371C618.583 362.513 617.881 362.097 616.854 362.097ZM627.806 362.097C626.831 362.097 626.064 362.448 625.492 363.15C624.92 363.813 624.647 364.645 624.647 365.633C624.647 366.725 624.933 367.583 625.531 368.233C626.103 368.857 626.883 369.182 627.845 369.182C628.716 369.182 629.431 368.922 629.99 368.428C630.445 368.012 630.744 367.492 630.9 366.842H629.86C629.691 367.31 629.47 367.661 629.184 367.895C628.846 368.168 628.391 368.311 627.845 368.311C627.208 368.311 626.701 368.103 626.337 367.687C625.973 367.271 625.778 366.686 625.726 365.932H631.03C631.004 364.762 630.744 363.839 630.25 363.189C629.704 362.461 628.885 362.097 627.806 362.097ZM627.832 362.968C629.106 362.968 629.821 363.683 629.951 365.126H625.752C625.817 364.463 626.025 363.943 626.389 363.553C626.753 363.163 627.234 362.968 627.832 362.968ZM633.158 367.453C632.924 367.453 632.742 367.531 632.599 367.687C632.443 367.843 632.365 368.025 632.365 368.259C632.365 368.48 632.443 368.662 632.599 368.818C632.742 368.974 632.924 369.052 633.158 369.052C633.366 369.052 633.561 368.974 633.717 368.818C633.873 368.662 633.951 368.48 633.951 368.259C633.951 368.025 633.873 367.843 633.717 367.687C633.561 367.531 633.366 367.453 633.158 367.453ZM640.135 359.718V369H643.359C644.815 369 645.933 368.571 646.713 367.726C647.454 366.92 647.831 365.789 647.831 364.359C647.831 362.903 647.48 361.772 646.791 360.992C646.037 360.134 644.932 359.718 643.463 359.718H640.135ZM641.201 360.641H643.294C644.516 360.641 645.4 360.953 645.972 361.59C646.505 362.188 646.778 363.111 646.778 364.359C646.778 365.568 646.479 366.491 645.907 367.115C645.296 367.752 644.386 368.077 643.177 368.077H641.201V360.641ZM652.187 362.097C651.173 362.097 650.38 362.435 649.782 363.137C649.21 363.8 648.924 364.632 648.924 365.646C648.924 366.647 649.21 367.479 649.782 368.129C650.38 368.831 651.173 369.182 652.187 369.182C653.188 369.182 653.994 368.831 654.605 368.129C655.164 367.479 655.45 366.647 655.45 365.646C655.45 364.632 655.164 363.8 654.592 363.137C653.994 362.435 653.188 362.097 652.187 362.097ZM652.187 362.968C652.889 362.968 653.448 363.241 653.864 363.787C654.215 364.281 654.397 364.892 654.397 365.646C654.397 366.374 654.215 366.998 653.864 367.492C653.448 368.038 652.889 368.311 652.187 368.311C651.472 368.311 650.913 368.038 650.523 367.492C650.159 366.998 649.99 366.387 649.99 365.646C649.99 364.892 650.159 364.281 650.523 363.787C650.913 363.241 651.472 362.968 652.187 362.968ZM664.276 362.097C663.834 362.097 663.431 362.201 663.067 362.409C662.703 362.604 662.404 362.89 662.17 363.267V362.279H661.13V369H662.17V364.944C662.209 364.333 662.404 363.852 662.768 363.488C663.106 363.15 663.509 362.981 663.977 362.981C665.147 362.981 665.745 363.631 665.745 364.944V369H666.785V364.866C666.785 363.02 665.94 362.097 664.276 362.097ZM671.395 362.097C670.381 362.097 669.588 362.435 668.99 363.137C668.418 363.8 668.132 364.632 668.132 365.646C668.132 366.647 668.418 367.479 668.99 368.129C669.588 368.831 670.381 369.182 671.395 369.182C672.396 369.182 673.202 368.831 673.813 368.129C674.372 367.479 674.658 366.647 674.658 365.646C674.658 364.632 674.372 363.8 673.8 363.137C673.202 362.435 672.396 362.097 671.395 362.097ZM671.395 362.968C672.097 362.968 672.656 363.241 673.072 363.787C673.423 364.281 673.605 364.892 673.605 365.646C673.605 366.374 673.423 366.998 673.072 367.492C672.656 368.038 672.097 368.311 671.395 368.311C670.68 368.311 670.121 368.038 669.731 367.492C669.367 366.998 669.198 366.387 669.198 365.646C669.198 364.892 669.367 364.281 669.731 363.787C670.121 363.241 670.68 362.968 671.395 362.968ZM677.803 360.108L676.776 360.537V362.279H675.424V363.15H676.776V367.427C676.776 367.934 676.88 368.311 677.101 368.571C677.335 368.857 677.738 369 678.284 369H679.298V368.129H678.44C678.206 368.129 678.037 368.064 677.946 367.96C677.842 367.856 677.803 367.674 677.803 367.427V363.15H679.467V362.279H677.803V360.108ZM687.65 359.718C687.078 359.718 686.636 359.874 686.337 360.199C686.051 360.511 685.908 360.94 685.908 361.512V362.279H684.218V363.15H685.908V369H686.948V363.15H688.846V362.279H686.948V361.538C686.948 361.213 687.013 360.979 687.143 360.836C687.273 360.68 687.494 360.615 687.78 360.615H688.937V359.718H687.65ZM692.812 362.097C691.798 362.097 691.005 362.435 690.407 363.137C689.835 363.8 689.549 364.632 689.549 365.646C689.549 366.647 689.835 367.479 690.407 368.129C691.005 368.831 691.798 369.182 692.812 369.182C693.813 369.182 694.619 368.831 695.23 368.129C695.789 367.479 696.075 366.647 696.075 365.646C696.075 364.632 695.789 363.8 695.217 363.137C694.619 362.435 693.813 362.097 692.812 362.097ZM692.812 362.968C693.514 362.968 694.073 363.241 694.489 363.787C694.84 364.281 695.022 364.892 695.022 365.646C695.022 366.374 694.84 366.998 694.489 367.492C694.073 368.038 693.514 368.311 692.812 368.311C692.097 368.311 691.538 368.038 691.148 367.492C690.784 366.998 690.615 366.387 690.615 365.646C690.615 364.892 690.784 364.281 691.148 363.787C691.538 363.241 692.097 362.968 692.812 362.968ZM700.377 362.097C699.909 362.097 699.506 362.24 699.155 362.526C698.869 362.747 698.635 363.059 698.453 363.449V362.279H697.426V369H698.453V365.438C698.453 364.814 698.622 364.281 698.986 363.839C699.337 363.371 699.779 363.15 700.299 363.15C700.624 363.15 700.962 363.189 701.3 363.293V362.253C701.053 362.149 700.741 362.097 700.377 362.097ZM704.943 362.097C704.007 362.097 703.266 362.422 702.72 363.085C702.174 363.709 701.914 364.502 701.914 365.49C701.914 366.465 702.174 367.258 702.72 367.882C703.266 368.519 704.007 368.844 704.943 368.844C705.957 368.844 706.711 368.389 707.205 367.492V368.675C707.205 370.157 706.529 370.911 705.177 370.911C704.566 370.911 704.111 370.794 703.812 370.573C703.513 370.365 703.318 370.027 703.24 369.572H702.2C702.317 370.3 702.616 370.846 703.097 371.21C703.565 371.574 704.267 371.756 705.177 371.756C707.218 371.756 708.245 370.677 708.245 368.532V362.279H707.205V363.436C706.711 362.539 705.957 362.097 704.943 362.097ZM705.099 362.955C705.762 362.955 706.282 363.189 706.672 363.683C707.036 364.125 707.218 364.736 707.218 365.49C707.218 366.218 707.036 366.816 706.672 367.271C706.282 367.739 705.762 367.973 705.086 367.973C704.358 367.973 703.825 367.713 703.461 367.219C703.136 366.777 702.98 366.192 702.98 365.49C702.98 364.736 703.162 364.125 703.526 363.683C703.903 363.189 704.423 362.955 705.099 362.955ZM712.624 362.097C711.649 362.097 710.882 362.448 710.31 363.15C709.738 363.813 709.465 364.645 709.465 365.633C709.465 366.725 709.751 367.583 710.349 368.233C710.921 368.857 711.701 369.182 712.663 369.182C713.534 369.182 714.249 368.922 714.808 368.428C715.263 368.012 715.562 367.492 715.718 366.842H714.678C714.509 367.31 714.288 367.661 714.002 367.895C713.664 368.168 713.209 368.311 712.663 368.311C712.026 368.311 711.519 368.103 711.155 367.687C710.791 367.271 710.596 366.686 710.544 365.932H715.848C715.822 364.762 715.562 363.839 715.068 363.189C714.522 362.461 713.703 362.097 712.624 362.097ZM712.65 362.968C713.924 362.968 714.639 363.683 714.769 365.126H710.57C710.635 364.463 710.843 363.943 711.207 363.553C711.571 363.163 712.052 362.968 712.65 362.968ZM718.86 360.108L717.833 360.537V362.279H716.481V363.15H717.833V367.427C717.833 367.934 717.937 368.311 718.158 368.571C718.392 368.857 718.795 369 719.341 369H720.355V368.129H719.497C719.263 368.129 719.094 368.064 719.003 367.96C718.899 367.856 718.86 367.674 718.86 367.427V363.15H720.524V362.279H718.86V360.108ZM727.81 360.108L726.783 360.537V362.279H725.431V363.15H726.783V367.427C726.783 367.934 726.887 368.311 727.108 368.571C727.342 368.857 727.745 369 728.291 369H729.305V368.129H728.447C728.213 368.129 728.044 368.064 727.953 367.96C727.849 367.856 727.81 367.674 727.81 367.427V363.15H729.474V362.279H727.81V360.108ZM733.64 362.097C732.626 362.097 731.833 362.435 731.235 363.137C730.663 363.8 730.377 364.632 730.377 365.646C730.377 366.647 730.663 367.479 731.235 368.129C731.833 368.831 732.626 369.182 733.64 369.182C734.641 369.182 735.447 368.831 736.058 368.129C736.617 367.479 736.903 366.647 736.903 365.646C736.903 364.632 736.617 363.8 736.045 363.137C735.447 362.435 734.641 362.097 733.64 362.097ZM733.64 362.968C734.342 362.968 734.901 363.241 735.317 363.787C735.668 364.281 735.85 364.892 735.85 365.646C735.85 366.374 735.668 366.998 735.317 367.492C734.901 368.038 734.342 368.311 733.64 368.311C732.925 368.311 732.366 368.038 731.976 367.492C731.612 366.998 731.443 366.387 731.443 365.646C731.443 364.892 731.612 364.281 731.976 363.787C732.366 363.241 732.925 362.968 733.64 362.968ZM483.185 380.097C482.431 380.097 481.807 380.266 481.339 380.604C480.832 380.942 480.585 381.384 480.585 381.956C480.585 382.528 480.832 382.957 481.352 383.269C481.664 383.477 482.223 383.672 483.016 383.867C483.744 384.049 484.225 384.192 484.446 384.296C484.862 384.504 485.083 384.79 485.083 385.167C485.083 385.921 484.472 386.311 483.276 386.311C482.704 386.311 482.275 386.207 481.989 385.999C481.703 385.765 481.508 385.388 481.43 384.855H480.416C480.572 386.402 481.534 387.182 483.302 387.182C485.2 387.182 486.149 386.48 486.149 385.102C486.149 384.517 485.876 384.062 485.343 383.724C484.992 383.503 484.42 383.295 483.614 383.1C482.938 382.918 482.47 382.775 482.223 382.658C481.833 382.463 481.651 382.216 481.651 381.93C481.651 381.631 481.794 381.397 482.08 381.228C482.34 381.046 482.704 380.968 483.172 380.968C483.705 380.968 484.121 381.072 484.407 381.28C484.667 381.462 484.836 381.774 484.927 382.19H485.941C485.759 380.786 484.849 380.097 483.185 380.097ZM487.369 380.279V384.439C487.369 386.259 488.175 387.182 489.813 387.182C490.723 387.182 491.451 386.766 491.997 385.96V387H493.037V380.279H491.997V384.374C491.919 384.946 491.698 385.414 491.334 385.778C490.983 386.116 490.58 386.298 490.138 386.298C489.527 386.298 489.085 386.129 488.812 385.817C488.539 385.505 488.409 385.024 488.409 384.387V380.279H487.369ZM494.644 377.536V387H495.619V385.895C496.074 386.753 496.815 387.182 497.855 387.182C498.83 387.182 499.597 386.818 500.156 386.116C500.65 385.466 500.91 384.634 500.91 383.62C500.91 382.632 500.65 381.826 500.156 381.176C499.61 380.448 498.856 380.097 497.907 380.097C496.945 380.097 496.204 380.565 495.684 381.514V377.536H494.644ZM497.686 380.955C498.414 380.955 498.96 381.215 499.337 381.735C499.675 382.19 499.844 382.814 499.844 383.62C499.844 384.426 499.675 385.063 499.363 385.531C498.999 386.051 498.453 386.324 497.725 386.324C497.049 386.324 496.516 386.064 496.152 385.544C495.814 385.076 495.645 384.465 495.645 383.711V383.581C495.645 382.801 495.827 382.164 496.217 381.683C496.581 381.189 497.075 380.955 497.686 380.955ZM504.64 380.097C503.886 380.097 503.262 380.266 502.794 380.604C502.287 380.942 502.04 381.384 502.04 381.956C502.04 382.528 502.287 382.957 502.807 383.269C503.119 383.477 503.678 383.672 504.471 383.867C505.199 384.049 505.68 384.192 505.901 384.296C506.317 384.504 506.538 384.79 506.538 385.167C506.538 385.921 505.927 386.311 504.731 386.311C504.159 386.311 503.73 386.207 503.444 385.999C503.158 385.765 502.963 385.388 502.885 384.855H501.871C502.027 386.402 502.989 387.182 504.757 387.182C506.655 387.182 507.604 386.48 507.604 385.102C507.604 384.517 507.331 384.062 506.798 383.724C506.447 383.503 505.875 383.295 505.069 383.1C504.393 382.918 503.925 382.775 503.678 382.658C503.288 382.463 503.106 382.216 503.106 381.93C503.106 381.631 503.249 381.397 503.535 381.228C503.795 381.046 504.159 380.968 504.627 380.968C505.16 380.968 505.576 381.072 505.862 381.28C506.122 381.462 506.291 381.774 506.382 382.19H507.396C507.214 380.786 506.304 380.097 504.64 380.097ZM511.724 380.097C510.723 380.097 509.93 380.448 509.358 381.163C508.825 381.813 508.565 382.645 508.565 383.672C508.565 384.699 508.825 385.531 509.358 386.168C509.917 386.844 510.697 387.182 511.711 387.182C512.543 387.182 513.206 386.961 513.713 386.532C514.233 386.09 514.558 385.427 514.714 384.569H513.674C513.518 385.726 512.855 386.311 511.711 386.311C511.035 386.311 510.515 386.064 510.164 385.596C509.8 385.128 509.631 384.478 509.631 383.659C509.631 382.84 509.813 382.19 510.177 381.709C510.554 381.215 511.074 380.968 511.724 380.968C512.257 380.968 512.686 381.085 513.024 381.345C513.349 381.605 513.557 381.995 513.648 382.515H514.675C514.558 381.696 514.246 381.085 513.726 380.682C513.219 380.292 512.556 380.097 511.724 380.097ZM518.885 380.097C518.417 380.097 518.014 380.24 517.663 380.526C517.377 380.747 517.143 381.059 516.961 381.449V380.279H515.934V387H516.961V383.438C516.961 382.814 517.13 382.281 517.494 381.839C517.845 381.371 518.287 381.15 518.807 381.15C519.132 381.15 519.47 381.189 519.808 381.293V380.253C519.561 380.149 519.249 380.097 518.885 380.097ZM521.54 377.744C521.319 377.744 521.137 377.809 520.981 377.965C520.825 378.095 520.76 378.277 520.76 378.511C520.76 378.732 520.825 378.914 520.981 379.07C521.137 379.213 521.319 379.291 521.54 379.291C521.761 379.291 521.943 379.213 522.099 379.07C522.255 378.914 522.333 378.732 522.333 378.511C522.333 378.277 522.255 378.095 522.099 377.965C521.943 377.809 521.761 377.744 521.54 377.744ZM521.02 380.279V387H522.06V380.279H521.02ZM524.008 377.536V387H524.983V385.895C525.438 386.753 526.179 387.182 527.219 387.182C528.194 387.182 528.961 386.818 529.52 386.116C530.014 385.466 530.274 384.634 530.274 383.62C530.274 382.632 530.014 381.826 529.52 381.176C528.974 380.448 528.22 380.097 527.271 380.097C526.309 380.097 525.568 380.565 525.048 381.514V377.536H524.008ZM527.05 380.955C527.778 380.955 528.324 381.215 528.701 381.735C529.039 382.19 529.208 382.814 529.208 383.62C529.208 384.426 529.039 385.063 528.727 385.531C528.363 386.051 527.817 386.324 527.089 386.324C526.413 386.324 525.88 386.064 525.516 385.544C525.178 385.076 525.009 384.465 525.009 383.711V383.581C525.009 382.801 525.191 382.164 525.581 381.683C525.945 381.189 526.439 380.955 527.05 380.955ZM534.394 380.097C533.419 380.097 532.652 380.448 532.08 381.15C531.508 381.813 531.235 382.645 531.235 383.633C531.235 384.725 531.521 385.583 532.119 386.233C532.691 386.857 533.471 387.182 534.433 387.182C535.304 387.182 536.019 386.922 536.578 386.428C537.033 386.012 537.332 385.492 537.488 384.842H536.448C536.279 385.31 536.058 385.661 535.772 385.895C535.434 386.168 534.979 386.311 534.433 386.311C533.796 386.311 533.289 386.103 532.925 385.687C532.561 385.271 532.366 384.686 532.314 383.932H537.618C537.592 382.762 537.332 381.839 536.838 381.189C536.292 380.461 535.473 380.097 534.394 380.097ZM534.42 380.968C535.694 380.968 536.409 381.683 536.539 383.126H532.34C532.405 382.463 532.613 381.943 532.977 381.553C533.341 381.163 533.822 380.968 534.42 380.968ZM544.959 378.108L543.932 378.537V380.279H542.58V381.15H543.932V385.427C543.932 385.934 544.036 386.311 544.257 386.571C544.491 386.857 544.894 387 545.44 387H546.454V386.129H545.596C545.362 386.129 545.193 386.064 545.102 385.96C544.998 385.856 544.959 385.674 544.959 385.427V381.15H546.623V380.279H544.959V378.108ZM550.789 380.097C549.775 380.097 548.982 380.435 548.384 381.137C547.812 381.8 547.526 382.632 547.526 383.646C547.526 384.647 547.812 385.479 548.384 386.129C548.982 386.831 549.775 387.182 550.789 387.182C551.79 387.182 552.596 386.831 553.207 386.129C553.766 385.479 554.052 384.647 554.052 383.646C554.052 382.632 553.766 381.8 553.194 381.137C552.596 380.435 551.79 380.097 550.789 380.097ZM550.789 380.968C551.491 380.968 552.05 381.241 552.466 381.787C552.817 382.281 552.999 382.892 552.999 383.646C552.999 384.374 552.817 384.998 552.466 385.492C552.05 386.038 551.491 386.311 550.789 386.311C550.074 386.311 549.515 386.038 549.125 385.492C548.761 384.998 548.592 384.387 548.592 383.646C548.592 382.892 548.761 382.281 549.125 381.787C549.515 381.241 550.074 380.968 550.789 380.968ZM561.527 378.108L560.5 378.537V380.279H559.148V381.15H560.5V385.427C560.5 385.934 560.604 386.311 560.825 386.571C561.059 386.857 561.462 387 562.008 387H563.022V386.129H562.164C561.93 386.129 561.761 386.064 561.67 385.96C561.566 385.856 561.527 385.674 561.527 385.427V381.15H563.191V380.279H561.527V378.108ZM564.354 377.536V387H565.394V383.165C565.394 382.541 565.563 382.008 565.914 381.592C566.252 381.176 566.681 380.968 567.201 380.968C567.76 380.968 568.189 381.137 568.501 381.475C568.787 381.813 568.943 382.294 568.943 382.918V387H569.983V382.762C569.983 381.904 569.775 381.241 569.359 380.786C568.943 380.318 568.332 380.097 567.552 380.097C567.097 380.097 566.694 380.201 566.33 380.409C565.94 380.63 565.628 380.955 565.394 381.384V377.536H564.354ZM574.346 380.097C573.371 380.097 572.604 380.448 572.032 381.15C571.46 381.813 571.187 382.645 571.187 383.633C571.187 384.725 571.473 385.583 572.071 386.233C572.643 386.857 573.423 387.182 574.385 387.182C575.256 387.182 575.971 386.922 576.53 386.428C576.985 386.012 577.284 385.492 577.44 384.842H576.4C576.231 385.31 576.01 385.661 575.724 385.895C575.386 386.168 574.931 386.311 574.385 386.311C573.748 386.311 573.241 386.103 572.877 385.687C572.513 385.271 572.318 384.686 572.266 383.932H577.57C577.544 382.762 577.284 381.839 576.79 381.189C576.244 380.461 575.425 380.097 574.346 380.097ZM574.372 380.968C575.646 380.968 576.361 381.683 576.491 383.126H572.292C572.357 382.463 572.565 381.943 572.929 381.553C573.293 381.163 573.774 380.968 574.372 380.968ZM586.017 380.097C585.016 380.097 584.223 380.448 583.651 381.163C583.118 381.813 582.858 382.645 582.858 383.672C582.858 384.699 583.118 385.531 583.651 386.168C584.21 386.844 584.99 387.182 586.004 387.182C586.836 387.182 587.499 386.961 588.006 386.532C588.526 386.09 588.851 385.427 589.007 384.569H587.967C587.811 385.726 587.148 386.311 586.004 386.311C585.328 386.311 584.808 386.064 584.457 385.596C584.093 385.128 583.924 384.478 583.924 383.659C583.924 382.84 584.106 382.19 584.47 381.709C584.847 381.215 585.367 380.968 586.017 380.968C586.55 380.968 586.979 381.085 587.317 381.345C587.642 381.605 587.85 381.995 587.941 382.515H588.968C588.851 381.696 588.539 381.085 588.019 380.682C587.512 380.292 586.849 380.097 586.017 380.097ZM590.435 377.536V387H591.462V377.536H590.435ZM596.289 380.097C595.275 380.097 594.482 380.435 593.884 381.137C593.312 381.8 593.026 382.632 593.026 383.646C593.026 384.647 593.312 385.479 593.884 386.129C594.482 386.831 595.275 387.182 596.289 387.182C597.29 387.182 598.096 386.831 598.707 386.129C599.266 385.479 599.552 384.647 599.552 383.646C599.552 382.632 599.266 381.8 598.694 381.137C598.096 380.435 597.29 380.097 596.289 380.097ZM596.289 380.968C596.991 380.968 597.55 381.241 597.966 381.787C598.317 382.281 598.499 382.892 598.499 383.646C598.499 384.374 598.317 384.998 597.966 385.492C597.55 386.038 596.991 386.311 596.289 386.311C595.574 386.311 595.015 386.038 594.625 385.492C594.261 384.998 594.092 384.387 594.092 383.646C594.092 382.892 594.261 382.281 594.625 381.787C595.015 381.241 595.574 380.968 596.289 380.968ZM603.283 380.097C602.529 380.097 601.905 380.266 601.437 380.604C600.93 380.942 600.683 381.384 600.683 381.956C600.683 382.528 600.93 382.957 601.45 383.269C601.762 383.477 602.321 383.672 603.114 383.867C603.842 384.049 604.323 384.192 604.544 384.296C604.96 384.504 605.181 384.79 605.181 385.167C605.181 385.921 604.57 386.311 603.374 386.311C602.802 386.311 602.373 386.207 602.087 385.999C601.801 385.765 601.606 385.388 601.528 384.855H600.514C600.67 386.402 601.632 387.182 603.4 387.182C605.298 387.182 606.247 386.48 606.247 385.102C606.247 384.517 605.974 384.062 605.441 383.724C605.09 383.503 604.518 383.295 603.712 383.1C603.036 382.918 602.568 382.775 602.321 382.658C601.931 382.463 601.749 382.216 601.749 381.93C601.749 381.631 601.892 381.397 602.178 381.228C602.438 381.046 602.802 380.968 603.27 380.968C603.803 380.968 604.219 381.072 604.505 381.28C604.765 381.462 604.934 381.774 605.025 382.19H606.039C605.857 380.786 604.947 380.097 603.283 380.097ZM610.236 380.097C609.261 380.097 608.494 380.448 607.922 381.15C607.35 381.813 607.077 382.645 607.077 383.633C607.077 384.725 607.363 385.583 607.961 386.233C608.533 386.857 609.313 387.182 610.275 387.182C611.146 387.182 611.861 386.922 612.42 386.428C612.875 386.012 613.174 385.492 613.33 384.842H612.29C612.121 385.31 611.9 385.661 611.614 385.895C611.276 386.168 610.821 386.311 610.275 386.311C609.638 386.311 609.131 386.103 608.767 385.687C608.403 385.271 608.208 384.686 608.156 383.932H613.46C613.434 382.762 613.174 381.839 612.68 381.189C612.134 380.461 611.315 380.097 610.236 380.097ZM610.262 380.968C611.536 380.968 612.251 381.683 612.381 383.126H608.182C608.247 382.463 608.455 381.943 608.819 381.553C609.183 381.163 609.664 380.968 610.262 380.968ZM619.644 377.536V381.514C619.124 380.565 618.383 380.097 617.421 380.097C616.459 380.097 615.718 380.448 615.172 381.176C614.665 381.826 614.418 382.632 614.418 383.62C614.418 384.634 614.665 385.466 615.172 386.116C615.718 386.818 616.485 387.182 617.473 387.182C618.487 387.182 619.241 386.753 619.709 385.895V387H620.684V377.536H619.644ZM617.642 380.955C618.24 380.955 618.734 381.189 619.111 381.683C619.475 382.164 619.67 382.801 619.67 383.581V383.711C619.67 384.465 619.501 385.076 619.176 385.544C618.799 386.064 618.279 386.324 617.603 386.324C616.875 386.324 616.329 386.051 615.965 385.531C615.64 385.063 615.484 384.426 615.484 383.62C615.484 382.814 615.64 382.19 615.978 381.735C616.342 381.215 616.901 380.955 617.642 380.955ZM626.624 377.536V387H627.599V385.895C628.054 386.753 628.795 387.182 629.835 387.182C630.81 387.182 631.577 386.818 632.136 386.116C632.63 385.466 632.89 384.634 632.89 383.62C632.89 382.632 632.63 381.826 632.136 381.176C631.59 380.448 630.836 380.097 629.887 380.097C628.925 380.097 628.184 380.565 627.664 381.514V377.536H626.624ZM629.666 380.955C630.394 380.955 630.94 381.215 631.317 381.735C631.655 382.19 631.824 382.814 631.824 383.62C631.824 384.426 631.655 385.063 631.343 385.531C630.979 386.051 630.433 386.324 629.705 386.324C629.029 386.324 628.496 386.064 628.132 385.544C627.794 385.076 627.625 384.465 627.625 383.711V383.581C627.625 382.801 627.807 382.164 628.197 381.683C628.561 381.189 629.055 380.955 629.666 380.955ZM637.011 380.097C636.036 380.097 635.269 380.448 634.697 381.15C634.125 381.813 633.852 382.645 633.852 383.633C633.852 384.725 634.138 385.583 634.736 386.233C635.308 386.857 636.088 387.182 637.05 387.182C637.921 387.182 638.636 386.922 639.195 386.428C639.65 386.012 639.949 385.492 640.105 384.842H639.065C638.896 385.31 638.675 385.661 638.389 385.895C638.051 386.168 637.596 386.311 637.05 386.311C636.413 386.311 635.906 386.103 635.542 385.687C635.178 385.271 634.983 384.686 634.931 383.932H640.235C640.209 382.762 639.949 381.839 639.455 381.189C638.909 380.461 638.09 380.097 637.011 380.097ZM637.037 380.968C638.311 380.968 639.026 381.683 639.156 383.126H634.957C635.022 382.463 635.23 381.943 635.594 381.553C635.958 381.163 636.439 380.968 637.037 380.968ZM643.246 378.108L642.219 378.537V380.279H640.867V381.15H642.219V385.427C642.219 385.934 642.323 386.311 642.544 386.571C642.778 386.857 643.181 387 643.727 387H644.741V386.129H643.883C643.649 386.129 643.48 386.064 643.389 385.96C643.285 385.856 643.246 385.674 643.246 385.427V381.15H644.91V380.279H643.246V378.108ZM648.999 380.097C648.193 380.097 647.556 380.253 647.062 380.565C646.516 380.903 646.165 381.436 646.022 382.138L647.049 382.216C647.153 381.787 647.374 381.462 647.725 381.254C648.037 381.046 648.44 380.955 648.934 380.955C650.104 380.955 650.689 381.514 650.689 382.645V382.996L649.077 383.022C648.063 383.035 647.283 383.23 646.737 383.594C646.113 383.984 645.814 384.556 645.814 385.323C645.814 385.869 646.022 386.324 646.438 386.675C646.841 387.013 647.374 387.182 648.05 387.182C648.674 387.182 649.233 387.039 649.727 386.766C650.143 386.532 650.494 386.233 650.754 385.869V387H651.729V382.684C651.729 381.904 651.521 381.293 651.131 380.851C650.663 380.344 649.961 380.097 648.999 380.097ZM650.689 383.776V384.348C650.689 384.868 650.442 385.336 649.961 385.739C649.467 386.155 648.908 386.363 648.271 386.363C647.855 386.363 647.517 386.259 647.257 386.064C646.997 385.856 646.88 385.609 646.88 385.297C646.88 384.322 647.634 383.828 649.142 383.802L650.689 383.776ZM654.089 377.718L654.297 384.504H655.103L655.298 377.718H654.089ZM654.687 385.453C654.466 385.453 654.284 385.518 654.141 385.674C653.985 385.817 653.907 385.999 653.907 386.22C653.907 386.441 653.985 386.623 654.141 386.779C654.284 386.922 654.466 387 654.687 387C654.908 387 655.103 386.922 655.259 386.779C655.402 386.636 655.48 386.454 655.48 386.22C655.48 385.999 655.402 385.817 655.259 385.674C655.103 385.518 654.921 385.453 654.687 385.453Z" fill="black" fill-opacity="0.6"/>
<g filter="url(#filter5_d)">
<rect x="518" y="478" width="303" height="258" rx="10" fill="#2A3242"/>
</g>
<rect x="519" y="507" width="302" height="50" fill="#2F374A"/>
<path fill-rule="evenodd" clip-rule="evenodd" d="M553 532.5H550L560 523.5L570 532.5H567V540.5H561V534.5H559V540.5H553V532.5ZM565 530.69L560 526.19L555 530.69V538.5H557V532.5H563V538.5H565V530.69Z" fill="#738590"/>
<path d="M593.012 537V527.047H595.951C596.831 527.047 597.61 527.243 598.289 527.635C598.973 528.027 599.501 528.583 599.875 529.303C600.249 530.023 600.436 530.848 600.436 531.777V532.276C600.436 533.22 600.246 534.049 599.868 534.765C599.494 535.48 598.959 536.032 598.262 536.419C597.569 536.806 596.774 537 595.876 537H593.012ZM594.741 528.441V535.619H595.869C596.776 535.619 597.471 535.337 597.954 534.771C598.442 534.202 598.69 533.386 598.699 532.324V531.771C598.699 530.69 598.465 529.866 597.995 529.296C597.526 528.726 596.844 528.441 595.951 528.441H594.741ZM606.417 537C606.344 536.859 606.28 536.629 606.226 536.31C605.697 536.861 605.05 537.137 604.284 537.137C603.541 537.137 602.935 536.925 602.466 536.501C601.996 536.077 601.762 535.553 601.762 534.929C601.762 534.14 602.053 533.536 602.637 533.117C603.225 532.693 604.063 532.481 605.152 532.481H606.171V531.996C606.171 531.613 606.064 531.308 605.85 531.08C605.635 530.848 605.31 530.731 604.872 530.731C604.494 530.731 604.184 530.827 603.942 531.019C603.701 531.205 603.58 531.445 603.58 531.736H601.919C601.919 531.331 602.053 530.952 602.322 530.602C602.591 530.246 602.956 529.968 603.416 529.768C603.881 529.567 604.398 529.467 604.968 529.467C605.834 529.467 606.524 529.686 607.039 530.123C607.554 530.556 607.818 531.167 607.832 531.955V535.291C607.832 535.956 607.925 536.487 608.112 536.884V537H606.417ZM604.592 535.804C604.92 535.804 605.228 535.724 605.515 535.564C605.806 535.405 606.025 535.191 606.171 534.922V533.527H605.275C604.66 533.527 604.198 533.634 603.888 533.849C603.578 534.063 603.423 534.366 603.423 534.758C603.423 535.077 603.528 535.332 603.737 535.523C603.951 535.71 604.236 535.804 604.592 535.804ZM613.718 534.99C613.718 534.694 613.595 534.468 613.349 534.313C613.107 534.159 612.704 534.022 612.139 533.903C611.574 533.785 611.102 533.634 610.724 533.452C609.894 533.051 609.479 532.47 609.479 531.709C609.479 531.071 609.748 530.538 610.286 530.109C610.824 529.681 611.507 529.467 612.337 529.467C613.221 529.467 613.934 529.686 614.477 530.123C615.023 530.561 615.297 531.128 615.297 531.825H613.636C613.636 531.506 613.517 531.242 613.28 531.032C613.043 530.818 612.729 530.711 612.337 530.711C611.972 530.711 611.674 530.795 611.441 530.964C611.214 531.132 611.1 531.358 611.1 531.641C611.1 531.896 611.207 532.094 611.421 532.235C611.635 532.377 612.068 532.52 612.72 532.666C613.371 532.807 613.882 532.978 614.251 533.179C614.625 533.375 614.9 533.612 615.078 533.89C615.26 534.168 615.352 534.505 615.352 534.901C615.352 535.567 615.076 536.107 614.524 536.521C613.973 536.932 613.251 537.137 612.357 537.137C611.751 537.137 611.211 537.027 610.737 536.809C610.263 536.59 609.894 536.289 609.63 535.906C609.366 535.523 609.233 535.111 609.233 534.669H610.847C610.869 535.061 611.018 535.364 611.291 535.578C611.564 535.788 611.927 535.893 612.378 535.893C612.815 535.893 613.148 535.811 613.376 535.646C613.604 535.478 613.718 535.259 613.718 534.99ZM618.441 530.41C618.984 529.781 619.67 529.467 620.499 529.467C622.076 529.467 622.876 530.367 622.898 532.167V537H621.237V532.229C621.237 531.718 621.126 531.358 620.902 531.148C620.684 530.934 620.36 530.827 619.932 530.827C619.266 530.827 618.77 531.123 618.441 531.716V537H616.78V526.5H618.441V530.41ZM631.074 533.377C631.074 534.525 630.817 535.439 630.302 536.118C629.791 536.797 629.087 537.137 628.189 537.137C627.324 537.137 626.649 536.825 626.166 536.2L626.084 537H624.58V526.5H626.241V530.314C626.72 529.749 627.365 529.467 628.176 529.467C629.078 529.467 629.787 529.802 630.302 530.472C630.817 531.142 631.074 532.078 631.074 533.281V533.377ZM629.413 533.233C629.413 532.431 629.272 531.83 628.989 531.429C628.707 531.028 628.297 530.827 627.759 530.827C627.039 530.827 626.533 531.142 626.241 531.771V534.819C626.537 535.462 627.048 535.783 627.772 535.783C628.292 535.783 628.693 535.59 628.976 535.202C629.258 534.815 629.404 534.229 629.413 533.445V533.233ZM632.161 533.233C632.161 532.509 632.305 531.857 632.592 531.278C632.879 530.695 633.282 530.248 633.802 529.938C634.321 529.624 634.918 529.467 635.593 529.467C636.591 529.467 637.4 529.788 638.02 530.431C638.644 531.073 638.981 531.925 639.031 532.987L639.038 533.377C639.038 534.106 638.897 534.758 638.614 535.332C638.336 535.906 637.935 536.351 637.411 536.665C636.892 536.979 636.29 537.137 635.606 537.137C634.563 537.137 633.727 536.79 633.098 536.098C632.473 535.4 632.161 534.473 632.161 533.315V533.233ZM633.822 533.377C633.822 534.138 633.979 534.735 634.294 535.168C634.608 535.596 635.046 535.811 635.606 535.811C636.167 535.811 636.602 535.592 636.912 535.154C637.227 534.717 637.384 534.076 637.384 533.233C637.384 532.486 637.222 531.894 636.898 531.456C636.579 531.019 636.144 530.8 635.593 530.8C635.05 530.8 634.62 531.016 634.301 531.449C633.982 531.878 633.822 532.52 633.822 533.377ZM644.862 537C644.789 536.859 644.726 536.629 644.671 536.31C644.142 536.861 643.495 537.137 642.729 537.137C641.987 537.137 641.381 536.925 640.911 536.501C640.442 536.077 640.207 535.553 640.207 534.929C640.207 534.14 640.499 533.536 641.082 533.117C641.67 532.693 642.508 532.481 643.598 532.481H644.616V531.996C644.616 531.613 644.509 531.308 644.295 531.08C644.081 530.848 643.755 530.731 643.317 530.731C642.939 530.731 642.629 530.827 642.388 531.019C642.146 531.205 642.025 531.445 642.025 531.736H640.364C640.364 531.331 640.499 530.952 640.768 530.602C641.036 530.246 641.401 529.968 641.861 529.768C642.326 529.567 642.843 529.467 643.413 529.467C644.279 529.467 644.969 529.686 645.484 530.123C645.999 530.556 646.264 531.167 646.277 531.955V535.291C646.277 535.956 646.371 536.487 646.558 536.884V537H644.862ZM643.037 535.804C643.365 535.804 643.673 535.724 643.96 535.564C644.252 535.405 644.47 535.191 644.616 534.922V533.527H643.721C643.105 533.527 642.643 533.634 642.333 533.849C642.023 534.063 641.868 534.366 641.868 534.758C641.868 535.077 641.973 535.332 642.183 535.523C642.397 535.71 642.682 535.804 643.037 535.804ZM651.89 531.121C651.671 531.085 651.445 531.066 651.213 531.066C650.452 531.066 649.939 531.358 649.675 531.941V537H648.014V529.604H649.6L649.641 530.431C650.042 529.788 650.598 529.467 651.309 529.467C651.546 529.467 651.742 529.499 651.896 529.562L651.89 531.121ZM652.491 533.247C652.491 532.108 652.756 531.194 653.284 530.506C653.813 529.813 654.521 529.467 655.41 529.467C656.194 529.467 656.827 529.74 657.311 530.287V526.5H658.972V537H657.468L657.386 536.234C656.889 536.836 656.226 537.137 655.396 537.137C654.531 537.137 653.829 536.788 653.291 536.091C652.758 535.394 652.491 534.446 652.491 533.247ZM654.152 533.391C654.152 534.143 654.296 534.73 654.583 535.154C654.875 535.574 655.287 535.783 655.82 535.783C656.499 535.783 656.996 535.48 657.311 534.874V531.716C657.005 531.123 656.513 530.827 655.834 530.827C655.296 530.827 654.882 531.041 654.59 531.47C654.298 531.894 654.152 532.534 654.152 533.391Z" fill="#738590"/>
<path d="M776.705 526L775.295 527.41L779.875 532L775.295 536.59L776.705 538L782.705 532L776.705 526Z" fill="#738590"/>
<path d="M600.477 583.842C600.354 584.895 599.964 585.708 599.308 586.282C598.656 586.852 597.788 587.137 596.703 587.137C595.527 587.137 594.584 586.715 593.873 585.872C593.167 585.029 592.813 583.901 592.813 582.488V581.531C592.813 580.606 592.978 579.793 593.306 579.091C593.638 578.389 594.108 577.851 594.714 577.478C595.32 577.099 596.022 576.91 596.819 576.91C597.877 576.91 598.724 577.206 599.362 577.799C600 578.387 600.372 579.202 600.477 580.246H599.157C599.043 579.453 598.795 578.879 598.412 578.523C598.034 578.168 597.503 577.99 596.819 577.99C595.981 577.99 595.322 578.3 594.844 578.92C594.37 579.54 594.133 580.422 594.133 581.565V582.529C594.133 583.609 594.358 584.468 594.81 585.106C595.261 585.744 595.892 586.063 596.703 586.063C597.432 586.063 597.991 585.899 598.378 585.571C598.77 585.239 599.03 584.662 599.157 583.842H600.477ZM606.643 587C606.57 586.854 606.51 586.594 606.465 586.221C605.877 586.831 605.175 587.137 604.359 587.137C603.63 587.137 603.031 586.932 602.562 586.521C602.097 586.107 601.864 585.583 601.864 584.949C601.864 584.179 602.156 583.582 602.739 583.158C603.327 582.73 604.152 582.516 605.214 582.516H606.444V581.935C606.444 581.493 606.312 581.142 606.048 580.882C605.784 580.618 605.394 580.485 604.879 580.485C604.428 580.485 604.049 580.599 603.744 580.827C603.439 581.055 603.286 581.331 603.286 581.654H602.015C602.015 581.285 602.145 580.93 602.404 580.588C602.669 580.242 603.024 579.968 603.471 579.768C603.922 579.567 604.416 579.467 604.954 579.467C605.806 579.467 606.474 579.681 606.957 580.109C607.44 580.533 607.691 581.119 607.709 581.866V585.271C607.709 585.95 607.796 586.49 607.969 586.891V587H606.643ZM604.544 586.036C604.94 586.036 605.316 585.934 605.672 585.729C606.027 585.523 606.285 585.257 606.444 584.929V583.411H605.453C603.904 583.411 603.129 583.865 603.129 584.771C603.129 585.168 603.261 585.478 603.525 585.701C603.79 585.924 604.129 586.036 604.544 586.036ZM611.065 587H609.801V576.5H611.065V587ZM616.165 587.137C615.162 587.137 614.347 586.809 613.718 586.152C613.089 585.492 612.774 584.61 612.774 583.507V583.274C612.774 582.541 612.913 581.887 613.191 581.312C613.474 580.734 613.866 580.283 614.367 579.959C614.873 579.631 615.42 579.467 616.008 579.467C616.969 579.467 617.717 579.784 618.25 580.417C618.783 581.05 619.05 581.957 619.05 583.138V583.664H614.039C614.057 584.393 614.269 584.983 614.675 585.435C615.085 585.881 615.604 586.104 616.233 586.104C616.68 586.104 617.058 586.013 617.368 585.831C617.678 585.649 617.949 585.407 618.182 585.106L618.954 585.708C618.334 586.66 617.405 587.137 616.165 587.137ZM616.008 580.506C615.497 580.506 615.069 580.693 614.723 581.066C614.376 581.436 614.162 581.955 614.08 582.625H617.785V582.529C617.749 581.887 617.576 581.39 617.266 581.039C616.956 580.684 616.536 580.506 616.008 580.506ZM621.716 579.604L621.757 580.533C622.322 579.822 623.06 579.467 623.972 579.467C625.535 579.467 626.323 580.349 626.337 582.112V587H625.072V582.105C625.068 581.572 624.945 581.178 624.703 580.923C624.466 580.668 624.095 580.54 623.589 580.54C623.179 580.54 622.819 580.649 622.509 580.868C622.199 581.087 621.957 581.374 621.784 581.729V587H620.52V579.604H621.716ZM627.937 583.24C627.937 582.105 628.205 581.194 628.743 580.506C629.281 579.813 629.985 579.467 630.855 579.467C631.721 579.467 632.407 579.763 632.913 580.355V576.5H634.178V587H633.016L632.954 586.207C632.448 586.827 631.744 587.137 630.842 587.137C629.985 587.137 629.285 586.786 628.743 586.084C628.205 585.382 627.937 584.466 627.937 583.336V583.24ZM629.201 583.384C629.201 584.222 629.374 584.879 629.721 585.353C630.067 585.826 630.546 586.063 631.156 586.063C631.958 586.063 632.544 585.703 632.913 584.983V581.586C632.535 580.889 631.954 580.54 631.17 580.54C630.55 580.54 630.067 580.779 629.721 581.258C629.374 581.736 629.201 582.445 629.201 583.384ZM640.713 587C640.64 586.854 640.581 586.594 640.535 586.221C639.947 586.831 639.245 587.137 638.43 587.137C637.701 587.137 637.101 586.932 636.632 586.521C636.167 586.107 635.935 585.583 635.935 584.949C635.935 584.179 636.226 583.582 636.81 583.158C637.397 582.73 638.222 582.516 639.284 582.516H640.515V581.935C640.515 581.493 640.382 581.142 640.118 580.882C639.854 580.618 639.464 580.485 638.949 580.485C638.498 580.485 638.12 580.599 637.814 580.827C637.509 581.055 637.356 581.331 637.356 581.654H636.085C636.085 581.285 636.215 580.93 636.475 580.588C636.739 580.242 637.094 579.968 637.541 579.768C637.992 579.567 638.487 579.467 639.024 579.467C639.877 579.467 640.544 579.681 641.027 580.109C641.51 580.533 641.761 581.119 641.779 581.866V585.271C641.779 585.95 641.866 586.49 642.039 586.891V587H640.713ZM638.614 586.036C639.011 586.036 639.387 585.934 639.742 585.729C640.098 585.523 640.355 585.257 640.515 584.929V583.411H639.523C637.974 583.411 637.199 583.865 637.199 584.771C637.199 585.168 637.331 585.478 637.596 585.701C637.86 585.924 638.2 586.036 638.614 586.036ZM647.337 580.738C647.146 580.706 646.938 580.69 646.715 580.69C645.885 580.69 645.323 581.044 645.026 581.75V587H643.762V579.604H644.992L645.013 580.458C645.427 579.797 646.015 579.467 646.776 579.467C647.022 579.467 647.209 579.499 647.337 579.562V580.738Z" fill="#738590"/>
<path d="M776.705 576L775.295 577.41L779.875 582L775.295 586.59L776.705 588L782.705 582L776.705 576Z" fill="#738590"/>
<path d="M594.851 627.047L598.104 635.168L601.358 627.047H603.061V637H601.748V633.124L601.871 628.94L598.604 637H597.599L594.338 628.961L594.468 633.124V637H593.155V627.047H594.851ZM609.746 637C609.673 636.854 609.614 636.594 609.568 636.221C608.98 636.831 608.279 637.137 607.463 637.137C606.734 637.137 606.134 636.932 605.665 636.521C605.2 636.107 604.968 635.583 604.968 634.949C604.968 634.179 605.259 633.582 605.843 633.158C606.431 632.73 607.256 632.516 608.317 632.516H609.548V631.935C609.548 631.493 609.416 631.142 609.151 630.882C608.887 630.618 608.497 630.485 607.982 630.485C607.531 630.485 607.153 630.599 606.848 630.827C606.542 631.055 606.39 631.331 606.39 631.654H605.118C605.118 631.285 605.248 630.93 605.508 630.588C605.772 630.242 606.128 629.968 606.574 629.768C607.025 629.567 607.52 629.467 608.058 629.467C608.91 629.467 609.577 629.681 610.061 630.109C610.544 630.533 610.794 631.119 610.812 631.866V635.271C610.812 635.95 610.899 636.49 611.072 636.891V637H609.746ZM607.647 636.036C608.044 636.036 608.42 635.934 608.775 635.729C609.131 635.523 609.388 635.257 609.548 634.929V633.411H608.557C607.007 633.411 606.232 633.865 606.232 634.771C606.232 635.168 606.365 635.478 606.629 635.701C606.893 635.924 607.233 636.036 607.647 636.036ZM619.043 633.384C619.043 634.509 618.785 635.416 618.271 636.104C617.756 636.793 617.058 637.137 616.179 637.137C615.281 637.137 614.575 636.852 614.06 636.282V639.844H612.795V629.604H613.95L614.012 630.424C614.527 629.786 615.242 629.467 616.158 629.467C617.047 629.467 617.749 629.802 618.264 630.472C618.783 631.142 619.043 632.074 619.043 633.268V633.384ZM617.778 633.24C617.778 632.406 617.601 631.748 617.245 631.265C616.89 630.782 616.402 630.54 615.782 630.54C615.017 630.54 614.442 630.88 614.06 631.559V635.093C614.438 635.767 615.017 636.104 615.796 636.104C616.402 636.104 616.883 635.865 617.238 635.387C617.598 634.904 617.778 634.188 617.778 633.24ZM624.963 635.038C624.963 634.696 624.833 634.432 624.573 634.245C624.318 634.054 623.869 633.89 623.227 633.753C622.589 633.616 622.08 633.452 621.702 633.261C621.328 633.069 621.05 632.841 620.868 632.577C620.69 632.313 620.602 631.998 620.602 631.634C620.602 631.028 620.857 630.515 621.367 630.096C621.882 629.676 622.538 629.467 623.336 629.467C624.174 629.467 624.854 629.683 625.373 630.116C625.897 630.549 626.159 631.103 626.159 631.777H624.888C624.888 631.431 624.74 631.132 624.443 630.882C624.152 630.631 623.783 630.506 623.336 630.506C622.876 630.506 622.516 630.606 622.256 630.807C621.996 631.007 621.866 631.269 621.866 631.593C621.866 631.898 621.987 632.128 622.229 632.283C622.47 632.438 622.905 632.586 623.534 632.728C624.168 632.869 624.68 633.037 625.072 633.233C625.464 633.429 625.754 633.666 625.94 633.944C626.132 634.218 626.228 634.553 626.228 634.949C626.228 635.61 625.963 636.141 625.435 636.542C624.906 636.938 624.22 637.137 623.377 637.137C622.785 637.137 622.26 637.032 621.805 636.822C621.349 636.613 620.991 636.321 620.731 635.947C620.476 635.569 620.349 635.161 620.349 634.724H621.613C621.636 635.147 621.805 635.485 622.119 635.735C622.438 635.981 622.857 636.104 623.377 636.104C623.855 636.104 624.238 636.009 624.525 635.817C624.817 635.621 624.963 635.362 624.963 635.038Z" fill="#738590"/>
<path d="M776.705 626L775.295 627.41L779.875 632L775.295 636.59L776.705 638L782.705 632L776.705 626Z" fill="#738590"/>
<path d="M598.651 684.402H594.481L593.545 687H592.191L595.992 677.047H597.141L600.948 687H599.602L598.651 684.402ZM594.878 683.322H598.262L596.566 678.667L594.878 683.322ZM605.057 686.104C605.508 686.104 605.902 685.968 606.239 685.694C606.576 685.421 606.763 685.079 606.8 684.669H607.996C607.973 685.093 607.827 685.496 607.559 685.879C607.29 686.262 606.93 686.567 606.479 686.795C606.032 687.023 605.558 687.137 605.057 687.137C604.049 687.137 603.247 686.802 602.65 686.132C602.058 685.457 601.762 684.537 601.762 683.37V683.158C601.762 682.438 601.894 681.798 602.158 681.237C602.423 680.677 602.801 680.242 603.293 679.932C603.79 679.622 604.375 679.467 605.05 679.467C605.879 679.467 606.567 679.715 607.114 680.212C607.666 680.709 607.96 681.354 607.996 682.146H606.8C606.763 681.668 606.581 681.276 606.253 680.971C605.929 680.661 605.528 680.506 605.05 680.506C604.407 680.506 603.908 680.738 603.553 681.203C603.202 681.663 603.026 682.331 603.026 683.206V683.445C603.026 684.298 603.202 684.954 603.553 685.414C603.904 685.874 604.405 686.104 605.057 686.104ZM612.385 686.104C612.836 686.104 613.23 685.968 613.567 685.694C613.905 685.421 614.091 685.079 614.128 684.669H615.324C615.301 685.093 615.156 685.496 614.887 685.879C614.618 686.262 614.258 686.567 613.807 686.795C613.36 687.023 612.886 687.137 612.385 687.137C611.378 687.137 610.576 686.802 609.979 686.132C609.386 685.457 609.09 684.537 609.09 683.37V683.158C609.09 682.438 609.222 681.798 609.486 681.237C609.751 680.677 610.129 680.242 610.621 679.932C611.118 679.622 611.703 679.467 612.378 679.467C613.207 679.467 613.896 679.715 614.442 680.212C614.994 680.709 615.288 681.354 615.324 682.146H614.128C614.091 681.668 613.909 681.276 613.581 680.971C613.257 680.661 612.856 680.506 612.378 680.506C611.735 680.506 611.236 680.738 610.881 681.203C610.53 681.663 610.354 682.331 610.354 683.206V683.445C610.354 684.298 610.53 684.954 610.881 685.414C611.232 685.874 611.733 686.104 612.385 686.104ZM616.411 683.233C616.411 682.509 616.552 681.857 616.835 681.278C617.122 680.7 617.519 680.253 618.024 679.938C618.535 679.624 619.116 679.467 619.768 679.467C620.775 679.467 621.588 679.815 622.208 680.513C622.832 681.21 623.145 682.137 623.145 683.295V683.384C623.145 684.104 623.006 684.751 622.728 685.325C622.454 685.895 622.06 686.339 621.545 686.658C621.035 686.977 620.447 687.137 619.781 687.137C618.779 687.137 617.965 686.788 617.341 686.091C616.721 685.394 616.411 684.471 616.411 683.322V683.233ZM617.683 683.384C617.683 684.204 617.872 684.863 618.25 685.359C618.633 685.856 619.143 686.104 619.781 686.104C620.424 686.104 620.934 685.854 621.312 685.353C621.691 684.847 621.88 684.14 621.88 683.233C621.88 682.422 621.686 681.766 621.299 681.265C620.916 680.759 620.406 680.506 619.768 680.506C619.143 680.506 618.64 680.754 618.257 681.251C617.874 681.748 617.683 682.459 617.683 683.384ZM629.297 686.269C628.805 686.847 628.082 687.137 627.13 687.137C626.341 687.137 625.74 686.909 625.325 686.453C624.915 685.993 624.708 685.314 624.703 684.416V679.604H625.968V684.382C625.968 685.503 626.424 686.063 627.335 686.063C628.301 686.063 628.944 685.703 629.263 684.983V679.604H630.527V687H629.324L629.297 686.269ZM633.651 679.604L633.692 680.533C634.257 679.822 634.996 679.467 635.907 679.467C637.47 679.467 638.259 680.349 638.272 682.112V687H637.008V682.105C637.003 681.572 636.88 681.178 636.639 680.923C636.402 680.668 636.03 680.54 635.524 680.54C635.114 680.54 634.754 680.649 634.444 680.868C634.134 681.087 633.893 681.374 633.72 681.729V687H632.455V679.604H633.651ZM641.896 677.812V679.604H643.276V680.581H641.896V685.168C641.896 685.464 641.957 685.688 642.08 685.838C642.203 685.984 642.413 686.057 642.709 686.057C642.855 686.057 643.055 686.029 643.311 685.975V687C642.978 687.091 642.654 687.137 642.34 687.137C641.775 687.137 641.349 686.966 641.062 686.624C640.774 686.282 640.631 685.797 640.631 685.168V680.581H639.284V679.604H640.631V677.812H641.896Z" fill="#738590"/>
<path d="M776.705 676L775.295 677.41L779.875 682L775.295 686.59L776.705 688L782.705 682L776.705 676Z" fill="#738590"/>
<path fill-rule="evenodd" clip-rule="evenodd" d="M568 573H567V571H565V573H555V571H553V573H552C550.9 573 550 573.9 550 575V591C550 592.1 550.9 593 552 593H568C569.1 593 570 592.1 570 591V575C570 573.9 569.1 573 568 573ZM568 591H552V580H568V591ZM552 578H568V575H552V578Z" fill="#738590"/>
<path fill-rule="evenodd" clip-rule="evenodd" d="M560 672C554.48 672 550 676.48 550 682C550 687.52 554.48 692 560 692C565.52 692 570 687.52 570 682C570 676.48 565.52 672 560 672ZM555.07 688.28C555.5 687.38 558.12 686.5 560 686.5C561.88 686.5 564.51 687.38 564.93 688.28C563.57 689.36 561.86 690 560 690C558.14 690 556.43 689.36 555.07 688.28ZM560 684.5C561.46 684.5 564.93 685.09 566.36 686.83C567.38 685.49 568 683.82 568 682C568 677.59 564.41 674 560 674C555.59 674 552 677.59 552 682C552 683.82 552.62 685.49 553.64 686.83C555.07 685.09 558.54 684.5 560 684.5ZM560 676C558.06 676 556.5 677.56 556.5 679.5C556.5 681.44 558.06 683 560 683C561.94 683 563.5 681.44 563.5 679.5C563.5 677.56 561.94 676 560 676ZM558.5 679.5C558.5 680.33 559.17 681 560 681C560.83 681 561.5 680.33 561.5 679.5C561.5 678.67 560.83 678 560 678C559.17 678 558.5 678.67 558.5 679.5Z" fill="#738590"/>
<path fill-rule="evenodd" clip-rule="evenodd" d="M560 622C556.13 622 553 625.13 553 629C553 634.25 560 642 560 642C560 642 567 634.25 567 629C567 625.13 563.87 622 560 622ZM555 629C555 626.24 557.24 624 560 624C562.76 624 565 626.24 565 629C565 631.88 562.12 636.19 560 638.88C557.92 636.21 555 631.85 555 629ZM557.5 629C557.5 627.619 558.619 626.5 560 626.5C560.893 626.5 561.718 626.976 562.165 627.75C562.612 628.524 562.612 629.476 562.165 630.25C561.718 631.024 560.893 631.5 560 631.5C558.619 631.5 557.5 630.381 557.5 629Z" fill="#738590"/>
<defs>
<filter id="filter0_d" x="269" y="45" width="320" height="108" filterUnits="userSpaceOnUse" color-interpolation-filters="sRGB">
<feFlood flood-opacity="0" result="BackgroundImageFix"/>
<feColorMatrix in="SourceAlpha" type="matrix" values="0 0 0 0 0 0 0 0 0 0 0 0 0 0 0 0 0 0 127 0"/>
<feOffset dy="4"/>
<feGaussianBlur stdDeviation="2"/>
<feColorMatrix type="matrix" values="0 0 0 0 0 0 0 0 0 0 0 0 0 0 0 0 0 0 0.25 0"/>
<feBlend mode="normal" in2="BackgroundImageFix" result="effect1_dropShadow"/>
<feBlend mode="normal" in="SourceGraphic" in2="effect1_dropShadow" result="shape"/>
</filter>
<filter id="filter1_d" x="10" y="181" width="208" height="208" filterUnits="userSpaceOnUse" color-interpolation-filters="sRGB">
<feFlood flood-opacity="0" result="BackgroundImageFix"/>
<feColorMatrix in="SourceAlpha" type="matrix" values="0 0 0 0 0 0 0 0 0 0 0 0 0 0 0 0 0 0 127 0"/>
<feOffset dy="4"/>
<feGaussianBlur stdDeviation="2"/>
<feColorMatrix type="matrix" values="0 0 0 0 0 0 0 0 0 0 0 0 0 0 0 0 0 0 0.25 0"/>
<feBlend mode="normal" in2="BackgroundImageFix" result="effect1_dropShadow"/>
<feBlend mode="normal" in="SourceGraphic" in2="effect1_dropShadow" result="shape"/>
</filter>
<filter id="filter2_d" x="194" y="420" width="108" height="66" filterUnits="userSpaceOnUse" color-interpolation-filters="sRGB">
<feFlood flood-opacity="0" result="BackgroundImageFix"/>
<feColorMatrix in="SourceAlpha" type="matrix" values="0 0 0 0 0 0 0 0 0 0 0 0 0 0 0 0 0 0 127 0"/>
<feOffset dy="4"/>
<feGaussianBlur stdDeviation="2"/>
<feColorMatrix type="matrix" values="0 0 0 0 0 0 0 0 0 0 0 0 0 0 0 0 0 0 0.25 0"/>
<feBlend mode="normal" in2="BackgroundImageFix" result="effect1_dropShadow"/>
<feBlend mode="normal" in="SourceGraphic" in2="effect1_dropShadow" result="shape"/>
</filter>
<filter id="filter3_d" x="656" y="170" width="78" height="78" filterUnits="userSpaceOnUse" color-interpolation-filters="sRGB">
<feFlood flood-opacity="0" result="BackgroundImageFix"/>
<feColorMatrix in="SourceAlpha" type="matrix" values="0 0 0 0 0 0 0 0 0 0 0 0 0 0 0 0 0 0 127 0"/>
<feOffset dy="4"/>
<feGaussianBlur stdDeviation="2"/>
<feColorMatrix type="matrix" values="0 0 0 0 0 0 0 0 0 0 0 0 0 0 0 0 0 0 0.25 0"/>
<feBlend mode="normal" in2="BackgroundImageFix" result="effect1_dropShadow"/>
<feBlend mode="normal" in="SourceGraphic" in2="effect1_dropShadow" result="shape"/>
</filter>
<filter id="filter4_d" x="391" y="309" width="415" height="108" filterUnits="userSpaceOnUse" color-interpolation-filters="sRGB">
<feFlood flood-opacity="0" result="BackgroundImageFix"/>
<feColorMatrix in="SourceAlpha" type="matrix" values="0 0 0 0 0 0 0 0 0 0 0 0 0 0 0 0 0 0 127 0"/>
<feOffset dy="4"/>
<feGaussianBlur stdDeviation="2"/>
<feColorMatrix type="matrix" values="0 0 0 0 0 0 0 0 0 0 0 0 0 0 0 0 0 0 0.05 0"/>
<feBlend mode="normal" in2="BackgroundImageFix" result="effect1_dropShadow"/>
<feBlend mode="normal" in="SourceGraphic" in2="effect1_dropShadow" result="shape"/>
</filter>
<filter id="filter5_d" x="514" y="478" width="311" height="266" filterUnits="userSpaceOnUse" color-interpolation-filters="sRGB">
<feFlood flood-opacity="0" result="BackgroundImageFix"/>
<feColorMatrix in="SourceAlpha" type="matrix" values="0 0 0 0 0 0 0 0 0 0 0 0 0 0 0 0 0 0 127 0"/>
<feOffset dy="4"/>
<feGaussianBlur stdDeviation="2"/>
<feColorMatrix type="matrix" values="0 0 0 0 0 0 0 0 0 0 0 0 0 0 0 0 0 0 0.25 0"/>
<feBlend mode="normal" in2="BackgroundImageFix" result="effect1_dropShadow"/>
<feBlend mode="normal" in="SourceGraphic" in2="effect1_dropShadow" result="shape"/>
</filter>
</defs>
</svg>
