<svg width="320" height="108" viewBox="0 0 320 108" fill="none" xmlns="http://www.w3.org/2000/svg">
<g filter="url(#filter0_d)">
<rect x="4" width="312" height="100" rx="50" fill="#684AFF"/>
</g>
<path d="M115.131 54.668C114.873 57.3984 113.865 59.5312 112.107 61.0664C110.35 62.5898 108.012 63.3516 105.094 63.3516C103.055 63.3516 101.256 62.8711 99.6973 61.9102C98.1504 60.9375 96.9551 59.5605 96.1113 57.7793C95.2676 55.998 94.8281 53.9297 94.793 51.5742V49.1836C94.793 46.7695 95.2207 44.6426 96.0762 42.8027C96.9316 40.9629 98.1562 39.5449 99.75 38.5488C101.355 37.5527 103.207 37.0547 105.305 37.0547C108.129 37.0547 110.402 37.8223 112.125 39.3574C113.848 40.8926 114.85 43.0605 115.131 45.8613H110.701C110.49 44.0215 109.951 42.6973 109.084 41.8887C108.229 41.0684 106.969 40.6582 105.305 40.6582C103.371 40.6582 101.883 41.3672 100.84 42.7852C99.8086 44.1914 99.2812 46.2598 99.2578 48.9902V51.2578C99.2578 54.0234 99.75 56.1328 100.734 57.5859C101.73 59.0391 103.184 59.7656 105.094 59.7656C106.84 59.7656 108.152 59.373 109.031 58.5879C109.91 57.8027 110.467 56.4961 110.701 54.668H115.131ZM128.525 53.1387H123.568V63H119.121V37.4062H128.121C131.074 37.4062 133.354 38.0684 134.959 39.3926C136.564 40.7168 137.367 42.6328 137.367 45.1406C137.367 46.8516 136.951 48.2871 136.119 49.4473C135.299 50.5957 134.15 51.4805 132.674 52.1016L138.422 62.7715V63H133.658L128.525 53.1387ZM123.568 49.5703H128.139C129.639 49.5703 130.811 49.1953 131.654 48.4453C132.498 47.6836 132.92 46.6465 132.92 45.334C132.92 43.9629 132.527 42.9023 131.742 42.1523C130.969 41.4023 129.809 41.0156 128.262 40.9922H123.568V49.5703ZM156.545 51.5742H146.033V59.4492H158.32V63H141.586V37.4062H158.197V40.9922H146.033V48.0586H156.545V51.5742ZM176.268 57.041H166.354L164.279 63H159.656L169.324 37.4062H173.314L183 63H178.359L176.268 57.041ZM167.602 53.4551H175.02L171.311 42.8379L167.602 53.4551ZM202.301 40.9922H194.32V63H189.908V40.9922H181.998V37.4062H202.301V40.9922ZM220.635 51.5742H210.123V59.4492H222.41V63H205.676V37.4062H222.287V40.9922H210.123V48.0586H220.635V51.5742Z" fill="#F5F8FB"/>
<defs>
<filter id="filter0_d" x="0" y="0" width="320" height="108" filterUnits="userSpaceOnUse" color-interpolation-filters="sRGB">
<feFlood flood-opacity="0" result="BackgroundImageFix"/>
<feColorMatrix in="SourceAlpha" type="matrix" values="0 0 0 0 0 0 0 0 0 0 0 0 0 0 0 0 0 0 127 0"/>
<feOffset dy="4"/>
<feGaussianBlur stdDeviation="2"/>
<feColorMatrix type="matrix" values="0 0 0 0 0 0 0 0 0 0 0 0 0 0 0 0 0 0 0.25 0"/>
<feBlend mode="normal" in2="BackgroundImageFix" result="effect1_dropShadow"/>
<feBlend mode="normal" in="SourceGraphic" in2="effect1_dropShadow" result="shape"/>
</filter>
</defs>
</svg>
