<svg width="400" height="103" viewBox="0 0 400 103" fill="none" xmlns="http://www.w3.org/2000/svg">
<rect y="23" width="400" height="80" rx="10" fill="#171933"/>
<path d="M35.8359 66.9141L30.4746 65.3672L31.4414 62.3965L36.75 64.4531L36.4863 58.4062H39.6328L39.3691 64.5586L44.5898 62.5371L45.5391 65.5605L40.0898 67.1074L43.6055 71.7832L41.0566 73.6465L37.8926 68.584L34.7637 73.4883L32.1973 71.6953L35.8359 66.9141ZM60.7617 66.9141L55.4004 65.3672L56.3672 62.3965L61.6758 64.4531L61.4121 58.4062H64.5586L64.2949 64.5586L69.5156 62.5371L70.4648 65.5605L65.0156 67.1074L68.5312 71.7832L65.9824 73.6465L62.8184 68.584L59.6895 73.4883L57.123 71.6953L60.7617 66.9141ZM85.6875 66.9141L80.3262 65.3672L81.293 62.3965L86.6016 64.4531L86.3379 58.4062H89.4844L89.2207 64.5586L94.4414 62.5371L95.3906 65.5605L89.9414 67.1074L93.457 71.7832L90.9082 73.6465L87.7441 68.584L84.6152 73.4883L82.0488 71.6953L85.6875 66.9141ZM110.613 66.9141L105.252 65.3672L106.219 62.3965L111.527 64.4531L111.264 58.4062H114.41L114.146 64.5586L119.367 62.5371L120.316 65.5605L114.867 67.1074L118.383 71.7832L115.834 73.6465L112.67 68.584L109.541 73.4883L106.975 71.6953L110.613 66.9141Z" fill="#F5F8FB"/>
<path d="M2.74121 7.30176V11H1.01172V1.04688H4.81934C5.93132 1.04688 6.81315 1.33626 7.46484 1.91504C8.12109 2.49382 8.44922 3.25944 8.44922 4.21191C8.44922 5.18717 8.12793 5.94596 7.48535 6.48828C6.84733 7.0306 5.95182 7.30176 4.79883 7.30176H2.74121ZM2.74121 5.91406H4.81934C5.43457 5.91406 5.90397 5.77051 6.22754 5.4834C6.55111 5.19173 6.71289 4.77246 6.71289 4.22559C6.71289 3.68783 6.54883 3.25944 6.2207 2.94043C5.89258 2.61686 5.44141 2.45052 4.86719 2.44141H2.74121V5.91406ZM16.6313 8.68262H12.7758L11.9692 11H10.1713L13.9311 1.04688H15.4829L19.2495 11H17.4448L16.6313 8.68262ZM13.2612 7.28809H16.1459L14.7036 3.15918L13.2612 7.28809ZM27.8964 8.43652C27.8964 7.99902 27.7414 7.66178 27.4315 7.4248C27.1262 7.18783 26.5725 6.94857 25.7704 6.70703C24.9683 6.46549 24.3303 6.19661 23.8563 5.90039C22.9494 5.33073 22.496 4.58789 22.496 3.67188C22.496 2.86979 22.8218 2.20898 23.4735 1.68945C24.1298 1.16992 24.9797 0.910156 26.0233 0.910156C26.716 0.910156 27.3335 1.03776 27.8759 1.29297C28.4182 1.54818 28.8443 1.91276 29.1542 2.38672C29.4641 2.85612 29.619 3.37793 29.619 3.95215H27.8964C27.8964 3.43262 27.7323 3.02702 27.4042 2.73535C27.0806 2.43913 26.6158 2.29102 26.0096 2.29102C25.4445 2.29102 25.0048 2.41178 24.6903 2.65332C24.3804 2.89486 24.2255 3.2321 24.2255 3.66504C24.2255 4.02962 24.3941 4.33496 24.7313 4.58105C25.0686 4.82259 25.6246 5.05957 26.3993 5.29199C27.174 5.51986 27.7961 5.7819 28.2655 6.07812C28.7349 6.36979 29.079 6.70703 29.2977 7.08984C29.5165 7.4681 29.6259 7.91243 29.6259 8.42285C29.6259 9.25228 29.3068 9.91309 28.6688 10.4053C28.0354 10.8929 27.174 11.1367 26.0848 11.1367C25.3648 11.1367 24.7017 11.0046 24.0956 10.7402C23.494 10.4714 23.0246 10.1022 22.6874 9.63281C22.3547 9.16341 22.1884 8.61654 22.1884 7.99219H23.9179C23.9179 8.55729 24.1047 8.99479 24.4784 9.30469C24.8521 9.61458 25.3876 9.76953 26.0848 9.76953C26.6864 9.76953 27.1376 9.64876 27.4384 9.40723C27.7437 9.16113 27.8964 8.83757 27.8964 8.43652ZM38.6556 8.43652C38.6556 7.99902 38.5006 7.66178 38.1907 7.4248C37.8854 7.18783 37.3317 6.94857 36.5296 6.70703C35.7275 6.46549 35.0895 6.19661 34.6155 5.90039C33.7086 5.33073 33.2552 4.58789 33.2552 3.67188C33.2552 2.86979 33.581 2.20898 34.2327 1.68945C34.889 1.16992 35.7389 0.910156 36.7825 0.910156C37.4752 0.910156 38.0928 1.03776 38.6351 1.29297C39.1774 1.54818 39.6035 1.91276 39.9134 2.38672C40.2233 2.85612 40.3782 3.37793 40.3782 3.95215H38.6556C38.6556 3.43262 38.4915 3.02702 38.1634 2.73535C37.8398 2.43913 37.375 2.29102 36.7689 2.29102C36.2038 2.29102 35.764 2.41178 35.4495 2.65332C35.1396 2.89486 34.9847 3.2321 34.9847 3.66504C34.9847 4.02962 35.1533 4.33496 35.4905 4.58105C35.8278 4.82259 36.3838 5.05957 37.1585 5.29199C37.9333 5.51986 38.5553 5.7819 39.0247 6.07812C39.4941 6.36979 39.8382 6.70703 40.057 7.08984C40.2757 7.4681 40.3851 7.91243 40.3851 8.42285C40.3851 9.25228 40.0661 9.91309 39.428 10.4053C38.7946 10.8929 37.9333 11.1367 36.8441 11.1367C36.124 11.1367 35.4609 11.0046 34.8548 10.7402C34.2532 10.4714 33.7838 10.1022 33.4466 9.63281C33.1139 9.16341 32.9476 8.61654 32.9476 7.99219H34.6771C34.6771 8.55729 34.8639 8.99479 35.2376 9.30469C35.6113 9.61458 36.1468 9.76953 36.8441 9.76953C37.4456 9.76953 37.8968 9.64876 38.1976 9.40723C38.5029 9.16113 38.6556 8.83757 38.6556 8.43652ZM52.0193 8.53906L53.5505 1.04688H55.2664L52.9695 11H51.3152L49.4216 3.7334L47.4871 11H45.8259L43.5291 1.04688H45.2449L46.7898 8.52539L48.6902 1.04688H50.1394L52.0193 8.53906ZM66.7844 6.2832C66.7844 7.25846 66.6158 8.11523 66.2785 8.85352C65.9413 9.58724 65.4582 10.1523 64.8293 10.5488C64.2049 10.9408 63.4849 11.1367 62.6691 11.1367C61.8625 11.1367 61.1424 10.9408 60.509 10.5488C59.8801 10.1523 59.3924 9.58952 59.0461 8.86035C58.7043 8.13118 58.5311 7.29036 58.5266 6.33789V5.77734C58.5266 4.80664 58.6975 3.94987 59.0393 3.20703C59.3856 2.46419 59.871 1.89681 60.4953 1.50488C61.1242 1.1084 61.8443 0.910156 62.6555 0.910156C63.4667 0.910156 64.1844 1.10612 64.8088 1.49805C65.4377 1.88542 65.923 2.44596 66.2648 3.17969C66.6066 3.90885 66.7798 4.75879 66.7844 5.72949V6.2832ZM65.0549 5.76367C65.0549 4.66081 64.8452 3.81543 64.426 3.22754C64.0113 2.63965 63.4211 2.3457 62.6555 2.3457C61.9081 2.3457 61.3225 2.63965 60.8986 3.22754C60.4794 3.81087 60.2652 4.63802 60.2561 5.70898V6.2832C60.2561 7.37695 60.468 8.22233 60.8918 8.81934C61.3202 9.41634 61.9126 9.71484 62.6691 9.71484C63.4348 9.71484 64.0227 9.42318 64.4328 8.83984C64.8475 8.25651 65.0549 7.4043 65.0549 6.2832V5.76367ZM74.4743 7.16504H72.5465V11H70.817V1.04688H74.317C75.4655 1.04688 76.3519 1.30436 76.9762 1.81934C77.6006 2.33431 77.9127 3.07943 77.9127 4.05469C77.9127 4.72005 77.751 5.27832 77.4274 5.72949C77.1084 6.17611 76.6618 6.52018 76.0875 6.76172L78.3229 10.9111V11H76.4704L74.4743 7.16504ZM72.5465 5.77734H74.3239C74.9072 5.77734 75.3629 5.63151 75.6911 5.33984C76.0192 5.04362 76.1832 4.6403 76.1832 4.12988C76.1832 3.59668 76.0306 3.18424 75.7252 2.89258C75.4245 2.60091 74.9733 2.45052 74.3717 2.44141H72.5465V5.77734ZM81.8634 11V1.04688H84.8028C85.6824 1.04688 86.4617 1.24284 87.1407 1.63477C87.8243 2.02669 88.3529 2.58268 88.7266 3.30273C89.1003 4.02279 89.2872 4.84766 89.2872 5.77734V6.27637C89.2872 7.21973 89.0981 8.04915 88.7198 8.76465C88.3461 9.48014 87.8106 10.0316 87.1134 10.4189C86.4206 10.8063 85.6254 11 84.7276 11H81.8634ZM83.5928 2.44141V9.61914H84.7208C85.6277 9.61914 86.3227 9.33659 86.8057 8.77148C87.2934 8.20182 87.5417 7.38607 87.5509 6.32422V5.77051C87.5509 4.69043 87.3162 3.86556 86.8468 3.2959C86.3774 2.72624 85.696 2.44141 84.8028 2.44141H83.5928Z" fill="#7F82BF"/>
</svg>
