<svg width="311" height="266" viewBox="0 0 311 266" fill="none" xmlns="http://www.w3.org/2000/svg">
<g filter="url(#filter0_d)">
<rect x="4" width="303" height="258" rx="10" fill="#2A3242"/>
</g>
<rect x="5" y="29" width="302" height="50" fill="#2F374A"/>
<path fill-rule="evenodd" clip-rule="evenodd" d="M39 54.5H36L46 45.5L56 54.5H53V62.5H47V56.5H45V62.5H39V54.5ZM51 52.69L46 48.19L41 52.69V60.5H43V54.5H49V60.5H51V52.69Z" fill="#738590"/>
<path d="M79.0117 59V49.0469H81.9512C82.8307 49.0469 83.61 49.2428 84.2891 49.6348C84.9727 50.0267 85.5013 50.5827 85.875 51.3027C86.2487 52.0228 86.4355 52.8477 86.4355 53.7773V54.2764C86.4355 55.2197 86.2464 56.0492 85.8682 56.7646C85.4945 57.4801 84.959 58.0316 84.2617 58.4189C83.569 58.8063 82.7738 59 81.876 59H79.0117ZM80.7412 50.4414V57.6191H81.8691C82.776 57.6191 83.471 57.3366 83.9541 56.7715C84.4417 56.2018 84.6901 55.3861 84.6992 54.3242V53.7705C84.6992 52.6904 84.4645 51.8656 83.9951 51.2959C83.5257 50.7262 82.8444 50.4414 81.9512 50.4414H80.7412ZM92.417 59C92.3441 58.8587 92.2803 58.6286 92.2256 58.3096C91.6969 58.861 91.0498 59.1367 90.2842 59.1367C89.5413 59.1367 88.9352 58.9248 88.4658 58.501C87.9964 58.0771 87.7617 57.5531 87.7617 56.9287C87.7617 56.1403 88.0534 55.5365 88.6367 55.1172C89.2246 54.6934 90.0632 54.4814 91.1523 54.4814H92.1709V53.9961C92.1709 53.6133 92.0638 53.3079 91.8496 53.0801C91.6354 52.8477 91.3096 52.7314 90.8721 52.7314C90.4938 52.7314 90.1839 52.8271 89.9424 53.0186C89.7008 53.2054 89.5801 53.4447 89.5801 53.7363H87.9189C87.9189 53.3307 88.0534 52.9525 88.3223 52.6016C88.5911 52.2461 88.9557 51.9681 89.416 51.7676C89.8809 51.5671 90.3981 51.4668 90.9678 51.4668C91.8337 51.4668 92.5241 51.6855 93.0391 52.123C93.554 52.556 93.8184 53.1667 93.832 53.9551V57.291C93.832 57.9564 93.9255 58.4873 94.1123 58.8838V59H92.417ZM90.5918 57.8037C90.9199 57.8037 91.2275 57.724 91.5146 57.5645C91.8063 57.4049 92.0251 57.1908 92.1709 56.9219V55.5273H91.2754C90.6602 55.5273 90.1976 55.6344 89.8877 55.8486C89.5778 56.0628 89.4229 56.3659 89.4229 56.7578C89.4229 57.0768 89.5277 57.332 89.7373 57.5234C89.9515 57.7103 90.2363 57.8037 90.5918 57.8037ZM99.7178 56.9902C99.7178 56.694 99.5947 56.4684 99.3486 56.3135C99.1071 56.1585 98.7038 56.0218 98.1387 55.9033C97.5736 55.7848 97.1019 55.6344 96.7236 55.4521C95.8942 55.0511 95.4795 54.4701 95.4795 53.709C95.4795 53.071 95.7484 52.5378 96.2861 52.1094C96.8239 51.681 97.5075 51.4668 98.3369 51.4668C99.221 51.4668 99.9342 51.6855 100.477 52.123C101.023 52.5605 101.297 53.1279 101.297 53.8252H99.6357C99.6357 53.5062 99.5173 53.2419 99.2803 53.0322C99.0433 52.818 98.7288 52.7109 98.3369 52.7109C97.9723 52.7109 97.6738 52.7952 97.4414 52.9639C97.2135 53.1325 97.0996 53.3581 97.0996 53.6406C97.0996 53.8958 97.2067 54.0941 97.4209 54.2354C97.6351 54.3766 98.068 54.5202 98.7197 54.666C99.3714 54.8073 99.8818 54.9782 100.251 55.1787C100.625 55.3747 100.9 55.6117 101.078 55.8896C101.26 56.1676 101.352 56.5049 101.352 56.9014C101.352 57.5667 101.076 58.1068 100.524 58.5215C99.973 58.9316 99.2507 59.1367 98.3574 59.1367C97.7513 59.1367 97.2113 59.0273 96.7373 58.8086C96.2633 58.5898 95.8942 58.2891 95.6299 57.9062C95.3656 57.5234 95.2334 57.111 95.2334 56.6689H96.8467C96.8695 57.0609 97.0176 57.3639 97.291 57.5781C97.5645 57.7878 97.9268 57.8926 98.3779 57.8926C98.8154 57.8926 99.1481 57.8105 99.376 57.6465C99.6038 57.4779 99.7178 57.2591 99.7178 56.9902ZM104.441 52.4102C104.984 51.7812 105.67 51.4668 106.499 51.4668C108.076 51.4668 108.876 52.3669 108.898 54.167V59H107.237V54.2285C107.237 53.7181 107.126 53.3581 106.902 53.1484C106.684 52.9342 106.36 52.8271 105.932 52.8271C105.266 52.8271 104.77 53.1234 104.441 53.7158V59H102.78V48.5H104.441V52.4102ZM117.074 55.377C117.074 56.5254 116.817 57.4391 116.302 58.1182C115.791 58.7972 115.087 59.1367 114.189 59.1367C113.324 59.1367 112.649 58.8245 112.166 58.2002L112.084 59H110.58V48.5H112.241V52.3145C112.72 51.7493 113.365 51.4668 114.176 51.4668C115.078 51.4668 115.787 51.8018 116.302 52.4717C116.817 53.1416 117.074 54.0781 117.074 55.2812V55.377ZM115.413 55.2334C115.413 54.4313 115.272 53.8298 114.989 53.4287C114.707 53.0277 114.297 52.8271 113.759 52.8271C113.039 52.8271 112.533 53.1416 112.241 53.7705V56.8193C112.537 57.4619 113.048 57.7832 113.772 57.7832C114.292 57.7832 114.693 57.5895 114.976 57.2021C115.258 56.8148 115.404 56.2292 115.413 55.4453V55.2334ZM118.161 55.2334C118.161 54.5088 118.305 53.8571 118.592 53.2783C118.879 52.695 119.282 52.2484 119.802 51.9385C120.321 51.624 120.918 51.4668 121.593 51.4668C122.591 51.4668 123.4 51.7881 124.02 52.4307C124.644 53.0732 124.981 53.9255 125.031 54.9873L125.038 55.377C125.038 56.1061 124.897 56.7578 124.614 57.332C124.336 57.9062 123.935 58.3506 123.411 58.665C122.892 58.9795 122.29 59.1367 121.606 59.1367C120.563 59.1367 119.727 58.7904 119.098 58.0977C118.473 57.4004 118.161 56.473 118.161 55.3154V55.2334ZM119.822 55.377C119.822 56.138 119.979 56.735 120.294 57.168C120.608 57.5964 121.046 57.8105 121.606 57.8105C122.167 57.8105 122.602 57.5918 122.912 57.1543C123.227 56.7168 123.384 56.0765 123.384 55.2334C123.384 54.486 123.222 53.8936 122.898 53.4561C122.579 53.0186 122.144 52.7998 121.593 52.7998C121.05 52.7998 120.62 53.0163 120.301 53.4492C119.982 53.8776 119.822 54.5202 119.822 55.377ZM130.862 59C130.789 58.8587 130.726 58.6286 130.671 58.3096C130.142 58.861 129.495 59.1367 128.729 59.1367C127.987 59.1367 127.381 58.9248 126.911 58.501C126.442 58.0771 126.207 57.5531 126.207 56.9287C126.207 56.1403 126.499 55.5365 127.082 55.1172C127.67 54.6934 128.508 54.4814 129.598 54.4814H130.616V53.9961C130.616 53.6133 130.509 53.3079 130.295 53.0801C130.081 52.8477 129.755 52.7314 129.317 52.7314C128.939 52.7314 128.629 52.8271 128.388 53.0186C128.146 53.2054 128.025 53.4447 128.025 53.7363H126.364C126.364 53.3307 126.499 52.9525 126.768 52.6016C127.036 52.2461 127.401 51.9681 127.861 51.7676C128.326 51.5671 128.843 51.4668 129.413 51.4668C130.279 51.4668 130.969 51.6855 131.484 52.123C131.999 52.556 132.264 53.1667 132.277 53.9551V57.291C132.277 57.9564 132.371 58.4873 132.558 58.8838V59H130.862ZM129.037 57.8037C129.365 57.8037 129.673 57.724 129.96 57.5645C130.252 57.4049 130.47 57.1908 130.616 56.9219V55.5273H129.721C129.105 55.5273 128.643 55.6344 128.333 55.8486C128.023 56.0628 127.868 56.3659 127.868 56.7578C127.868 57.0768 127.973 57.332 128.183 57.5234C128.397 57.7103 128.682 57.8037 129.037 57.8037ZM137.89 53.1211C137.671 53.0846 137.445 53.0664 137.213 53.0664C136.452 53.0664 135.939 53.3581 135.675 53.9414V59H134.014V51.6035H135.6L135.641 52.4307C136.042 51.7881 136.598 51.4668 137.309 51.4668C137.546 51.4668 137.742 51.4987 137.896 51.5625L137.89 53.1211ZM138.491 55.2471C138.491 54.1077 138.756 53.194 139.284 52.5059C139.813 51.8132 140.521 51.4668 141.41 51.4668C142.194 51.4668 142.827 51.7402 143.311 52.2871V48.5H144.972V59H143.468L143.386 58.2344C142.889 58.8359 142.226 59.1367 141.396 59.1367C140.531 59.1367 139.829 58.7881 139.291 58.0908C138.758 57.3936 138.491 56.4456 138.491 55.2471ZM140.152 55.3906C140.152 56.1426 140.296 56.7305 140.583 57.1543C140.875 57.5736 141.287 57.7832 141.82 57.7832C142.499 57.7832 142.996 57.4801 143.311 56.874V53.7158C143.005 53.1234 142.513 52.8271 141.834 52.8271C141.296 52.8271 140.882 53.0413 140.59 53.4697C140.298 53.8936 140.152 54.5339 140.152 55.3906Z" fill="#738590"/>
<path d="M262.705 48L261.295 49.41L265.875 54L261.295 58.59L262.705 60L268.705 54L262.705 48Z" fill="#738590"/>
<path d="M86.4766 105.842C86.3535 106.895 85.9639 107.708 85.3076 108.282C84.6559 108.852 83.7878 109.137 82.7031 109.137C81.5273 109.137 80.584 108.715 79.873 107.872C79.1667 107.029 78.8135 105.901 78.8135 104.488V103.531C78.8135 102.606 78.9775 101.793 79.3057 101.091C79.6383 100.389 80.1077 99.8512 80.7139 99.4775C81.32 99.0993 82.0218 98.9102 82.8193 98.9102C83.8766 98.9102 84.7243 99.2064 85.3623 99.7988C86.0003 100.387 86.3717 101.202 86.4766 102.246H85.1572C85.0433 101.453 84.7949 100.879 84.4121 100.523C84.0339 100.168 83.5029 99.9902 82.8193 99.9902C81.9808 99.9902 81.3223 100.3 80.8438 100.92C80.3698 101.54 80.1328 102.422 80.1328 103.565V104.529C80.1328 105.609 80.3584 106.468 80.8096 107.106C81.2607 107.744 81.8919 108.063 82.7031 108.063C83.4323 108.063 83.9906 107.899 84.3779 107.571C84.7699 107.239 85.0296 106.662 85.1572 105.842H86.4766ZM92.6426 109C92.5697 108.854 92.5104 108.594 92.4648 108.221C91.877 108.831 91.1751 109.137 90.3594 109.137C89.6302 109.137 89.0309 108.932 88.5615 108.521C88.0967 108.107 87.8643 107.583 87.8643 106.949C87.8643 106.179 88.1559 105.582 88.7393 105.158C89.3271 104.73 90.152 104.516 91.2139 104.516H92.4443V103.935C92.4443 103.493 92.3122 103.142 92.0479 102.882C91.7835 102.618 91.3939 102.485 90.8789 102.485C90.4277 102.485 90.0495 102.599 89.7441 102.827C89.4388 103.055 89.2861 103.331 89.2861 103.654H88.0146C88.0146 103.285 88.1445 102.93 88.4043 102.588C88.6686 102.242 89.0241 101.968 89.4707 101.768C89.9219 101.567 90.4163 101.467 90.9541 101.467C91.8063 101.467 92.474 101.681 92.957 102.109C93.4401 102.533 93.6908 103.119 93.709 103.866V107.271C93.709 107.95 93.7956 108.49 93.9688 108.891V109H92.6426ZM90.5439 108.036C90.9404 108.036 91.3164 107.934 91.6719 107.729C92.0273 107.523 92.2848 107.257 92.4443 106.929V105.411H91.4531C89.9036 105.411 89.1289 105.865 89.1289 106.771C89.1289 107.168 89.2611 107.478 89.5254 107.701C89.7897 107.924 90.1292 108.036 90.5439 108.036ZM97.0654 109H95.8008V98.5H97.0654V109ZM102.165 109.137C101.162 109.137 100.347 108.809 99.7178 108.152C99.0889 107.492 98.7744 106.61 98.7744 105.507V105.274C98.7744 104.541 98.9134 103.887 99.1914 103.312C99.474 102.734 99.8659 102.283 100.367 101.959C100.873 101.631 101.42 101.467 102.008 101.467C102.969 101.467 103.717 101.784 104.25 102.417C104.783 103.05 105.05 103.957 105.05 105.138V105.664H100.039C100.057 106.393 100.269 106.983 100.675 107.435C101.085 107.881 101.604 108.104 102.233 108.104C102.68 108.104 103.058 108.013 103.368 107.831C103.678 107.649 103.949 107.407 104.182 107.106L104.954 107.708C104.334 108.66 103.405 109.137 102.165 109.137ZM102.008 102.506C101.497 102.506 101.069 102.693 100.723 103.066C100.376 103.436 100.162 103.955 100.08 104.625H103.785V104.529C103.749 103.887 103.576 103.39 103.266 103.039C102.956 102.684 102.536 102.506 102.008 102.506ZM107.716 101.604L107.757 102.533C108.322 101.822 109.06 101.467 109.972 101.467C111.535 101.467 112.323 102.349 112.337 104.112V109H111.072V104.105C111.068 103.572 110.945 103.178 110.703 102.923C110.466 102.668 110.095 102.54 109.589 102.54C109.179 102.54 108.819 102.649 108.509 102.868C108.199 103.087 107.957 103.374 107.784 103.729V109H106.52V101.604H107.716ZM113.937 105.24C113.937 104.105 114.205 103.194 114.743 102.506C115.281 101.813 115.985 101.467 116.855 101.467C117.721 101.467 118.407 101.763 118.913 102.355V98.5H120.178V109H119.016L118.954 108.207C118.448 108.827 117.744 109.137 116.842 109.137C115.985 109.137 115.285 108.786 114.743 108.084C114.205 107.382 113.937 106.466 113.937 105.336V105.24ZM115.201 105.384C115.201 106.222 115.374 106.879 115.721 107.353C116.067 107.826 116.546 108.063 117.156 108.063C117.958 108.063 118.544 107.703 118.913 106.983V103.586C118.535 102.889 117.954 102.54 117.17 102.54C116.55 102.54 116.067 102.779 115.721 103.258C115.374 103.736 115.201 104.445 115.201 105.384ZM126.713 109C126.64 108.854 126.581 108.594 126.535 108.221C125.947 108.831 125.245 109.137 124.43 109.137C123.701 109.137 123.101 108.932 122.632 108.521C122.167 108.107 121.935 107.583 121.935 106.949C121.935 106.179 122.226 105.582 122.81 105.158C123.397 104.73 124.222 104.516 125.284 104.516H126.515V103.935C126.515 103.493 126.382 103.142 126.118 102.882C125.854 102.618 125.464 102.485 124.949 102.485C124.498 102.485 124.12 102.599 123.814 102.827C123.509 103.055 123.356 103.331 123.356 103.654H122.085C122.085 103.285 122.215 102.93 122.475 102.588C122.739 102.242 123.094 101.968 123.541 101.768C123.992 101.567 124.487 101.467 125.024 101.467C125.877 101.467 126.544 101.681 127.027 102.109C127.51 102.533 127.761 103.119 127.779 103.866V107.271C127.779 107.95 127.866 108.49 128.039 108.891V109H126.713ZM124.614 108.036C125.011 108.036 125.387 107.934 125.742 107.729C126.098 107.523 126.355 107.257 126.515 106.929V105.411H125.523C123.974 105.411 123.199 105.865 123.199 106.771C123.199 107.168 123.331 107.478 123.596 107.701C123.86 107.924 124.2 108.036 124.614 108.036ZM133.337 102.738C133.146 102.706 132.938 102.69 132.715 102.69C131.885 102.69 131.323 103.044 131.026 103.75V109H129.762V101.604H130.992L131.013 102.458C131.427 101.797 132.015 101.467 132.776 101.467C133.022 101.467 133.209 101.499 133.337 101.562V102.738Z" fill="#738590"/>
<path d="M262.705 98L261.295 99.41L265.875 104L261.295 108.59L262.705 110L268.705 104L262.705 98Z" fill="#738590"/>
<path d="M80.8506 149.047L84.1045 157.168L87.3584 149.047H89.0605V159H87.748V155.124L87.8711 150.94L84.6035 159H83.5986L80.3379 150.961L80.4678 155.124V159H79.1553V149.047H80.8506ZM95.7461 159C95.6732 158.854 95.6139 158.594 95.5684 158.221C94.9805 158.831 94.2786 159.137 93.4629 159.137C92.7337 159.137 92.1344 158.932 91.665 158.521C91.2002 158.107 90.9678 157.583 90.9678 156.949C90.9678 156.179 91.2594 155.582 91.8428 155.158C92.4307 154.73 93.2555 154.516 94.3174 154.516H95.5479V153.935C95.5479 153.493 95.4157 153.142 95.1514 152.882C94.887 152.618 94.4974 152.485 93.9824 152.485C93.5312 152.485 93.153 152.599 92.8477 152.827C92.5423 153.055 92.3896 153.331 92.3896 153.654H91.1182C91.1182 153.285 91.248 152.93 91.5078 152.588C91.7721 152.242 92.1276 151.968 92.5742 151.768C93.0254 151.567 93.5199 151.467 94.0576 151.467C94.9098 151.467 95.5775 151.681 96.0605 152.109C96.5436 152.533 96.7943 153.119 96.8125 153.866V157.271C96.8125 157.95 96.8991 158.49 97.0723 158.891V159H95.7461ZM93.6475 158.036C94.0439 158.036 94.4199 157.934 94.7754 157.729C95.1309 157.523 95.3883 157.257 95.5479 156.929V155.411H94.5566C93.0072 155.411 92.2324 155.865 92.2324 156.771C92.2324 157.168 92.3646 157.478 92.6289 157.701C92.8932 157.924 93.2327 158.036 93.6475 158.036ZM105.043 155.384C105.043 156.509 104.785 157.416 104.271 158.104C103.756 158.793 103.058 159.137 102.179 159.137C101.281 159.137 100.575 158.852 100.06 158.282V161.844H98.7949V151.604H99.9502L100.012 152.424C100.527 151.786 101.242 151.467 102.158 151.467C103.047 151.467 103.749 151.802 104.264 152.472C104.783 153.142 105.043 154.074 105.043 155.268V155.384ZM103.778 155.24C103.778 154.406 103.601 153.748 103.245 153.265C102.89 152.782 102.402 152.54 101.782 152.54C101.017 152.54 100.442 152.88 100.06 153.559V157.093C100.438 157.767 101.017 158.104 101.796 158.104C102.402 158.104 102.883 157.865 103.238 157.387C103.598 156.904 103.778 156.188 103.778 155.24ZM110.963 157.038C110.963 156.696 110.833 156.432 110.573 156.245C110.318 156.054 109.869 155.89 109.227 155.753C108.589 155.616 108.08 155.452 107.702 155.261C107.328 155.069 107.05 154.841 106.868 154.577C106.69 154.313 106.602 153.998 106.602 153.634C106.602 153.028 106.857 152.515 107.367 152.096C107.882 151.676 108.538 151.467 109.336 151.467C110.174 151.467 110.854 151.683 111.373 152.116C111.897 152.549 112.159 153.103 112.159 153.777H110.888C110.888 153.431 110.74 153.132 110.443 152.882C110.152 152.631 109.783 152.506 109.336 152.506C108.876 152.506 108.516 152.606 108.256 152.807C107.996 153.007 107.866 153.269 107.866 153.593C107.866 153.898 107.987 154.128 108.229 154.283C108.47 154.438 108.905 154.586 109.534 154.728C110.168 154.869 110.68 155.037 111.072 155.233C111.464 155.429 111.754 155.666 111.94 155.944C112.132 156.218 112.228 156.553 112.228 156.949C112.228 157.61 111.963 158.141 111.435 158.542C110.906 158.938 110.22 159.137 109.377 159.137C108.785 159.137 108.26 159.032 107.805 158.822C107.349 158.613 106.991 158.321 106.731 157.947C106.476 157.569 106.349 157.161 106.349 156.724H107.613C107.636 157.147 107.805 157.485 108.119 157.735C108.438 157.981 108.857 158.104 109.377 158.104C109.855 158.104 110.238 158.009 110.525 157.817C110.817 157.621 110.963 157.362 110.963 157.038Z" fill="#738590"/>
<path d="M262.705 148L261.295 149.41L265.875 154L261.295 158.59L262.705 160L268.705 154L262.705 148Z" fill="#738590"/>
<path d="M84.6514 206.402H80.4814L79.5449 209H78.1914L81.9922 199.047H83.1406L86.9482 209H85.6016L84.6514 206.402ZM80.8779 205.322H84.2617L82.5664 200.667L80.8779 205.322ZM91.0566 208.104C91.5078 208.104 91.902 207.968 92.2393 207.694C92.5765 207.421 92.7633 207.079 92.7998 206.669H93.9961C93.9733 207.093 93.8275 207.496 93.5586 207.879C93.2897 208.262 92.9297 208.567 92.4785 208.795C92.0319 209.023 91.5579 209.137 91.0566 209.137C90.0495 209.137 89.2474 208.802 88.6504 208.132C88.0579 207.457 87.7617 206.537 87.7617 205.37V205.158C87.7617 204.438 87.8939 203.798 88.1582 203.237C88.4225 202.677 88.8008 202.242 89.293 201.932C89.7897 201.622 90.3753 201.467 91.0498 201.467C91.8792 201.467 92.5674 201.715 93.1143 202.212C93.6657 202.709 93.9596 203.354 93.9961 204.146H92.7998C92.7633 203.668 92.5811 203.276 92.2529 202.971C91.9294 202.661 91.5283 202.506 91.0498 202.506C90.4072 202.506 89.9082 202.738 89.5527 203.203C89.2018 203.663 89.0264 204.331 89.0264 205.206V205.445C89.0264 206.298 89.2018 206.954 89.5527 207.414C89.9036 207.874 90.4049 208.104 91.0566 208.104ZM98.3848 208.104C98.8359 208.104 99.2301 207.968 99.5674 207.694C99.9046 207.421 100.091 207.079 100.128 206.669H101.324C101.301 207.093 101.156 207.496 100.887 207.879C100.618 208.262 100.258 208.567 99.8066 208.795C99.36 209.023 98.8861 209.137 98.3848 209.137C97.3776 209.137 96.5755 208.802 95.9785 208.132C95.3861 207.457 95.0898 206.537 95.0898 205.37V205.158C95.0898 204.438 95.222 203.798 95.4863 203.237C95.7507 202.677 96.1289 202.242 96.6211 201.932C97.1178 201.622 97.7035 201.467 98.3779 201.467C99.2074 201.467 99.8955 201.715 100.442 202.212C100.994 202.709 101.288 203.354 101.324 204.146H100.128C100.091 203.668 99.9092 203.276 99.5811 202.971C99.2575 202.661 98.8564 202.506 98.3779 202.506C97.7354 202.506 97.2363 202.738 96.8809 203.203C96.5299 203.663 96.3545 204.331 96.3545 205.206V205.445C96.3545 206.298 96.5299 206.954 96.8809 207.414C97.2318 207.874 97.7331 208.104 98.3848 208.104ZM102.411 205.233C102.411 204.509 102.552 203.857 102.835 203.278C103.122 202.7 103.519 202.253 104.024 201.938C104.535 201.624 105.116 201.467 105.768 201.467C106.775 201.467 107.588 201.815 108.208 202.513C108.832 203.21 109.145 204.137 109.145 205.295V205.384C109.145 206.104 109.006 206.751 108.728 207.325C108.454 207.895 108.06 208.339 107.545 208.658C107.035 208.977 106.447 209.137 105.781 209.137C104.779 209.137 103.965 208.788 103.341 208.091C102.721 207.394 102.411 206.471 102.411 205.322V205.233ZM103.683 205.384C103.683 206.204 103.872 206.863 104.25 207.359C104.633 207.856 105.143 208.104 105.781 208.104C106.424 208.104 106.934 207.854 107.312 207.353C107.691 206.847 107.88 206.14 107.88 205.233C107.88 204.422 107.686 203.766 107.299 203.265C106.916 202.759 106.406 202.506 105.768 202.506C105.143 202.506 104.64 202.754 104.257 203.251C103.874 203.748 103.683 204.459 103.683 205.384ZM115.297 208.269C114.805 208.847 114.082 209.137 113.13 209.137C112.341 209.137 111.74 208.909 111.325 208.453C110.915 207.993 110.708 207.314 110.703 206.416V201.604H111.968V206.382C111.968 207.503 112.424 208.063 113.335 208.063C114.301 208.063 114.944 207.703 115.263 206.983V201.604H116.527V209H115.324L115.297 208.269ZM119.651 201.604L119.692 202.533C120.257 201.822 120.996 201.467 121.907 201.467C123.47 201.467 124.259 202.349 124.272 204.112V209H123.008V204.105C123.003 203.572 122.88 203.178 122.639 202.923C122.402 202.668 122.03 202.54 121.524 202.54C121.114 202.54 120.754 202.649 120.444 202.868C120.134 203.087 119.893 203.374 119.72 203.729V209H118.455V201.604H119.651ZM127.896 199.812V201.604H129.276V202.581H127.896V207.168C127.896 207.464 127.957 207.688 128.08 207.838C128.203 207.984 128.413 208.057 128.709 208.057C128.855 208.057 129.055 208.029 129.311 207.975V209C128.978 209.091 128.654 209.137 128.34 209.137C127.775 209.137 127.349 208.966 127.062 208.624C126.774 208.282 126.631 207.797 126.631 207.168V202.581H125.284V201.604H126.631V199.812H127.896Z" fill="#738590"/>
<path d="M262.705 198L261.295 199.41L265.875 204L261.295 208.59L262.705 210L268.705 204L262.705 198Z" fill="#738590"/>
<path fill-rule="evenodd" clip-rule="evenodd" d="M54 95H53V93H51V95H41V93H39V95H38C36.9 95 36 95.9 36 97V113C36 114.1 36.9 115 38 115H54C55.1 115 56 114.1 56 113V97C56 95.9 55.1 95 54 95ZM54 113H38V102H54V113ZM38 100H54V97H38V100Z" fill="#738590"/>
<path fill-rule="evenodd" clip-rule="evenodd" d="M46 194C40.48 194 36 198.48 36 204C36 209.52 40.48 214 46 214C51.52 214 56 209.52 56 204C56 198.48 51.52 194 46 194ZM41.07 210.28C41.5 209.38 44.12 208.5 46 208.5C47.88 208.5 50.51 209.38 50.93 210.28C49.57 211.36 47.86 212 46 212C44.14 212 42.43 211.36 41.07 210.28ZM46 206.5C47.46 206.5 50.93 207.09 52.36 208.83C53.38 207.49 54 205.82 54 204C54 199.59 50.41 196 46 196C41.59 196 38 199.59 38 204C38 205.82 38.62 207.49 39.64 208.83C41.07 207.09 44.54 206.5 46 206.5ZM46 198C44.06 198 42.5 199.56 42.5 201.5C42.5 203.44 44.06 205 46 205C47.94 205 49.5 203.44 49.5 201.5C49.5 199.56 47.94 198 46 198ZM44.5 201.5C44.5 202.33 45.17 203 46 203C46.83 203 47.5 202.33 47.5 201.5C47.5 200.67 46.83 200 46 200C45.17 200 44.5 200.67 44.5 201.5Z" fill="#738590"/>
<path fill-rule="evenodd" clip-rule="evenodd" d="M46 144C42.13 144 39 147.13 39 151C39 156.25 46 164 46 164C46 164 53 156.25 53 151C53 147.13 49.87 144 46 144ZM41 151C41 148.24 43.24 146 46 146C48.76 146 51 148.24 51 151C51 153.88 48.12 158.19 46 160.88C43.92 158.21 41 153.85 41 151ZM43.5 151C43.5 149.619 44.6193 148.5 46 148.5C46.8932 148.5 47.7185 148.976 48.1651 149.75C48.6116 150.524 48.6116 151.476 48.1651 152.25C47.7185 153.024 46.8932 153.5 46 153.5C44.6193 153.5 43.5 152.381 43.5 151Z" fill="#738590"/>
<defs>
<filter id="filter0_d" x="0" y="0" width="311" height="266" filterUnits="userSpaceOnUse" color-interpolation-filters="sRGB">
<feFlood flood-opacity="0" result="BackgroundImageFix"/>
<feColorMatrix in="SourceAlpha" type="matrix" values="0 0 0 0 0 0 0 0 0 0 0 0 0 0 0 0 0 0 127 0"/>
<feOffset dy="4"/>
<feGaussianBlur stdDeviation="2"/>
<feColorMatrix type="matrix" values="0 0 0 0 0 0 0 0 0 0 0 0 0 0 0 0 0 0 0.25 0"/>
<feBlend mode="normal" in2="BackgroundImageFix" result="effect1_dropShadow"/>
<feBlend mode="normal" in="SourceGraphic" in2="effect1_dropShadow" result="shape"/>
</filter>
</defs>
</svg>
