<svg width="415" height="108" viewBox="0 0 415 108" fill="none" xmlns="http://www.w3.org/2000/svg">
<g filter="url(#filter0_d)">
<rect x="4" width="407" height="100" rx="12" fill="white"/>
</g>
<path d="M50.0416 43.2083H52.9583V46.125H50.0416V43.2083Z" fill="#F1923B"/>
<path d="M50.0416 49.0417H52.9583V57.7917H50.0416V49.0417Z" fill="#F1923B"/>
<path fill-rule="evenodd" clip-rule="evenodd" d="M36.9166 50.5C36.9166 42.45 43.4499 35.9167 51.5 35.9167C59.55 35.9167 66.0833 42.45 66.0833 50.5C66.0833 58.55 59.55 65.0833 51.5 65.0833C43.4499 65.0833 36.9166 58.55 36.9166 50.5ZM39.8333 50.5C39.8333 56.9312 45.0687 62.1667 51.5 62.1667C57.9313 62.1667 63.1666 56.9312 63.1666 50.5C63.1666 44.0687 57.9313 38.8333 51.5 38.8333C45.0687 38.8333 39.8333 44.0687 39.8333 50.5Z" fill="#F1923B"/>
<path d="M90.26 24.148V37H92.366V24.148H90.26ZM99.275 27.442C98.375 27.442 97.529 27.838 96.755 28.648V27.694H94.703V37H96.755V31.42C96.755 30.808 96.935 30.268 97.295 29.836C97.655 29.368 98.123 29.152 98.717 29.152C99.941 29.152 100.553 29.854 100.553 31.276V37H102.605V31.312C102.605 30.628 102.767 30.106 103.127 29.728C103.469 29.332 103.883 29.152 104.387 29.152C105.107 29.152 105.611 29.314 105.935 29.656C106.241 29.98 106.403 30.52 106.403 31.258V37H108.455V30.898C108.455 29.872 108.131 29.044 107.519 28.396C106.871 27.748 106.079 27.442 105.125 27.442C104.495 27.442 103.973 27.55 103.559 27.766C103.091 27.982 102.641 28.378 102.209 28.954C101.615 27.946 100.643 27.442 99.275 27.442ZM115.327 27.442C114.103 27.442 113.167 27.856 112.519 28.684V27.694H110.611V40.564H112.663V35.722C113.419 36.73 114.355 37.252 115.435 37.252C116.767 37.252 117.829 36.766 118.585 35.794C119.287 34.894 119.647 33.76 119.647 32.392C119.647 30.952 119.287 29.8 118.567 28.9C117.775 27.928 116.695 27.442 115.327 27.442ZM115.021 29.098C115.921 29.098 116.587 29.422 117.019 30.07C117.361 30.61 117.541 31.384 117.541 32.392C117.541 33.4 117.343 34.174 116.965 34.714C116.533 35.29 115.849 35.596 114.949 35.596C114.283 35.596 113.743 35.326 113.311 34.786C112.825 34.192 112.591 33.4 112.591 32.428V32.284C112.591 31.348 112.771 30.61 113.167 30.052C113.599 29.404 114.211 29.098 115.021 29.098ZM125.759 27.442C124.337 27.442 123.203 27.892 122.357 28.828C121.493 29.746 121.079 30.916 121.079 32.356C121.079 33.778 121.493 34.948 122.339 35.848C123.203 36.784 124.337 37.252 125.759 37.252C127.163 37.252 128.315 36.784 129.179 35.848C130.007 34.948 130.439 33.778 130.439 32.356C130.439 30.916 130.007 29.746 129.161 28.828C128.297 27.892 127.163 27.442 125.759 27.442ZM125.759 29.116C126.605 29.116 127.271 29.44 127.739 30.124C128.135 30.7 128.351 31.456 128.351 32.356C128.351 33.238 128.135 33.976 127.739 34.57C127.271 35.236 126.605 35.578 125.759 35.578C124.895 35.578 124.247 35.236 123.779 34.57C123.383 33.994 123.185 33.256 123.185 32.356C123.185 31.456 123.383 30.7 123.779 30.124C124.247 29.44 124.895 29.116 125.759 29.116ZM136.624 27.442C136.048 27.442 135.562 27.604 135.148 27.946C134.806 28.198 134.518 28.558 134.266 29.026V27.694H132.232V37H134.266V32.068C134.266 31.276 134.5 30.646 135.004 30.16C135.436 29.728 135.922 29.53 136.462 29.53C136.894 29.53 137.326 29.584 137.794 29.728V27.676C137.47 27.514 137.074 27.442 136.624 27.442ZM141.881 24.688L139.829 25.534V27.694H138.155V29.386H139.829V34.642C139.829 35.398 140.009 35.956 140.369 36.352C140.747 36.784 141.341 37 142.151 37H143.717V35.308H142.493C142.277 35.308 142.133 35.254 142.025 35.146C141.917 35.02 141.881 34.858 141.881 34.642V29.386H143.951V27.694H141.881V24.688ZM149.716 27.442C148.528 27.442 147.592 27.64 146.908 28.072C146.098 28.54 145.594 29.296 145.396 30.322L147.43 30.484C147.538 29.998 147.808 29.638 148.204 29.404C148.546 29.188 148.996 29.098 149.572 29.098C150.904 29.098 151.57 29.692 151.57 30.916V31.276L149.536 31.33C148.168 31.366 147.106 31.654 146.35 32.194C145.522 32.752 145.126 33.562 145.126 34.606C145.126 35.38 145.414 36.01 145.99 36.514C146.548 37 147.304 37.252 148.276 37.252C149.086 37.252 149.788 37.108 150.382 36.838C150.904 36.586 151.354 36.244 151.714 35.776V37H153.622V31.06C153.622 29.926 153.334 29.062 152.758 28.468C152.11 27.784 151.084 27.442 149.716 27.442ZM151.57 32.752V33.22C151.57 33.94 151.282 34.534 150.742 35.002C150.202 35.452 149.536 35.686 148.744 35.686C148.294 35.686 147.934 35.56 147.646 35.344C147.358 35.128 147.232 34.858 147.232 34.534C147.232 33.418 148.042 32.842 149.68 32.806L151.57 32.752ZM160.593 27.442C160.035 27.442 159.531 27.55 159.063 27.784C158.613 28 158.199 28.342 157.839 28.774V27.694H155.787V37H157.839V31.402C157.911 30.664 158.163 30.088 158.595 29.692C158.973 29.332 159.423 29.152 159.927 29.152C161.331 29.152 162.033 29.908 162.033 31.438V37H164.085V31.258C164.085 28.702 162.915 27.442 160.593 27.442ZM169.162 24.688L167.11 25.534V27.694H165.436V29.386H167.11V34.642C167.11 35.398 167.29 35.956 167.65 36.352C168.028 36.784 168.622 37 169.432 37H170.998V35.308H169.774C169.558 35.308 169.414 35.254 169.306 35.146C169.198 35.02 169.162 34.858 169.162 34.642V29.386H171.232V27.694H169.162V24.688ZM180.148 23.896C179.752 23.896 179.428 24.022 179.158 24.274C178.888 24.526 178.762 24.85 178.762 25.246C178.762 25.642 178.888 25.966 179.158 26.236C179.428 26.488 179.752 26.614 180.148 26.614C180.544 26.614 180.868 26.488 181.138 26.236C181.408 25.984 181.552 25.642 181.552 25.246C181.552 24.85 181.408 24.526 181.156 24.274C180.886 24.022 180.544 23.896 180.148 23.896ZM179.122 27.694V37H181.174V27.694H179.122ZM188.525 27.442C187.967 27.442 187.463 27.55 186.995 27.784C186.545 28 186.131 28.342 185.771 28.774V27.694H183.719V37H185.771V31.402C185.843 30.664 186.095 30.088 186.527 29.692C186.905 29.332 187.355 29.152 187.859 29.152C189.263 29.152 189.965 29.908 189.965 31.438V37H192.017V31.258C192.017 28.702 190.847 27.442 188.525 27.442ZM197.832 24.148C197.004 24.148 196.356 24.364 195.924 24.832C195.474 25.282 195.258 25.912 195.258 26.704V27.694H193.188V29.368H195.258V37H197.31V29.368H199.686V27.694H197.31V26.758C197.31 26.452 197.364 26.236 197.508 26.092C197.652 25.948 197.85 25.876 198.12 25.876H199.812V24.148H197.832ZM205.3 27.442C203.878 27.442 202.744 27.892 201.898 28.828C201.034 29.746 200.62 30.916 200.62 32.356C200.62 33.778 201.034 34.948 201.88 35.848C202.744 36.784 203.878 37.252 205.3 37.252C206.704 37.252 207.856 36.784 208.72 35.848C209.548 34.948 209.98 33.778 209.98 32.356C209.98 30.916 209.548 29.746 208.702 28.828C207.838 27.892 206.704 27.442 205.3 27.442ZM205.3 29.116C206.146 29.116 206.812 29.44 207.28 30.124C207.676 30.7 207.892 31.456 207.892 32.356C207.892 33.238 207.676 33.976 207.28 34.57C206.812 35.236 206.146 35.578 205.3 35.578C204.436 35.578 203.788 35.236 203.32 34.57C202.924 33.994 202.726 33.256 202.726 32.356C202.726 31.456 202.924 30.7 203.32 30.124C203.788 29.44 204.436 29.116 205.3 29.116ZM216.165 27.442C215.589 27.442 215.103 27.604 214.689 27.946C214.347 28.198 214.059 28.558 213.807 29.026V27.694H211.773V37H213.807V32.068C213.807 31.276 214.041 30.646 214.545 30.16C214.977 29.728 215.463 29.53 216.003 29.53C216.435 29.53 216.867 29.584 217.335 29.728V27.676C217.011 27.514 216.615 27.442 216.165 27.442ZM223.078 27.442C222.178 27.442 221.332 27.838 220.558 28.648V27.694H218.506V37H220.558V31.42C220.558 30.808 220.738 30.268 221.098 29.836C221.458 29.368 221.926 29.152 222.52 29.152C223.744 29.152 224.356 29.854 224.356 31.276V37H226.408V31.312C226.408 30.628 226.57 30.106 226.93 29.728C227.272 29.332 227.686 29.152 228.19 29.152C228.91 29.152 229.414 29.314 229.738 29.656C230.044 29.98 230.206 30.52 230.206 31.258V37H232.258V30.898C232.258 29.872 231.934 29.044 231.322 28.396C230.674 27.748 229.882 27.442 228.928 27.442C228.298 27.442 227.776 27.55 227.362 27.766C226.894 27.982 226.444 28.378 226.012 28.954C225.418 27.946 224.446 27.442 223.078 27.442ZM238.644 27.442C237.456 27.442 236.52 27.64 235.836 28.072C235.026 28.54 234.522 29.296 234.324 30.322L236.358 30.484C236.466 29.998 236.736 29.638 237.132 29.404C237.474 29.188 237.924 29.098 238.5 29.098C239.832 29.098 240.498 29.692 240.498 30.916V31.276L238.464 31.33C237.096 31.366 236.034 31.654 235.278 32.194C234.45 32.752 234.054 33.562 234.054 34.606C234.054 35.38 234.342 36.01 234.918 36.514C235.476 37 236.232 37.252 237.204 37.252C238.014 37.252 238.716 37.108 239.31 36.838C239.832 36.586 240.282 36.244 240.642 35.776V37H242.55V31.06C242.55 29.926 242.262 29.062 241.686 28.468C241.038 27.784 240.012 27.442 238.644 27.442ZM240.498 32.752V33.22C240.498 33.94 240.21 34.534 239.67 35.002C239.13 35.452 238.464 35.686 237.672 35.686C237.222 35.686 236.862 35.56 236.574 35.344C236.286 35.128 236.16 34.858 236.16 34.534C236.16 33.418 236.97 32.842 238.608 32.806L240.498 32.752ZM247.631 24.688L245.579 25.534V27.694H243.905V29.386H245.579V34.642C245.579 35.398 245.759 35.956 246.119 36.352C246.497 36.784 247.091 37 247.901 37H249.467V35.308H248.243C248.027 35.308 247.883 35.254 247.775 35.146C247.667 35.02 247.631 34.858 247.631 34.642V29.386H249.701V27.694H247.631V24.688ZM252.622 23.896C252.226 23.896 251.902 24.022 251.632 24.274C251.362 24.526 251.236 24.85 251.236 25.246C251.236 25.642 251.362 25.966 251.632 26.236C251.902 26.488 252.226 26.614 252.622 26.614C253.018 26.614 253.342 26.488 253.612 26.236C253.882 25.984 254.026 25.642 254.026 25.246C254.026 24.85 253.882 24.526 253.63 24.274C253.36 24.022 253.018 23.896 252.622 23.896ZM251.596 27.694V37H253.648V27.694H251.596ZM260.513 27.442C259.091 27.442 257.957 27.892 257.111 28.828C256.247 29.746 255.833 30.916 255.833 32.356C255.833 33.778 256.247 34.948 257.093 35.848C257.957 36.784 259.091 37.252 260.513 37.252C261.917 37.252 263.069 36.784 263.933 35.848C264.761 34.948 265.193 33.778 265.193 32.356C265.193 30.916 264.761 29.746 263.915 28.828C263.051 27.892 261.917 27.442 260.513 27.442ZM260.513 29.116C261.359 29.116 262.025 29.44 262.493 30.124C262.889 30.7 263.105 31.456 263.105 32.356C263.105 33.238 262.889 33.976 262.493 34.57C262.025 35.236 261.359 35.578 260.513 35.578C259.649 35.578 259.001 35.236 258.533 34.57C258.137 33.994 257.939 33.256 257.939 32.356C257.939 31.456 258.137 30.7 258.533 30.124C259.001 29.44 259.649 29.116 260.513 29.116ZM271.792 27.442C271.234 27.442 270.73 27.55 270.262 27.784C269.812 28 269.398 28.342 269.038 28.774V27.694H266.986V37H269.038V31.402C269.11 30.664 269.362 30.088 269.794 29.692C270.172 29.332 270.622 29.152 271.126 29.152C272.53 29.152 273.232 29.908 273.232 31.438V37H275.284V31.258C275.284 28.702 274.114 27.442 271.792 27.442Z" fill="#171933"/>
<path d="M89.221 50.718V51.641H92.497V60H93.55V51.641H96.826V50.718H89.221ZM97.8548 50.536V60H98.8948V56.165C98.8948 55.541 99.0638 55.008 99.4148 54.592C99.7528 54.176 100.182 53.968 100.702 53.968C101.261 53.968 101.69 54.137 102.002 54.475C102.288 54.813 102.444 55.294 102.444 55.918V60H103.484V55.762C103.484 54.904 103.276 54.241 102.86 53.786C102.444 53.318 101.833 53.097 101.053 53.097C100.598 53.097 100.195 53.201 99.8308 53.409C99.4408 53.63 99.1288 53.955 98.8948 54.384V50.536H97.8548ZM105.936 50.744C105.715 50.744 105.533 50.809 105.377 50.965C105.221 51.095 105.156 51.277 105.156 51.511C105.156 51.732 105.221 51.914 105.377 52.07C105.533 52.213 105.715 52.291 105.936 52.291C106.157 52.291 106.339 52.213 106.495 52.07C106.651 51.914 106.729 51.732 106.729 51.511C106.729 51.277 106.651 51.095 106.495 50.965C106.339 50.809 106.157 50.744 105.936 50.744ZM105.416 53.279V60H106.456V53.279H105.416ZM110.784 53.097C110.03 53.097 109.406 53.266 108.938 53.604C108.431 53.942 108.184 54.384 108.184 54.956C108.184 55.528 108.431 55.957 108.951 56.269C109.263 56.477 109.822 56.672 110.615 56.867C111.343 57.049 111.824 57.192 112.045 57.296C112.461 57.504 112.682 57.79 112.682 58.167C112.682 58.921 112.071 59.311 110.875 59.311C110.303 59.311 109.874 59.207 109.588 58.999C109.302 58.765 109.107 58.388 109.029 57.855H108.015C108.171 59.402 109.133 60.182 110.901 60.182C112.799 60.182 113.748 59.48 113.748 58.102C113.748 57.517 113.475 57.062 112.942 56.724C112.591 56.503 112.019 56.295 111.213 56.1C110.537 55.918 110.069 55.775 109.822 55.658C109.432 55.463 109.25 55.216 109.25 54.93C109.25 54.631 109.393 54.397 109.679 54.228C109.939 54.046 110.303 53.968 110.771 53.968C111.304 53.968 111.72 54.072 112.006 54.28C112.266 54.462 112.435 54.774 112.526 55.19H113.54C113.358 53.786 112.448 53.097 110.784 53.097ZM122.508 53.097C121.494 53.097 120.753 53.526 120.272 54.384V53.279H119.297V62.574H120.337V58.778C120.857 59.714 121.598 60.182 122.56 60.182C123.522 60.182 124.263 59.818 124.809 59.116C125.303 58.466 125.563 57.647 125.563 56.659C125.563 55.645 125.303 54.826 124.796 54.176C124.237 53.448 123.47 53.097 122.508 53.097ZM122.378 53.955C123.093 53.955 123.639 54.215 124.016 54.761C124.328 55.229 124.497 55.866 124.497 56.659C124.497 57.465 124.328 58.102 123.99 58.57C123.613 59.064 123.067 59.324 122.339 59.324C121.715 59.324 121.234 59.077 120.87 58.609C120.48 58.128 120.298 57.504 120.298 56.724V56.594C120.298 55.84 120.467 55.216 120.805 54.748C121.169 54.215 121.702 53.955 122.378 53.955ZM129.865 53.097C129.397 53.097 128.994 53.24 128.643 53.526C128.357 53.747 128.123 54.059 127.941 54.449V53.279H126.914V60H127.941V56.438C127.941 55.814 128.11 55.281 128.474 54.839C128.825 54.371 129.267 54.15 129.787 54.15C130.112 54.15 130.45 54.189 130.788 54.293V53.253C130.541 53.149 130.229 53.097 129.865 53.097ZM134.665 53.097C133.651 53.097 132.858 53.435 132.26 54.137C131.688 54.8 131.402 55.632 131.402 56.646C131.402 57.647 131.688 58.479 132.26 59.129C132.858 59.831 133.651 60.182 134.665 60.182C135.666 60.182 136.472 59.831 137.083 59.129C137.642 58.479 137.928 57.647 137.928 56.646C137.928 55.632 137.642 54.8 137.07 54.137C136.472 53.435 135.666 53.097 134.665 53.097ZM134.665 53.968C135.367 53.968 135.926 54.241 136.342 54.787C136.693 55.281 136.875 55.892 136.875 56.646C136.875 57.374 136.693 57.998 136.342 58.492C135.926 59.038 135.367 59.311 134.665 59.311C133.95 59.311 133.391 59.038 133.001 58.492C132.637 57.998 132.468 57.387 132.468 56.646C132.468 55.892 132.637 55.281 133.001 54.787C133.391 54.241 133.95 53.968 134.665 53.968ZM144.246 50.536V54.514C143.726 53.565 142.985 53.097 142.023 53.097C141.061 53.097 140.32 53.448 139.774 54.176C139.267 54.826 139.02 55.632 139.02 56.62C139.02 57.634 139.267 58.466 139.774 59.116C140.32 59.818 141.087 60.182 142.075 60.182C143.089 60.182 143.843 59.753 144.311 58.895V60H145.286V50.536H144.246ZM142.244 53.955C142.842 53.955 143.336 54.189 143.713 54.683C144.077 55.164 144.272 55.801 144.272 56.581V56.711C144.272 57.465 144.103 58.076 143.778 58.544C143.401 59.064 142.881 59.324 142.205 59.324C141.477 59.324 140.931 59.051 140.567 58.531C140.242 58.063 140.086 57.426 140.086 56.62C140.086 55.814 140.242 55.19 140.58 54.735C140.944 54.215 141.503 53.955 142.244 53.955ZM146.897 53.279V57.439C146.897 59.259 147.703 60.182 149.341 60.182C150.251 60.182 150.979 59.766 151.525 58.96V60H152.565V53.279H151.525V57.374C151.447 57.946 151.226 58.414 150.862 58.778C150.511 59.116 150.108 59.298 149.666 59.298C149.055 59.298 148.613 59.129 148.34 58.817C148.067 58.505 147.937 58.024 147.937 57.387V53.279H146.897ZM157.07 53.097C156.069 53.097 155.276 53.448 154.704 54.163C154.171 54.813 153.911 55.645 153.911 56.672C153.911 57.699 154.171 58.531 154.704 59.168C155.263 59.844 156.043 60.182 157.057 60.182C157.889 60.182 158.552 59.961 159.059 59.532C159.579 59.09 159.904 58.427 160.06 57.569H159.02C158.864 58.726 158.201 59.311 157.057 59.311C156.381 59.311 155.861 59.064 155.51 58.596C155.146 58.128 154.977 57.478 154.977 56.659C154.977 55.84 155.159 55.19 155.523 54.709C155.9 54.215 156.42 53.968 157.07 53.968C157.603 53.968 158.032 54.085 158.37 54.345C158.695 54.605 158.903 54.995 158.994 55.515H160.021C159.904 54.696 159.592 54.085 159.072 53.682C158.565 53.292 157.902 53.097 157.07 53.097ZM163.075 51.108L162.048 51.537V53.279H160.696V54.15H162.048V58.427C162.048 58.934 162.152 59.311 162.373 59.571C162.607 59.857 163.01 60 163.556 60H164.57V59.129H163.712C163.478 59.129 163.309 59.064 163.218 58.96C163.114 58.856 163.075 58.674 163.075 58.427V54.15H164.739V53.279H163.075V51.108ZM171.089 50.744C170.868 50.744 170.686 50.809 170.53 50.965C170.374 51.095 170.309 51.277 170.309 51.511C170.309 51.732 170.374 51.914 170.53 52.07C170.686 52.213 170.868 52.291 171.089 52.291C171.31 52.291 171.492 52.213 171.648 52.07C171.804 51.914 171.882 51.732 171.882 51.511C171.882 51.277 171.804 51.095 171.648 50.965C171.492 50.809 171.31 50.744 171.089 50.744ZM170.569 53.279V60H171.609V53.279H170.569ZM175.936 53.097C175.182 53.097 174.558 53.266 174.09 53.604C173.583 53.942 173.336 54.384 173.336 54.956C173.336 55.528 173.583 55.957 174.103 56.269C174.415 56.477 174.974 56.672 175.767 56.867C176.495 57.049 176.976 57.192 177.197 57.296C177.613 57.504 177.834 57.79 177.834 58.167C177.834 58.921 177.223 59.311 176.027 59.311C175.455 59.311 175.026 59.207 174.74 58.999C174.454 58.765 174.259 58.388 174.181 57.855H173.167C173.323 59.402 174.285 60.182 176.053 60.182C177.951 60.182 178.9 59.48 178.9 58.102C178.9 57.517 178.627 57.062 178.094 56.724C177.743 56.503 177.171 56.295 176.365 56.1C175.689 55.918 175.221 55.775 174.974 55.658C174.584 55.463 174.402 55.216 174.402 54.93C174.402 54.631 174.545 54.397 174.831 54.228C175.091 54.046 175.455 53.968 175.923 53.968C176.456 53.968 176.872 54.072 177.158 54.28C177.418 54.462 177.587 54.774 177.678 55.19H178.692C178.51 53.786 177.6 53.097 175.936 53.097ZM187.375 53.097C186.569 53.097 185.932 53.253 185.438 53.565C184.892 53.903 184.541 54.436 184.398 55.138L185.425 55.216C185.529 54.787 185.75 54.462 186.101 54.254C186.413 54.046 186.816 53.955 187.31 53.955C188.48 53.955 189.065 54.514 189.065 55.645V55.996L187.453 56.022C186.439 56.035 185.659 56.23 185.113 56.594C184.489 56.984 184.19 57.556 184.19 58.323C184.19 58.869 184.398 59.324 184.814 59.675C185.217 60.013 185.75 60.182 186.426 60.182C187.05 60.182 187.609 60.039 188.103 59.766C188.519 59.532 188.87 59.233 189.13 58.869V60H190.105V55.684C190.105 54.904 189.897 54.293 189.507 53.851C189.039 53.344 188.337 53.097 187.375 53.097ZM189.065 56.776V57.348C189.065 57.868 188.818 58.336 188.337 58.739C187.843 59.155 187.284 59.363 186.647 59.363C186.231 59.363 185.893 59.259 185.633 59.064C185.373 58.856 185.256 58.609 185.256 58.297C185.256 57.322 186.01 56.828 187.518 56.802L189.065 56.776ZM190.97 53.279L193.258 60H194.233L195.819 54.592L197.379 60H198.367L200.655 53.279H199.511L197.86 58.726L196.3 53.279H195.325L193.765 58.726L192.114 53.279H190.97ZM204.294 53.097C203.319 53.097 202.552 53.448 201.98 54.15C201.408 54.813 201.135 55.645 201.135 56.633C201.135 57.725 201.421 58.583 202.019 59.233C202.591 59.857 203.371 60.182 204.333 60.182C205.204 60.182 205.919 59.922 206.478 59.428C206.933 59.012 207.232 58.492 207.388 57.842H206.348C206.179 58.31 205.958 58.661 205.672 58.895C205.334 59.168 204.879 59.311 204.333 59.311C203.696 59.311 203.189 59.103 202.825 58.687C202.461 58.271 202.266 57.686 202.214 56.932H207.518C207.492 55.762 207.232 54.839 206.738 54.189C206.192 53.461 205.373 53.097 204.294 53.097ZM204.32 53.968C205.594 53.968 206.309 54.683 206.439 56.126H202.24C202.305 55.463 202.513 54.943 202.877 54.553C203.241 54.163 203.722 53.968 204.32 53.968ZM211.115 53.097C210.361 53.097 209.737 53.266 209.269 53.604C208.762 53.942 208.515 54.384 208.515 54.956C208.515 55.528 208.762 55.957 209.282 56.269C209.594 56.477 210.153 56.672 210.946 56.867C211.674 57.049 212.155 57.192 212.376 57.296C212.792 57.504 213.013 57.79 213.013 58.167C213.013 58.921 212.402 59.311 211.206 59.311C210.634 59.311 210.205 59.207 209.919 58.999C209.633 58.765 209.438 58.388 209.36 57.855H208.346C208.502 59.402 209.464 60.182 211.232 60.182C213.13 60.182 214.079 59.48 214.079 58.102C214.079 57.517 213.806 57.062 213.273 56.724C212.922 56.503 212.35 56.295 211.544 56.1C210.868 55.918 210.4 55.775 210.153 55.658C209.763 55.463 209.581 55.216 209.581 54.93C209.581 54.631 209.724 54.397 210.01 54.228C210.27 54.046 210.634 53.968 211.102 53.968C211.635 53.968 212.051 54.072 212.337 54.28C212.597 54.462 212.766 54.774 212.857 55.19H213.871C213.689 53.786 212.779 53.097 211.115 53.097ZM218.302 53.097C217.288 53.097 216.495 53.435 215.897 54.137C215.325 54.8 215.039 55.632 215.039 56.646C215.039 57.647 215.325 58.479 215.897 59.129C216.495 59.831 217.288 60.182 218.302 60.182C219.303 60.182 220.109 59.831 220.72 59.129C221.279 58.479 221.565 57.647 221.565 56.646C221.565 55.632 221.279 54.8 220.707 54.137C220.109 53.435 219.303 53.097 218.302 53.097ZM218.302 53.968C219.004 53.968 219.563 54.241 219.979 54.787C220.33 55.281 220.512 55.892 220.512 56.646C220.512 57.374 220.33 57.998 219.979 58.492C219.563 59.038 219.004 59.311 218.302 59.311C217.587 59.311 217.028 59.038 216.638 58.492C216.274 57.998 216.105 57.387 216.105 56.646C216.105 55.892 216.274 55.281 216.638 54.787C217.028 54.241 217.587 53.968 218.302 53.968ZM225.854 53.097C225.1 53.097 224.463 53.448 223.956 54.176V53.279H222.916V60H223.956V55.905C223.956 55.372 224.112 54.917 224.424 54.553C224.736 54.163 225.126 53.981 225.607 53.981C226.634 53.981 227.154 54.566 227.154 55.762V60H228.194V55.788C228.194 55.242 228.337 54.813 228.649 54.475C228.935 54.137 229.312 53.981 229.754 53.981C230.326 53.981 230.742 54.124 231.002 54.436C231.249 54.722 231.379 55.164 231.379 55.762V60H232.419V55.593C232.419 54.826 232.198 54.215 231.782 53.76C231.34 53.318 230.781 53.097 230.079 53.097C229.611 53.097 229.221 53.201 228.896 53.409C228.532 53.604 228.22 53.929 227.96 54.371C227.583 53.513 226.881 53.097 225.854 53.097ZM236.806 53.097C235.831 53.097 235.064 53.448 234.492 54.15C233.92 54.813 233.647 55.645 233.647 56.633C233.647 57.725 233.933 58.583 234.531 59.233C235.103 59.857 235.883 60.182 236.845 60.182C237.716 60.182 238.431 59.922 238.99 59.428C239.445 59.012 239.744 58.492 239.9 57.842H238.86C238.691 58.31 238.47 58.661 238.184 58.895C237.846 59.168 237.391 59.311 236.845 59.311C236.208 59.311 235.701 59.103 235.337 58.687C234.973 58.271 234.778 57.686 234.726 56.932H240.03C240.004 55.762 239.744 54.839 239.25 54.189C238.704 53.461 237.885 53.097 236.806 53.097ZM236.832 53.968C238.106 53.968 238.821 54.683 238.951 56.126H234.752C234.817 55.463 235.025 54.943 235.389 54.553C235.753 54.163 236.234 53.968 236.832 53.968ZM242.158 58.453C241.924 58.453 241.742 58.531 241.599 58.687C241.443 58.843 241.365 59.025 241.365 59.259C241.365 59.48 241.443 59.662 241.599 59.818C241.742 59.974 241.924 60.052 242.158 60.052C242.366 60.052 242.561 59.974 242.717 59.818C242.873 59.662 242.951 59.48 242.951 59.259C242.951 59.025 242.873 58.843 242.717 58.687C242.561 58.531 242.366 58.453 242.158 58.453ZM249.135 50.718V60H252.359C253.815 60 254.933 59.571 255.713 58.726C256.454 57.92 256.831 56.789 256.831 55.359C256.831 53.903 256.48 52.772 255.791 51.992C255.037 51.134 253.932 50.718 252.463 50.718H249.135ZM250.201 51.641H252.294C253.516 51.641 254.4 51.953 254.972 52.59C255.505 53.188 255.778 54.111 255.778 55.359C255.778 56.568 255.479 57.491 254.907 58.115C254.296 58.752 253.386 59.077 252.177 59.077H250.201V51.641ZM261.187 53.097C260.173 53.097 259.38 53.435 258.782 54.137C258.21 54.8 257.924 55.632 257.924 56.646C257.924 57.647 258.21 58.479 258.782 59.129C259.38 59.831 260.173 60.182 261.187 60.182C262.188 60.182 262.994 59.831 263.605 59.129C264.164 58.479 264.45 57.647 264.45 56.646C264.45 55.632 264.164 54.8 263.592 54.137C262.994 53.435 262.188 53.097 261.187 53.097ZM261.187 53.968C261.889 53.968 262.448 54.241 262.864 54.787C263.215 55.281 263.397 55.892 263.397 56.646C263.397 57.374 263.215 57.998 262.864 58.492C262.448 59.038 261.889 59.311 261.187 59.311C260.472 59.311 259.913 59.038 259.523 58.492C259.159 57.998 258.99 57.387 258.99 56.646C258.99 55.892 259.159 55.281 259.523 54.787C259.913 54.241 260.472 53.968 261.187 53.968ZM273.276 53.097C272.834 53.097 272.431 53.201 272.067 53.409C271.703 53.604 271.404 53.89 271.17 54.267V53.279H270.13V60H271.17V55.944C271.209 55.333 271.404 54.852 271.768 54.488C272.106 54.15 272.509 53.981 272.977 53.981C274.147 53.981 274.745 54.631 274.745 55.944V60H275.785V55.866C275.785 54.02 274.94 53.097 273.276 53.097ZM280.395 53.097C279.381 53.097 278.588 53.435 277.99 54.137C277.418 54.8 277.132 55.632 277.132 56.646C277.132 57.647 277.418 58.479 277.99 59.129C278.588 59.831 279.381 60.182 280.395 60.182C281.396 60.182 282.202 59.831 282.813 59.129C283.372 58.479 283.658 57.647 283.658 56.646C283.658 55.632 283.372 54.8 282.8 54.137C282.202 53.435 281.396 53.097 280.395 53.097ZM280.395 53.968C281.097 53.968 281.656 54.241 282.072 54.787C282.423 55.281 282.605 55.892 282.605 56.646C282.605 57.374 282.423 57.998 282.072 58.492C281.656 59.038 281.097 59.311 280.395 59.311C279.68 59.311 279.121 59.038 278.731 58.492C278.367 57.998 278.198 57.387 278.198 56.646C278.198 55.892 278.367 55.281 278.731 54.787C279.121 54.241 279.68 53.968 280.395 53.968ZM286.803 51.108L285.776 51.537V53.279H284.424V54.15H285.776V58.427C285.776 58.934 285.88 59.311 286.101 59.571C286.335 59.857 286.738 60 287.284 60H288.298V59.129H287.44C287.206 59.129 287.037 59.064 286.946 58.96C286.842 58.856 286.803 58.674 286.803 58.427V54.15H288.467V53.279H286.803V51.108ZM296.65 50.718C296.078 50.718 295.636 50.874 295.337 51.199C295.051 51.511 294.908 51.94 294.908 52.512V53.279H293.218V54.15H294.908V60H295.948V54.15H297.846V53.279H295.948V52.538C295.948 52.213 296.013 51.979 296.143 51.836C296.273 51.68 296.494 51.615 296.78 51.615H297.937V50.718H296.65ZM301.812 53.097C300.798 53.097 300.005 53.435 299.407 54.137C298.835 54.8 298.549 55.632 298.549 56.646C298.549 57.647 298.835 58.479 299.407 59.129C300.005 59.831 300.798 60.182 301.812 60.182C302.813 60.182 303.619 59.831 304.23 59.129C304.789 58.479 305.075 57.647 305.075 56.646C305.075 55.632 304.789 54.8 304.217 54.137C303.619 53.435 302.813 53.097 301.812 53.097ZM301.812 53.968C302.514 53.968 303.073 54.241 303.489 54.787C303.84 55.281 304.022 55.892 304.022 56.646C304.022 57.374 303.84 57.998 303.489 58.492C303.073 59.038 302.514 59.311 301.812 59.311C301.097 59.311 300.538 59.038 300.148 58.492C299.784 57.998 299.615 57.387 299.615 56.646C299.615 55.892 299.784 55.281 300.148 54.787C300.538 54.241 301.097 53.968 301.812 53.968ZM309.377 53.097C308.909 53.097 308.506 53.24 308.155 53.526C307.869 53.747 307.635 54.059 307.453 54.449V53.279H306.426V60H307.453V56.438C307.453 55.814 307.622 55.281 307.986 54.839C308.337 54.371 308.779 54.15 309.299 54.15C309.624 54.15 309.962 54.189 310.3 54.293V53.253C310.053 53.149 309.741 53.097 309.377 53.097ZM313.943 53.097C313.007 53.097 312.266 53.422 311.72 54.085C311.174 54.709 310.914 55.502 310.914 56.49C310.914 57.465 311.174 58.258 311.72 58.882C312.266 59.519 313.007 59.844 313.943 59.844C314.957 59.844 315.711 59.389 316.205 58.492V59.675C316.205 61.157 315.529 61.911 314.177 61.911C313.566 61.911 313.111 61.794 312.812 61.573C312.513 61.365 312.318 61.027 312.24 60.572H311.2C311.317 61.3 311.616 61.846 312.097 62.21C312.565 62.574 313.267 62.756 314.177 62.756C316.218 62.756 317.245 61.677 317.245 59.532V53.279H316.205V54.436C315.711 53.539 314.957 53.097 313.943 53.097ZM314.099 53.955C314.762 53.955 315.282 54.189 315.672 54.683C316.036 55.125 316.218 55.736 316.218 56.49C316.218 57.218 316.036 57.816 315.672 58.271C315.282 58.739 314.762 58.973 314.086 58.973C313.358 58.973 312.825 58.713 312.461 58.219C312.136 57.777 311.98 57.192 311.98 56.49C311.98 55.736 312.162 55.125 312.526 54.683C312.903 54.189 313.423 53.955 314.099 53.955ZM321.624 53.097C320.649 53.097 319.882 53.448 319.31 54.15C318.738 54.813 318.465 55.645 318.465 56.633C318.465 57.725 318.751 58.583 319.349 59.233C319.921 59.857 320.701 60.182 321.663 60.182C322.534 60.182 323.249 59.922 323.808 59.428C324.263 59.012 324.562 58.492 324.718 57.842H323.678C323.509 58.31 323.288 58.661 323.002 58.895C322.664 59.168 322.209 59.311 321.663 59.311C321.026 59.311 320.519 59.103 320.155 58.687C319.791 58.271 319.596 57.686 319.544 56.932H324.848C324.822 55.762 324.562 54.839 324.068 54.189C323.522 53.461 322.703 53.097 321.624 53.097ZM321.65 53.968C322.924 53.968 323.639 54.683 323.769 56.126H319.57C319.635 55.463 319.843 54.943 320.207 54.553C320.571 54.163 321.052 53.968 321.65 53.968ZM327.86 51.108L326.833 51.537V53.279H325.481V54.15H326.833V58.427C326.833 58.934 326.937 59.311 327.158 59.571C327.392 59.857 327.795 60 328.341 60H329.355V59.129H328.497C328.263 59.129 328.094 59.064 328.003 58.96C327.899 58.856 327.86 58.674 327.86 58.427V54.15H329.524V53.279H327.86V51.108ZM336.81 51.108L335.783 51.537V53.279H334.431V54.15H335.783V58.427C335.783 58.934 335.887 59.311 336.108 59.571C336.342 59.857 336.745 60 337.291 60H338.305V59.129H337.447C337.213 59.129 337.044 59.064 336.953 58.96C336.849 58.856 336.81 58.674 336.81 58.427V54.15H338.474V53.279H336.81V51.108ZM342.64 53.097C341.626 53.097 340.833 53.435 340.235 54.137C339.663 54.8 339.377 55.632 339.377 56.646C339.377 57.647 339.663 58.479 340.235 59.129C340.833 59.831 341.626 60.182 342.64 60.182C343.641 60.182 344.447 59.831 345.058 59.129C345.617 58.479 345.903 57.647 345.903 56.646C345.903 55.632 345.617 54.8 345.045 54.137C344.447 53.435 343.641 53.097 342.64 53.097ZM342.64 53.968C343.342 53.968 343.901 54.241 344.317 54.787C344.668 55.281 344.85 55.892 344.85 56.646C344.85 57.374 344.668 57.998 344.317 58.492C343.901 59.038 343.342 59.311 342.64 59.311C341.925 59.311 341.366 59.038 340.976 58.492C340.612 57.998 340.443 57.387 340.443 56.646C340.443 55.892 340.612 55.281 340.976 54.787C341.366 54.241 341.925 53.968 342.64 53.968ZM92.185 71.097C91.431 71.097 90.807 71.266 90.339 71.604C89.832 71.942 89.585 72.384 89.585 72.956C89.585 73.528 89.832 73.957 90.352 74.269C90.664 74.477 91.223 74.672 92.016 74.867C92.744 75.049 93.225 75.192 93.446 75.296C93.862 75.504 94.083 75.79 94.083 76.167C94.083 76.921 93.472 77.311 92.276 77.311C91.704 77.311 91.275 77.207 90.989 76.999C90.703 76.765 90.508 76.388 90.43 75.855H89.416C89.572 77.402 90.534 78.182 92.302 78.182C94.2 78.182 95.149 77.48 95.149 76.102C95.149 75.517 94.876 75.062 94.343 74.724C93.992 74.503 93.42 74.295 92.614 74.1C91.938 73.918 91.47 73.775 91.223 73.658C90.833 73.463 90.651 73.216 90.651 72.93C90.651 72.631 90.794 72.397 91.08 72.228C91.34 72.046 91.704 71.968 92.172 71.968C92.705 71.968 93.121 72.072 93.407 72.28C93.667 72.462 93.836 72.774 93.927 73.19H94.941C94.759 71.786 93.849 71.097 92.185 71.097ZM96.3695 71.279V75.439C96.3695 77.259 97.1755 78.182 98.8135 78.182C99.7235 78.182 100.451 77.766 100.997 76.96V78H102.037V71.279H100.997V75.374C100.919 75.946 100.698 76.414 100.334 76.778C99.9835 77.116 99.5805 77.298 99.1385 77.298C98.5275 77.298 98.0855 77.129 97.8125 76.817C97.5395 76.505 97.4095 76.024 97.4095 75.387V71.279H96.3695ZM103.644 68.536V78H104.619V76.895C105.074 77.753 105.815 78.182 106.855 78.182C107.83 78.182 108.597 77.818 109.156 77.116C109.65 76.466 109.91 75.634 109.91 74.62C109.91 73.632 109.65 72.826 109.156 72.176C108.61 71.448 107.856 71.097 106.907 71.097C105.945 71.097 105.204 71.565 104.684 72.514V68.536H103.644ZM106.686 71.955C107.414 71.955 107.96 72.215 108.337 72.735C108.675 73.19 108.844 73.814 108.844 74.62C108.844 75.426 108.675 76.063 108.363 76.531C107.999 77.051 107.453 77.324 106.725 77.324C106.049 77.324 105.516 77.064 105.152 76.544C104.814 76.076 104.645 75.465 104.645 74.711V74.581C104.645 73.801 104.827 73.164 105.217 72.683C105.581 72.189 106.075 71.955 106.686 71.955ZM113.64 71.097C112.886 71.097 112.262 71.266 111.794 71.604C111.287 71.942 111.04 72.384 111.04 72.956C111.04 73.528 111.287 73.957 111.807 74.269C112.119 74.477 112.678 74.672 113.471 74.867C114.199 75.049 114.68 75.192 114.901 75.296C115.317 75.504 115.538 75.79 115.538 76.167C115.538 76.921 114.927 77.311 113.731 77.311C113.159 77.311 112.73 77.207 112.444 76.999C112.158 76.765 111.963 76.388 111.885 75.855H110.871C111.027 77.402 111.989 78.182 113.757 78.182C115.655 78.182 116.604 77.48 116.604 76.102C116.604 75.517 116.331 75.062 115.798 74.724C115.447 74.503 114.875 74.295 114.069 74.1C113.393 73.918 112.925 73.775 112.678 73.658C112.288 73.463 112.106 73.216 112.106 72.93C112.106 72.631 112.249 72.397 112.535 72.228C112.795 72.046 113.159 71.968 113.627 71.968C114.16 71.968 114.576 72.072 114.862 72.28C115.122 72.462 115.291 72.774 115.382 73.19H116.396C116.214 71.786 115.304 71.097 113.64 71.097ZM120.724 71.097C119.723 71.097 118.93 71.448 118.358 72.163C117.825 72.813 117.565 73.645 117.565 74.672C117.565 75.699 117.825 76.531 118.358 77.168C118.917 77.844 119.697 78.182 120.711 78.182C121.543 78.182 122.206 77.961 122.713 77.532C123.233 77.09 123.558 76.427 123.714 75.569H122.674C122.518 76.726 121.855 77.311 120.711 77.311C120.035 77.311 119.515 77.064 119.164 76.596C118.8 76.128 118.631 75.478 118.631 74.659C118.631 73.84 118.813 73.19 119.177 72.709C119.554 72.215 120.074 71.968 120.724 71.968C121.257 71.968 121.686 72.085 122.024 72.345C122.349 72.605 122.557 72.995 122.648 73.515H123.675C123.558 72.696 123.246 72.085 122.726 71.682C122.219 71.292 121.556 71.097 120.724 71.097ZM127.885 71.097C127.417 71.097 127.014 71.24 126.663 71.526C126.377 71.747 126.143 72.059 125.961 72.449V71.279H124.934V78H125.961V74.438C125.961 73.814 126.13 73.281 126.494 72.839C126.845 72.371 127.287 72.15 127.807 72.15C128.132 72.15 128.47 72.189 128.808 72.293V71.253C128.561 71.149 128.249 71.097 127.885 71.097ZM130.54 68.744C130.319 68.744 130.137 68.809 129.981 68.965C129.825 69.095 129.76 69.277 129.76 69.511C129.76 69.732 129.825 69.914 129.981 70.07C130.137 70.213 130.319 70.291 130.54 70.291C130.761 70.291 130.943 70.213 131.099 70.07C131.255 69.914 131.333 69.732 131.333 69.511C131.333 69.277 131.255 69.095 131.099 68.965C130.943 68.809 130.761 68.744 130.54 68.744ZM130.02 71.279V78H131.06V71.279H130.02ZM133.008 68.536V78H133.983V76.895C134.438 77.753 135.179 78.182 136.219 78.182C137.194 78.182 137.961 77.818 138.52 77.116C139.014 76.466 139.274 75.634 139.274 74.62C139.274 73.632 139.014 72.826 138.52 72.176C137.974 71.448 137.22 71.097 136.271 71.097C135.309 71.097 134.568 71.565 134.048 72.514V68.536H133.008ZM136.05 71.955C136.778 71.955 137.324 72.215 137.701 72.735C138.039 73.19 138.208 73.814 138.208 74.62C138.208 75.426 138.039 76.063 137.727 76.531C137.363 77.051 136.817 77.324 136.089 77.324C135.413 77.324 134.88 77.064 134.516 76.544C134.178 76.076 134.009 75.465 134.009 74.711V74.581C134.009 73.801 134.191 73.164 134.581 72.683C134.945 72.189 135.439 71.955 136.05 71.955ZM143.394 71.097C142.419 71.097 141.652 71.448 141.08 72.15C140.508 72.813 140.235 73.645 140.235 74.633C140.235 75.725 140.521 76.583 141.119 77.233C141.691 77.857 142.471 78.182 143.433 78.182C144.304 78.182 145.019 77.922 145.578 77.428C146.033 77.012 146.332 76.492 146.488 75.842H145.448C145.279 76.31 145.058 76.661 144.772 76.895C144.434 77.168 143.979 77.311 143.433 77.311C142.796 77.311 142.289 77.103 141.925 76.687C141.561 76.271 141.366 75.686 141.314 74.932H146.618C146.592 73.762 146.332 72.839 145.838 72.189C145.292 71.461 144.473 71.097 143.394 71.097ZM143.42 71.968C144.694 71.968 145.409 72.683 145.539 74.126H141.34C141.405 73.463 141.613 72.943 141.977 72.553C142.341 72.163 142.822 71.968 143.42 71.968ZM153.959 69.108L152.932 69.537V71.279H151.58V72.15H152.932V76.427C152.932 76.934 153.036 77.311 153.257 77.571C153.491 77.857 153.894 78 154.44 78H155.454V77.129H154.596C154.362 77.129 154.193 77.064 154.102 76.96C153.998 76.856 153.959 76.674 153.959 76.427V72.15H155.623V71.279H153.959V69.108ZM159.789 71.097C158.775 71.097 157.982 71.435 157.384 72.137C156.812 72.8 156.526 73.632 156.526 74.646C156.526 75.647 156.812 76.479 157.384 77.129C157.982 77.831 158.775 78.182 159.789 78.182C160.79 78.182 161.596 77.831 162.207 77.129C162.766 76.479 163.052 75.647 163.052 74.646C163.052 73.632 162.766 72.8 162.194 72.137C161.596 71.435 160.79 71.097 159.789 71.097ZM159.789 71.968C160.491 71.968 161.05 72.241 161.466 72.787C161.817 73.281 161.999 73.892 161.999 74.646C161.999 75.374 161.817 75.998 161.466 76.492C161.05 77.038 160.491 77.311 159.789 77.311C159.074 77.311 158.515 77.038 158.125 76.492C157.761 75.998 157.592 75.387 157.592 74.646C157.592 73.892 157.761 73.281 158.125 72.787C158.515 72.241 159.074 71.968 159.789 71.968ZM170.527 69.108L169.5 69.537V71.279H168.148V72.15H169.5V76.427C169.5 76.934 169.604 77.311 169.825 77.571C170.059 77.857 170.462 78 171.008 78H172.022V77.129H171.164C170.93 77.129 170.761 77.064 170.67 76.96C170.566 76.856 170.527 76.674 170.527 76.427V72.15H172.191V71.279H170.527V69.108ZM173.354 68.536V78H174.394V74.165C174.394 73.541 174.563 73.008 174.914 72.592C175.252 72.176 175.681 71.968 176.201 71.968C176.76 71.968 177.189 72.137 177.501 72.475C177.787 72.813 177.943 73.294 177.943 73.918V78H178.983V73.762C178.983 72.904 178.775 72.241 178.359 71.786C177.943 71.318 177.332 71.097 176.552 71.097C176.097 71.097 175.694 71.201 175.33 71.409C174.94 71.63 174.628 71.955 174.394 72.384V68.536H173.354ZM183.346 71.097C182.371 71.097 181.604 71.448 181.032 72.15C180.46 72.813 180.187 73.645 180.187 74.633C180.187 75.725 180.473 76.583 181.071 77.233C181.643 77.857 182.423 78.182 183.385 78.182C184.256 78.182 184.971 77.922 185.53 77.428C185.985 77.012 186.284 76.492 186.44 75.842H185.4C185.231 76.31 185.01 76.661 184.724 76.895C184.386 77.168 183.931 77.311 183.385 77.311C182.748 77.311 182.241 77.103 181.877 76.687C181.513 76.271 181.318 75.686 181.266 74.932H186.57C186.544 73.762 186.284 72.839 185.79 72.189C185.244 71.461 184.425 71.097 183.346 71.097ZM183.372 71.968C184.646 71.968 185.361 72.683 185.491 74.126H181.292C181.357 73.463 181.565 72.943 181.929 72.553C182.293 72.163 182.774 71.968 183.372 71.968ZM195.017 71.097C194.016 71.097 193.223 71.448 192.651 72.163C192.118 72.813 191.858 73.645 191.858 74.672C191.858 75.699 192.118 76.531 192.651 77.168C193.21 77.844 193.99 78.182 195.004 78.182C195.836 78.182 196.499 77.961 197.006 77.532C197.526 77.09 197.851 76.427 198.007 75.569H196.967C196.811 76.726 196.148 77.311 195.004 77.311C194.328 77.311 193.808 77.064 193.457 76.596C193.093 76.128 192.924 75.478 192.924 74.659C192.924 73.84 193.106 73.19 193.47 72.709C193.847 72.215 194.367 71.968 195.017 71.968C195.55 71.968 195.979 72.085 196.317 72.345C196.642 72.605 196.85 72.995 196.941 73.515H197.968C197.851 72.696 197.539 72.085 197.019 71.682C196.512 71.292 195.849 71.097 195.017 71.097ZM199.435 68.536V78H200.462V68.536H199.435ZM205.289 71.097C204.275 71.097 203.482 71.435 202.884 72.137C202.312 72.8 202.026 73.632 202.026 74.646C202.026 75.647 202.312 76.479 202.884 77.129C203.482 77.831 204.275 78.182 205.289 78.182C206.29 78.182 207.096 77.831 207.707 77.129C208.266 76.479 208.552 75.647 208.552 74.646C208.552 73.632 208.266 72.8 207.694 72.137C207.096 71.435 206.29 71.097 205.289 71.097ZM205.289 71.968C205.991 71.968 206.55 72.241 206.966 72.787C207.317 73.281 207.499 73.892 207.499 74.646C207.499 75.374 207.317 75.998 206.966 76.492C206.55 77.038 205.991 77.311 205.289 77.311C204.574 77.311 204.015 77.038 203.625 76.492C203.261 75.998 203.092 75.387 203.092 74.646C203.092 73.892 203.261 73.281 203.625 72.787C204.015 72.241 204.574 71.968 205.289 71.968ZM212.283 71.097C211.529 71.097 210.905 71.266 210.437 71.604C209.93 71.942 209.683 72.384 209.683 72.956C209.683 73.528 209.93 73.957 210.45 74.269C210.762 74.477 211.321 74.672 212.114 74.867C212.842 75.049 213.323 75.192 213.544 75.296C213.96 75.504 214.181 75.79 214.181 76.167C214.181 76.921 213.57 77.311 212.374 77.311C211.802 77.311 211.373 77.207 211.087 76.999C210.801 76.765 210.606 76.388 210.528 75.855H209.514C209.67 77.402 210.632 78.182 212.4 78.182C214.298 78.182 215.247 77.48 215.247 76.102C215.247 75.517 214.974 75.062 214.441 74.724C214.09 74.503 213.518 74.295 212.712 74.1C212.036 73.918 211.568 73.775 211.321 73.658C210.931 73.463 210.749 73.216 210.749 72.93C210.749 72.631 210.892 72.397 211.178 72.228C211.438 72.046 211.802 71.968 212.27 71.968C212.803 71.968 213.219 72.072 213.505 72.28C213.765 72.462 213.934 72.774 214.025 73.19H215.039C214.857 71.786 213.947 71.097 212.283 71.097ZM219.236 71.097C218.261 71.097 217.494 71.448 216.922 72.15C216.35 72.813 216.077 73.645 216.077 74.633C216.077 75.725 216.363 76.583 216.961 77.233C217.533 77.857 218.313 78.182 219.275 78.182C220.146 78.182 220.861 77.922 221.42 77.428C221.875 77.012 222.174 76.492 222.33 75.842H221.29C221.121 76.31 220.9 76.661 220.614 76.895C220.276 77.168 219.821 77.311 219.275 77.311C218.638 77.311 218.131 77.103 217.767 76.687C217.403 76.271 217.208 75.686 217.156 74.932H222.46C222.434 73.762 222.174 72.839 221.68 72.189C221.134 71.461 220.315 71.097 219.236 71.097ZM219.262 71.968C220.536 71.968 221.251 72.683 221.381 74.126H217.182C217.247 73.463 217.455 72.943 217.819 72.553C218.183 72.163 218.664 71.968 219.262 71.968ZM228.644 68.536V72.514C228.124 71.565 227.383 71.097 226.421 71.097C225.459 71.097 224.718 71.448 224.172 72.176C223.665 72.826 223.418 73.632 223.418 74.62C223.418 75.634 223.665 76.466 224.172 77.116C224.718 77.818 225.485 78.182 226.473 78.182C227.487 78.182 228.241 77.753 228.709 76.895V78H229.684V68.536H228.644ZM226.642 71.955C227.24 71.955 227.734 72.189 228.111 72.683C228.475 73.164 228.67 73.801 228.67 74.581V74.711C228.67 75.465 228.501 76.076 228.176 76.544C227.799 77.064 227.279 77.324 226.603 77.324C225.875 77.324 225.329 77.051 224.965 76.531C224.64 76.063 224.484 75.426 224.484 74.62C224.484 73.814 224.64 73.19 224.978 72.735C225.342 72.215 225.901 71.955 226.642 71.955ZM235.624 68.536V78H236.599V76.895C237.054 77.753 237.795 78.182 238.835 78.182C239.81 78.182 240.577 77.818 241.136 77.116C241.63 76.466 241.89 75.634 241.89 74.62C241.89 73.632 241.63 72.826 241.136 72.176C240.59 71.448 239.836 71.097 238.887 71.097C237.925 71.097 237.184 71.565 236.664 72.514V68.536H235.624ZM238.666 71.955C239.394 71.955 239.94 72.215 240.317 72.735C240.655 73.19 240.824 73.814 240.824 74.62C240.824 75.426 240.655 76.063 240.343 76.531C239.979 77.051 239.433 77.324 238.705 77.324C238.029 77.324 237.496 77.064 237.132 76.544C236.794 76.076 236.625 75.465 236.625 74.711V74.581C236.625 73.801 236.807 73.164 237.197 72.683C237.561 72.189 238.055 71.955 238.666 71.955ZM246.011 71.097C245.036 71.097 244.269 71.448 243.697 72.15C243.125 72.813 242.852 73.645 242.852 74.633C242.852 75.725 243.138 76.583 243.736 77.233C244.308 77.857 245.088 78.182 246.05 78.182C246.921 78.182 247.636 77.922 248.195 77.428C248.65 77.012 248.949 76.492 249.105 75.842H248.065C247.896 76.31 247.675 76.661 247.389 76.895C247.051 77.168 246.596 77.311 246.05 77.311C245.413 77.311 244.906 77.103 244.542 76.687C244.178 76.271 243.983 75.686 243.931 74.932H249.235C249.209 73.762 248.949 72.839 248.455 72.189C247.909 71.461 247.09 71.097 246.011 71.097ZM246.037 71.968C247.311 71.968 248.026 72.683 248.156 74.126H243.957C244.022 73.463 244.23 72.943 244.594 72.553C244.958 72.163 245.439 71.968 246.037 71.968ZM252.246 69.108L251.219 69.537V71.279H249.867V72.15H251.219V76.427C251.219 76.934 251.323 77.311 251.544 77.571C251.778 77.857 252.181 78 252.727 78H253.741V77.129H252.883C252.649 77.129 252.48 77.064 252.389 76.96C252.285 76.856 252.246 76.674 252.246 76.427V72.15H253.91V71.279H252.246V69.108ZM257.999 71.097C257.193 71.097 256.556 71.253 256.062 71.565C255.516 71.903 255.165 72.436 255.022 73.138L256.049 73.216C256.153 72.787 256.374 72.462 256.725 72.254C257.037 72.046 257.44 71.955 257.934 71.955C259.104 71.955 259.689 72.514 259.689 73.645V73.996L258.077 74.022C257.063 74.035 256.283 74.23 255.737 74.594C255.113 74.984 254.814 75.556 254.814 76.323C254.814 76.869 255.022 77.324 255.438 77.675C255.841 78.013 256.374 78.182 257.05 78.182C257.674 78.182 258.233 78.039 258.727 77.766C259.143 77.532 259.494 77.233 259.754 76.869V78H260.729V73.684C260.729 72.904 260.521 72.293 260.131 71.851C259.663 71.344 258.961 71.097 257.999 71.097ZM259.689 74.776V75.348C259.689 75.868 259.442 76.336 258.961 76.739C258.467 77.155 257.908 77.363 257.271 77.363C256.855 77.363 256.517 77.259 256.257 77.064C255.997 76.856 255.88 76.609 255.88 76.297C255.88 75.322 256.634 74.828 258.142 74.802L259.689 74.776ZM263.089 68.718L263.297 75.504H264.103L264.298 68.718H263.089ZM263.687 76.453C263.466 76.453 263.284 76.518 263.141 76.674C262.985 76.817 262.907 76.999 262.907 77.22C262.907 77.441 262.985 77.623 263.141 77.779C263.284 77.922 263.466 78 263.687 78C263.908 78 264.103 77.922 264.259 77.779C264.402 77.636 264.48 77.454 264.48 77.22C264.48 76.999 264.402 76.817 264.259 76.674C264.103 76.518 263.921 76.453 263.687 76.453Z" fill="black" fill-opacity="0.6"/>
<defs>
<filter id="filter0_d" x="0" y="0" width="415" height="108" filterUnits="userSpaceOnUse" color-interpolation-filters="sRGB">
<feFlood flood-opacity="0" result="BackgroundImageFix"/>
<feColorMatrix in="SourceAlpha" type="matrix" values="0 0 0 0 0 0 0 0 0 0 0 0 0 0 0 0 0 0 127 0"/>
<feOffset dy="4"/>
<feGaussianBlur stdDeviation="2"/>
<feColorMatrix type="matrix" values="0 0 0 0 0 0 0 0 0 0 0 0 0 0 0 0 0 0 0.05 0"/>
<feBlend mode="normal" in2="BackgroundImageFix" result="effect1_dropShadow"/>
<feBlend mode="normal" in="SourceGraphic" in2="effect1_dropShadow" result="shape"/>
</filter>
</defs>
</svg>
